<svg width="60" height="59" viewBox="0 0 60 59" fill="none" xmlns="http://www.w3.org/2000/svg">
<path d="M59.21 13.9222C59.2023 13.5268 59.0418 13.1497 58.7622 12.8701C58.4825 12.5904 58.1054 12.4299 57.71 12.4222C55.41 9.62222 53.01 6.82222 50.71 3.92222C49.71 2.62222 48.81 0.822222 47.21 0.322222C46.01 -0.0777784 43.91 0.322222 42.61 0.322222C39.31 0.322222 36.11 0.322222 32.81 0.222222H23.01C21.21 0.222222 18.61 -0.277778 16.91 0.222222C15.8337 0.558152 14.8896 1.22255 14.21 2.12222C10.9383 5.14593 7.49959 7.98372 3.91001 10.6222H2.71001C2.37293 10.6456 2.05565 10.79 1.81672 11.0289C1.5778 11.2679 1.43334 11.5851 1.41001 11.9222C0.111073 26.3835 -0.289696 40.9114 0.210014 55.4222C0.215176 55.7654 0.353797 56.0931 0.596484 56.3358C0.839172 56.5784 1.16684 56.7171 1.51001 56.7222C20.11 57.5222 38.81 58.3222 57.51 57.9222C57.9046 57.9121 58.2803 57.7508 58.5595 57.4717C58.8386 57.1925 58.9999 56.8169 59.01 56.4222C59.51 42.2222 59.91 28.0222 59.21 13.9222ZM13.31 5.32222C14.41 4.42222 15.41 3.42222 16.61 2.62222C16.71 2.52222 16.81 2.52222 16.91 2.42222H17.01C21.91 1.82222 27.41 2.72222 32.41 2.82222L46.71 3.12222C46.71 3.22222 46.71 3.22222 46.81 3.32222C47.21 4.42222 48.61 5.62222 49.31 6.52222C50.61 8.22222 51.91 10.0222 53.21 11.7222C50.11 11.3222 46.91 11.4222 43.71 11.3222C38.11 11.2222 32.61 11.0222 27.01 10.9222C20.41 10.7222 13.81 10.5222 7.11001 10.5222C9.21001 8.82222 11.31 7.02222 13.31 5.32222ZM2.91001 53.9222C2.44353 40.2811 2.77744 26.6243 3.91001 13.0222C11.01 12.9222 18.11 13.1222 25.31 13.2222L40.21 13.5222C45.31 13.6222 50.81 13.1222 55.81 14.5222L56.11 14.8222C56.71 28.1222 56.51 41.4222 56.11 54.7222C38.41 55.2222 20.61 54.6222 2.91001 53.9222Z" fill="black"/>
<path d="M18.91 36.8222C17.11 36.6222 15.31 36.4222 13.51 36.3222L9.91001 36.0222H8.21001C7.97094 36.0066 7.73238 36.0595 7.52228 36.1746C7.31219 36.2897 7.13928 36.4624 7.02383 36.6723C6.90837 36.8822 6.85516 37.1207 6.87042 37.3598C6.88568 37.5989 6.96879 37.8287 7.11001 38.0222V45.7222C7.11001 47.2222 6.91001 48.7222 8.51001 49.3222C10.4098 49.7688 12.359 49.9704 14.31 49.9222C15.91 50.0222 17.41 50.0222 19.01 50.1222C19.3789 50.1146 19.7306 49.9646 19.9915 49.7037C20.2524 49.4428 20.4023 49.0911 20.41 48.7222C20.51 45.3222 20.51 41.9222 20.51 38.5222C20.4849 38.0962 20.3109 37.6926 20.0185 37.3819C19.726 37.0712 19.3337 36.8731 18.91 36.8222ZM9.81001 47.0222C9.67001 47.0264 9.53158 46.9918 9.41001 46.9222C9.41001 46.3222 9.21001 45.1222 9.21001 44.7222C9.11001 42.8222 9.11001 40.9222 9.11001 39.0222C9.25097 39.0072 9.39267 39.0427 9.51001 39.1222C10.81 39.3222 12.11 39.4222 13.41 39.5222L17.31 39.8222C17.31 42.3222 17.31 44.7222 17.41 47.2222C14.91 47.2222 12.31 47.2222 9.81001 47.0222Z" fill="black"/>
<path d="M31.01 37.5225C36.81 37.9225 42.61 37.8225 48.31 38.3225C50.21 38.5225 50.21 35.4225 48.31 35.3225C42.51 35.1225 36.71 35.3225 31.01 35.0225C30.6785 35.0225 30.3605 35.1542 30.1261 35.3886C29.8917 35.623 29.76 35.9409 29.76 36.2725C29.76 36.604 29.8917 36.9219 30.1261 37.1563C30.3605 37.3908 30.6785 37.5225 31.01 37.5225Z" fill="black"/>
<path d="M47.91 44.2226C48.1968 44.2056 48.4685 44.0888 48.6782 43.8923C48.8878 43.6959 49.0221 43.4323 49.0577 43.1473C49.0934 42.8622 49.0281 42.5737 48.8732 42.3317C48.7184 42.0898 48.4838 41.9096 48.21 41.8226C42.91 40.4226 37.11 41.6226 31.71 40.9226C30.01 40.7226 29.21 43.3226 31.01 43.6226C36.6061 44.4213 42.2713 44.6224 47.91 44.2226Z" fill="black"/>
<path d="M49.11 48.0225C43.71 46.6225 37.41 47.3225 31.81 47.1225C30.01 47.1225 30.01 49.9225 31.81 50.0225C37.41 50.2225 43.21 51.0225 48.71 50.7225C49.0326 50.7084 49.3401 50.5824 49.5799 50.3661C49.8197 50.1499 49.9767 49.857 50.024 49.5376C50.0713 49.2182 50.006 48.8923 49.8392 48.6158C49.6724 48.3394 49.4146 48.1296 49.11 48.0225Z" fill="black"/>
</svg>
