<svg width="77" height="44" viewBox="0 0 77 44" fill="none" xmlns="http://www.w3.org/2000/svg">
<path d="M16.0237 31.5569V31.6874C11.9658 31.5799 11.8965 38.3229 16.1546 38.2999C20.4127 38.2768 20.2972 31.5722 16.0237 31.5569ZM16.0853 36.7792H16.2085C13.7753 36.7792 13.7599 33.0775 16.1623 32.993C18.5801 33.0622 18.5878 36.7408 16.0853 36.7792ZM69.3 16.2968C67.6753 13.8239 65.5886 12.2879 61.6 12.2341C61.6 12.3801 61.6 20.8357 61.7309 20.8203C61.8618 20.805 70.8015 20.6667 70.6244 20.6437C70.8477 20.828 70.4935 18.0863 69.0844 16.0357L69.3 16.2968ZM63.14 19.3688H63.3556C63.3556 19.3688 63.3556 13.893 63.2786 13.7778C67.298 14.2079 68.7302 17.6178 69.0459 19.3304C68.9689 19.2997 63.2093 19.4379 63.0707 19.3688H63.14ZM61.1226 12.2418C61.3228 12.4338 53.2378 12.3954 52.9606 12.2418C52.9606 12.4261 53.0453 19.2306 53.1762 20.613C54.4467 20.7435 61.1226 20.7973 61.2073 20.7819C61.292 20.7666 61.215 12.2879 61.0533 12.2418H61.1226ZM59.6827 19.1999C59.6827 19.1999 54.4775 19.3458 54.362 19.2767C54.5083 19.1922 54.4467 13.8162 54.4698 13.7932L54.5468 13.7087C54.5468 13.7087 59.8444 13.7855 59.8059 13.6703C59.7828 13.7471 59.7905 19.1999 59.6827 19.1999ZM77 25.9889L74.9749 25.6817C74.9749 25.6817 74.9749 23.4315 75.075 22.1643C75.1751 20.8971 73.15 7.85658 61.6 7.85658C60.0061 7.95642 50.3811 7.85658 50.3811 7.85658L50.1116 0.460797C50.1116 0.460797 3.4958 0.0691195 1.8326 0C2.2407 0.430077 2.1406 25.82 2.1406 25.82L0 25.866C0 25.866 0 35.2279 0 36.7408C0.8239 36.4874 7.6461 37.0557 7.6461 37.0557C7.931 39.1216 10.1794 42.7619 15.5232 42.7619C20.867 42.7619 23.9932 40.8189 24.3089 37.6778C24.2473 36.5104 53.1839 37.7623 53.1069 37.3092C54.2619 40.8189 57.3727 43.0922 62.0312 43C66.6897 42.9078 70.6552 40.2736 70.3087 36.7255L76.6073 36.7639L77 25.9889ZM16.1161 40.4195L16.0622 41.3642C12.9822 41.1031 9.7636 38.4688 9.8021 34.9437C10.0408 31.3034 12.6049 28.5924 16.0083 28.723C17.7224 28.7002 19.3765 29.3513 20.6129 30.5356C21.8493 31.7199 22.5685 33.3421 22.6149 35.0513C22.2761 38.1847 19.4348 40.3581 16.1161 40.4195ZM48.6409 34.5597C48.6409 34.5597 24.2473 33.6996 24.2242 34.3524C23.716 29.5985 21.0364 26.9336 16.6166 26.5956C12.1968 26.2577 7.5999 30.643 7.8386 34.1604L2.2561 34.2218C2.2561 34.2218 2.2561 29.2299 2.1098 28.4004C2.7335 28.4004 4.9819 28.1854 5.0589 28.3467C5.4516 27.7246 5.0589 2.18878 5.0589 1.97375C5.2052 2.2195 47.6399 2.31166 48.3637 2.23486C48.6717 11.6658 48.6409 34.5597 48.6409 34.5597ZM61.7309 41.4717V40.7959C58.7048 40.5347 55.6941 38.0464 55.5709 35.0897C55.6864 31.6644 58.2736 28.5233 61.9465 28.746C63.539 28.7755 65.0582 29.4191 66.1852 30.5417C67.3122 31.6644 67.9594 33.1788 67.991 34.7671C67.9964 36.4681 67.3578 38.1085 66.2028 39.3601C65.0479 40.6117 63.4618 41.3823 61.7617 41.5178L61.7309 41.4717ZM74.8209 34.0989C73.7275 34.1527 70.4088 34.3217 70.2702 33.9223C69.9827 31.7867 68.9157 29.8318 67.2734 28.4318C65.6311 27.0319 63.5288 26.2851 61.369 26.3345C57.0955 26.396 54.2157 30.7198 53.2532 34.6442C52.8605 34.6442 50.589 34.5751 50.6583 34.4906C50.4658 34.5981 50.2964 10.3602 50.1655 10.3065C50.1655 10.3065 56.6874 10.3602 60.1755 10.3065C68.5916 10.3065 71.4791 15.0834 72.1182 17.733C73.0268 21.2658 72.4724 23.8769 72.8882 27.594C73.227 27.3944 74.9133 27.7784 75.1135 27.5403C74.7978 28.1163 74.998 32.6782 74.8363 34.145L74.8209 34.0989ZM61.6462 31.5569V31.6874C57.596 31.5799 57.519 38.3229 61.7771 38.2999C66.0352 38.2768 65.912 31.5722 61.6462 31.5569ZM61.7001 36.7792H61.831C59.3978 36.7792 59.3824 33.0775 61.7848 32.993C64.1949 33.0622 64.2026 36.7408 61.7001 36.7792Z" fill="black"/>
</svg>
