<svg width="53" height="97" viewBox="0 0 53 97" fill="none" xmlns="http://www.w3.org/2000/svg">
<g clip-path="url(#clip0_20_164)">
<path d="M0.829973 73.5799C0.579973 68.5799 0.259974 63.5799 0.0999737 58.5799C-0.0200263 55.0999 -0.0500263 51.5799 0.0999737 48.1199C0.319974 43.7999 0.789974 39.4899 1.09997 35.1799C1.28268 33.4153 2.10001 31.7771 3.39997 30.5699C4.1756 29.8313 4.89119 29.0321 5.53997 28.1799C6.32958 27.1638 6.68867 25.8782 6.53997 24.5999C6.16997 21.4499 6.23997 18.2399 6.00997 15.0599C5.86997 13.1099 5.45997 11.1899 5.24997 9.23993C5.16658 8.58011 5.29622 7.91089 5.61997 7.32994C7.89655 4.05898 11.3386 1.78334 15.24 0.969936C18.7866 0.100241 22.4506 -0.190175 26.09 0.109935C29.88 0.429935 33.68 0.469935 37.38 1.38994C39.7996 2.0293 41.9857 3.3479 43.68 5.18994C44.7629 6.47478 45.3202 8.12149 45.24 9.79994C45.4333 13.6599 45.6166 17.5233 45.79 21.3899C45.8867 22.2195 45.9235 23.055 45.9 23.8899C45.8509 24.7571 45.9819 25.6251 46.2848 26.4392C46.5877 27.2533 47.0559 27.9958 47.66 28.6199C48.6229 29.6642 49.4866 30.7958 50.24 31.9999C50.8797 33.2624 51.3376 34.6091 51.6 35.9999C51.8351 37.2661 51.9456 38.5522 51.93 39.8399C52.03 47.5799 52.1 55.3199 52.2 63.0599C52.2 64.4199 52.39 65.7799 52.42 67.1499C52.5835 73.9973 52.1889 80.8466 51.24 87.6299C51.1045 88.274 50.8091 88.8736 50.3809 89.3734C49.9527 89.8732 49.4056 90.2572 48.79 90.4899C43.35 93.0999 37.98 95.9799 31.79 96.2899C28.79 96.4399 25.73 96.6699 22.7 96.6599C21.0395 96.5601 19.3884 96.3395 17.76 95.9999C14.2569 95.4293 10.8008 94.6003 7.41997 93.5199C4.21997 92.5199 2.82997 90.1399 1.70997 87.3199C0.66191 84.5464 0.238519 81.5758 0.469973 78.6199C0.569973 76.9499 0.549973 75.2699 0.569973 73.6199L0.829973 73.5799ZM27.67 16.1199H29.54V15.7299L27.74 16.1499C27.08 16.0099 26.41 15.9099 25.74 15.8299C24.62 15.7599 23.48 15.8299 22.37 15.7199C19.23 15.2999 16.1 14.7999 12.97 14.2899C11.68 14.0699 10.41 13.7499 8.96997 13.4399C8.62815 14.0617 8.398 14.7386 8.28997 15.4399C8.28997 17.8599 8.43997 20.2799 8.55997 22.6999C8.63997 24.3799 8.94997 24.7799 10.56 25.2599C12.561 25.9393 14.5973 26.5101 16.66 26.9699C19.41 27.4499 22.21 27.6699 25 27.9699C25.2487 27.9946 25.4998 27.9654 25.7362 27.8843C25.9726 27.8032 26.1888 27.6721 26.37 27.4999C27.37 26.1399 28.58 26.6799 29.82 26.9699L28.22 27.6799C29.5346 27.7515 30.8529 27.708 32.16 27.5499C35.654 27.3166 39.0945 26.5685 42.37 25.3299C43.27 24.9599 43.86 24.4999 43.81 23.5599C43.72 21.8399 43.52 20.1199 43.39 18.6599L41 17.3299L41.12 16.9499L43.24 16.7199C43.24 15.4399 43.17 14.2699 43.13 12.9899L36.34 15.1499V15.3299L38.4 15.4399C37.12 16.9899 35.4 15.8599 34.29 16.8199C33.18 17.7799 32.05 15.9799 30.92 16.8199L31.54 17.8199L28 18.4499C28.3 17.6399 28.44 17.1899 27.68 16.8999C27.6293 16.6427 27.6259 16.3784 27.67 16.1199ZM40.05 28.6799C40.05 29.2199 39.97 29.5199 39.98 29.8199C40.0669 30.6534 39.8554 31.4908 39.3829 32.1829C38.9105 32.8751 38.2079 33.3772 37.4 33.5999C35.4 34.1899 33.26 34.4799 31.21 34.9699C29.3449 35.2652 27.445 35.2652 25.58 34.9699C22.34 34.7299 19.13 34.2099 15.89 33.9699C13.59 33.8099 13.43 33.9699 12.89 30.6699C12.8035 30.2965 12.7764 29.9118 12.81 29.5299C13.05 27.5999 11.35 27.9999 10.39 27.5299C9.26997 26.9499 8.71997 27.6799 8.14997 28.4599C7.41997 29.4599 6.58997 30.3499 5.94997 31.3899C5.09997 32.7899 3.60997 33.8099 3.42997 35.6199C3.28997 37.1299 2.94997 38.6199 2.87997 40.1399C2.69997 43.6999 2.57997 47.2499 2.50997 50.8099C2.43997 54.2099 2.25997 57.6399 2.50997 61.0199C2.81155 65.7847 2.82825 70.5632 2.55997 75.3299C2.22131 79.3535 2.75689 83.4028 4.12997 87.1999C4.82997 89.0199 5.70997 90.5499 7.84997 91.0399C9.38997 91.3999 10.85 92.0399 12.34 92.5799C16.3974 93.8395 20.6327 94.4305 24.88 94.3299C28.5385 94.2286 32.1848 93.8609 35.79 93.2299C39.9361 92.4757 43.89 90.9017 47.42 88.5999C47.9527 88.2915 48.409 87.867 48.7553 87.358C49.1015 86.8491 49.3287 86.2687 49.42 85.6599C49.8031 83.4205 50.0469 81.1595 50.15 78.8899C50.23 74.7999 49.99 70.7099 50.05 66.6299C50.12 61.6299 49.44 56.6299 50.05 51.6299C50.1713 51.0172 50.2349 50.3945 50.24 49.7699C50.05 46.3699 49.74 42.9699 49.62 39.5599C49.44 34.3999 46.62 30.7599 43.24 27.2599L40.05 28.6799ZM38.3 5.45994C38.92 3.90994 37.75 3.81994 36.82 3.56994C32.6916 2.61946 28.4756 2.10001 24.24 2.01994C20.2749 1.7373 16.3006 2.42371 12.66 4.01994C11.1716 4.77774 9.85972 5.84087 8.80997 7.13994C7.71997 8.36994 8.06997 9.58993 9.47997 10.3099C10.7587 11.1091 12.1464 11.7188 13.6 12.1199C17.544 12.841 21.5226 13.3584 25.52 13.6699C28.251 13.8467 30.993 13.7327 33.7 13.3299C36.0931 12.9621 38.4399 12.3386 40.7 11.4699C41.4698 11.1779 42.0936 10.5943 42.4361 9.8456C42.7786 9.09688 42.8124 8.24335 42.53 7.46994C42.196 6.67296 41.5797 6.0272 40.7992 5.65632C40.0187 5.28544 39.1288 5.21552 38.3 5.45994ZM18.92 30.7399L18.73 31.5299L15.12 30.9299C18.03 33.1699 31.35 33.8799 34.51 31.7999C33.1 31.8699 32.63 31.2099 32.75 29.9199C34.22 29.6199 35.53 29.6299 36.55 30.7999C37.09 31.4099 37.55 31.2899 38.19 30.7099L37.65 29.0499C36.65 30.9699 35.65 29.0499 34.65 29.3999C33.5333 29.6127 32.3958 29.6965 31.26 29.6499C30.16 29.7599 29.06 29.9699 27.97 30.1399C28.1537 30.392 28.3847 30.6059 28.65 30.7699C28.8232 31.1278 28.9573 31.5033 29.05 31.8899C28.6896 32.0926 28.2913 32.2185 27.88 32.2599C26.55 30.6499 24.88 31.5999 23.32 31.6399C22.6542 31.688 21.9858 31.688 21.32 31.6399C20.9427 31.4589 20.6034 31.2078 20.32 30.8999C22.26 30.2199 24.12 31.0699 25.67 30.2399C22.39 29.8399 19.09 29.4299 15.8 29.0699C15.3038 29.1927 14.831 29.3953 14.4 29.6699L18.92 30.7399Z" fill="black"/>
<path d="M11.79 87.57C10.2102 87.8 8.61639 87.9202 7.01998 87.93C5.22998 87.83 4.34998 86.59 5.01998 84.93C6.35998 81.69 8.37998 78.93 11.78 77.54C12.4092 77.2479 13.1141 77.1603 13.7957 77.2895C14.4772 77.4186 15.1012 77.758 15.58 78.26C16.64 79.39 16.32 80.78 15.64 82.08L14.8 83.69C15.6841 83.6412 16.5653 83.5477 17.44 83.41C19.083 83.0961 20.7759 83.1611 22.39 83.6C22.9846 83.7341 23.5269 84.0396 23.9499 84.4786C24.3728 84.9175 24.6579 85.4708 24.77 86.07C25.09 87.29 24.39 88.16 23.44 88.99C20.6 91.49 14.13 91.94 11.79 87.57ZM7.35998 85.57C10.58 85.78 12.65 84.02 13.96 80.3C12.31 79.1 12.26 79.06 11.02 80.39C9.77998 81.72 8.81998 82.9 7.77998 84.2C7.56989 84.6321 7.4282 85.0943 7.35998 85.57ZM14.47 87.5C15.6728 88.3782 17.1543 88.7884 18.6376 88.6541C20.1208 88.5198 21.5045 87.85 22.53 86.77C20.65 84.83 18.02 85.03 14.47 87.5Z" fill="black"/>
<path d="M27.43 66.95C26.05 66.51 25.18 66.29 24.36 65.95C22.98 65.4 22.19 64.39 22.36 63.26C22.4486 62.7047 22.6793 62.1817 23.0297 61.7418C23.3802 61.302 23.8385 60.9603 24.36 60.75C27.02 59.37 29.67 59.75 32.36 60.23C32.5541 60.2356 32.7444 60.2843 32.9174 60.3725C33.0903 60.4607 33.2415 60.5862 33.36 60.74C33.7747 62.0355 34.0135 63.3809 34.07 64.74C34.07 65.37 33.15 66.03 32.59 66.61C32.2464 66.8851 31.8702 67.1169 31.47 67.3C32.4427 68.1161 33.3676 68.9875 34.24 69.91C34.7047 70.5083 34.9767 71.2337 35.02 71.99C35.0258 72.3166 34.9589 72.6404 34.824 72.938C34.689 73.2355 34.4896 73.4992 34.24 73.71C32.39 74.83 30.45 75.71 28.24 74.96C27.54 74.72 26.71 74.8 26.03 74.52C25.1302 74.178 24.2975 73.6804 23.57 73.05C23.2106 72.7037 22.9815 72.2441 22.9214 71.7487C22.8613 71.2532 22.9738 70.7522 23.24 70.33C23.59 69.56 22.77 68.33 23.81 67.85C24.6626 67.5423 25.5488 67.3375 26.45 67.24C26.62 67.22 26.76 67.16 27.43 66.95ZM25.43 71.64C26.9923 72.5794 28.8159 72.9898 30.63 72.81C30.9423 72.7499 31.2369 72.6197 31.4916 72.4292C31.7462 72.2386 31.9543 71.9927 32.1 71.71C32.0929 71.4296 32.027 71.1538 31.9064 70.9005C31.7858 70.6473 31.6132 70.4222 31.4 70.24C31.0859 69.938 30.6749 69.7573 30.24 69.73C28.91 69.67 27.58 69.73 26.18 69.73L25.43 71.64ZM24.83 63.24C25.5828 63.9017 26.4588 64.4083 27.4077 64.7309C28.3566 65.0535 29.3599 65.1857 30.36 65.12C31.2 65.02 32.13 64.89 32.06 63.74C32.0694 63.5527 32.0416 63.3653 31.9782 63.1888C31.9148 63.0123 31.817 62.85 31.6906 62.7115C31.5641 62.573 31.4115 62.4609 31.2415 62.3816C31.0714 62.3024 30.8874 62.2577 30.7 62.25C30.6136 62.2398 30.5264 62.2398 30.44 62.25C29.3 62.25 28.16 62.17 27.04 62.31C26.2692 62.5271 25.5272 62.836 24.83 63.23V63.24Z" fill="black"/>
<path d="M18.24 54.24L19.94 50.72C20.65 50.88 21.17 50.95 21.66 51.11C23.55 51.74 24.2 52.82 23.82 54.72C23.5185 55.7374 23.2814 56.7728 23.11 57.82C22.97 59.82 21.5 60.69 20.11 61.61C19.8415 61.869 19.483 62.0138 19.11 62.0138C18.7369 62.0138 18.3784 61.869 18.11 61.61C17.9374 61.4308 17.8135 61.2105 17.75 60.97C17.23 59.84 16.58 58.68 17.35 57.35C17.5221 56.9664 17.6593 56.5681 17.76 56.16C16.01 58.41 15.16 58.66 12.44 57.9C11.57 57.65 10.68 57.46 9.80998 57.21C9.3567 57.1085 8.928 56.9183 8.54857 56.6503C8.16914 56.3824 7.84649 56.042 7.59922 55.6488C7.35196 55.2556 7.18496 54.8173 7.10785 54.3593C7.03075 53.9012 7.04507 53.4324 7.14998 52.98C7.18008 52.8112 7.23044 52.6467 7.29998 52.49C7.80998 50.94 8.49998 50.38 10.15 50.42C11.5898 50.4078 13.0272 50.5418 14.44 50.82C15.3272 50.9839 16.1518 51.3902 16.8225 51.9938C17.4932 52.5974 17.9838 53.3748 18.24 54.24ZM10.97 52.4C10.392 52.6038 9.87325 52.9473 9.45998 53.4C9.08998 54.3 9.97998 54.75 10.68 54.98C11.6199 55.252 12.5748 55.469 13.54 55.63C14.32 55.79 15.14 55.86 15.42 54.89C15.5184 54.524 15.4686 54.1341 15.2814 53.8046C15.0942 53.4751 14.7847 53.2327 14.42 53.13H14.36C13.2401 52.8277 12.1052 52.584 10.96 52.4H10.97ZM21.18 53.46C19.63 55.46 18.99 57.23 19.56 59.36C19.7282 59.3794 19.8987 59.3652 20.0614 59.3183C20.2242 59.2713 20.376 59.1926 20.5081 59.0865C20.6402 58.9805 20.7499 58.8493 20.8309 58.7005C20.9119 58.5518 20.9626 58.3884 20.98 58.22C20.99 58.1503 20.99 58.0796 20.98 58.01C21.15 56.63 21.98 55.25 21.18 53.46Z" fill="black"/>
<path d="M25.07 76.0699C25.9 76.1399 26.73 76.1999 27.56 76.2899C28.5304 76.3441 29.4455 76.7586 30.1262 77.4522C30.8069 78.1459 31.2041 79.0687 31.24 80.0399C31.3075 80.534 31.2147 81.0366 30.9753 81.474C30.7359 81.9114 30.3625 82.2605 29.91 82.4699C28.2517 83.3149 26.3807 83.6509 24.5321 83.4356C22.6835 83.2203 20.9397 82.4634 19.52 81.2599C19.091 80.8845 18.7715 80.4 18.5955 79.8578C18.4194 79.3155 18.3934 78.7358 18.52 78.1799C18.75 76.9999 19.78 76.7099 20.76 76.5299C22.16 76.2699 23.59 76.1199 25 75.9199L25.07 76.0699ZM21.24 78.7299C22.48 81.0699 26.67 82.1099 28.52 80.6499C29.27 80.0499 29.06 79.0899 27.96 78.8799C26.1174 78.5521 24.2578 78.3284 22.39 78.2099C21.9713 78.2911 21.5775 78.4691 21.24 78.7299Z" fill="black"/>
<path d="M32.94 90.7001C31.8857 90.4691 30.8469 90.1718 29.83 89.8101C28.66 89.3501 28.42 88.6401 28.83 87.4601C29.33 86.0601 30.05 84.8201 31.66 84.4601C33.8 83.9501 35.93 83.4601 38.08 82.9501C39.45 82.6601 40.39 83.5101 41.18 84.4201C41.5176 84.9304 41.6637 85.5438 41.5923 86.1515C41.5209 86.7592 41.2367 87.322 40.79 87.7401C39.68 88.8801 35.09 90.7701 32.94 90.7001ZM30.86 87.5101C34.01 89.1101 37.39 88.3601 39.09 85.8101C37.6955 85.3022 36.1872 85.1922 34.7338 85.4924C33.2804 85.7926 31.9391 86.4912 30.86 87.5101Z" fill="black"/>
<path d="M32.24 51.03C33.3969 51.2934 34.5206 51.6859 35.59 52.2C37.42 53.31 37.49 55.07 35.68 56.2C32.9502 58.0488 29.6411 58.8415 26.37 58.43C25.9182 58.3886 25.494 58.1947 25.1669 57.8804C24.8398 57.566 24.6293 57.1498 24.57 56.7C23.97 53.78 24.57 52.8 27.57 52C28.97 51.59 30.47 51.38 32.24 51.03ZM34.96 53.94C33.7 53.67 32.96 53.44 32.27 53.36C30.6868 53.0528 29.046 53.3489 27.67 54.19C27.2813 54.5973 26.9696 55.0716 26.75 55.59C27.1401 55.8895 27.5904 56.101 28.07 56.21C30.5597 56.2704 32.9937 55.4685 34.96 53.94Z" fill="black"/>
<path d="M44.72 53.9901C45.3101 54.0016 45.8985 54.0585 46.48 54.1601C47.1635 54.3154 47.7796 54.685 48.2384 55.215C48.6971 55.745 48.9746 56.4076 49.0305 57.1064C49.0863 57.8051 48.9174 58.5034 48.5486 59.0995C48.1798 59.6955 47.6302 60.1582 46.98 60.4201C45.9855 60.751 44.935 60.8802 43.89 60.8001C42.4704 60.6624 41.0631 60.4184 39.68 60.0701C39.1517 59.981 38.6659 59.7252 38.2934 59.3402C37.921 58.9551 37.6815 58.461 37.61 57.9301C37.5569 57.3954 37.6599 56.8567 37.9066 56.3793C38.1533 55.9018 38.5331 55.5062 39 55.2401C40.59 54.1401 42.38 53.9401 44.72 53.9901ZM40.3 57.4101C41.86 58.4601 44.64 58.9801 45.97 58.4701C46.1403 58.4127 46.2959 58.3185 46.4255 58.194C46.5552 58.0695 46.6557 57.918 46.72 57.7501C46.7273 57.5322 46.6884 57.3153 46.6056 57.1136C46.5229 56.9119 46.3982 56.73 46.24 56.5801C44.92 55.5601 41.97 55.9601 40.3 57.4101Z" fill="black"/>
<path d="M41.93 62.49C43.1882 62.673 44.4315 62.947 45.65 63.31C47.38 63.96 48.04 65.18 47.72 66.61C47.32 68.43 45.72 69.93 44.03 69.76C42.0093 69.5658 40.0045 69.2317 38.03 68.76C37.381 68.6682 36.7947 68.3232 36.3993 67.8004C36.0039 67.2776 35.8316 66.6195 35.92 65.97C35.9494 65.8108 35.9895 65.6538 36.04 65.5C36.2296 64.8672 36.6324 64.3195 37.18 63.95C38.5379 62.9111 40.223 62.3931 41.93 62.49ZM38.06 66.67C39.37 66.9 40.44 67.1 41.52 67.28C42.3077 67.5176 43.1273 67.6323 43.95 67.62C44.5488 67.3907 45.0455 66.9543 45.35 66.39C45.3652 66.1852 45.3272 65.9799 45.2395 65.7942C45.1519 65.6084 45.0177 65.4485 44.85 65.33C43.7239 64.9586 42.5457 64.7696 41.36 64.77C40.24 64.85 38.88 64.8 38.06 66.67Z" fill="black"/>
<path d="M13.33 66.5601C11.2547 66.4943 9.24044 65.8426 7.52002 64.6801C7.03018 64.3906 6.66502 63.9299 6.4951 63.3869C6.32518 62.8439 6.36256 62.2572 6.60002 61.7401C6.98002 60.5501 7.07002 59.3201 8.81002 59.4101C9.49445 59.3482 10.1673 59.1934 10.81 58.9501C13.32 58.3201 15.21 59.4701 16.89 61.0701C17.2234 61.4723 17.4072 61.9777 17.41 62.5001C17.418 63.0254 17.3223 63.5471 17.1286 64.0355C16.9349 64.5238 16.6469 64.9692 16.281 65.3462C15.9151 65.7233 15.4786 66.0245 14.9963 66.2328C14.5139 66.4411 13.9953 66.5523 13.47 66.5601H13.33ZM12.33 64.2801C12.8177 64.308 13.3067 64.2607 13.78 64.1401C14.224 63.9397 14.5796 63.5841 14.78 63.1401C14.8183 62.8947 14.8043 62.644 14.7388 62.4044C14.6733 62.1649 14.5578 61.9419 14.4 61.7501C13.62 60.8901 10.88 60.7501 9.91002 61.4101C8.94002 62.0701 8.91002 63.1701 10.03 63.6701C10.7678 63.9334 11.5274 64.1308 12.3 64.2601L12.33 64.2801Z" fill="black"/>
<path d="M42.46 78.3301C42.46 77.2601 42.46 76.1901 42.52 75.1301C42.6 73.5201 43.52 72.7201 45.34 72.4101C47.01 72.1401 47.64 72.5601 48.34 74.0901C49.369 76.4989 49.4013 79.2174 48.43 81.6501C47.76 83.6501 45.26 85.4301 43 83.3001C42.7219 83.0542 42.5108 82.7417 42.3866 82.3918C42.2624 82.042 42.2291 81.6663 42.29 81.3001C42.41 80.3001 42.47 79.3001 42.55 78.3001L42.46 78.3301ZM44.46 78.2601H44.57C44.505 79.1689 44.505 80.0812 44.57 80.9901C44.6337 81.1872 44.7416 81.3671 44.8855 81.5161C45.0293 81.6652 45.2053 81.7794 45.4 81.8501C45.5797 81.8447 45.7558 81.7988 45.9151 81.7156C46.0744 81.6325 46.2129 81.5144 46.32 81.3701C47.32 80.1601 47.46 76.3701 46.56 75.2401C46.4103 75.0903 46.2301 74.9744 46.0317 74.9002C45.8333 74.826 45.6213 74.7953 45.41 74.8101C45.2422 74.8646 45.0905 74.9598 44.9683 75.0872C44.8462 75.2145 44.7575 75.3701 44.71 75.5401C44.56 76.4301 44.54 77.3501 44.47 78.2601H44.46Z" fill="black"/>
<path d="M13.06 72.4001C13.36 74.9901 11.31 76.4801 9.40002 78.0201C9.21473 78.1338 9.00667 78.2053 8.79063 78.2295C8.57459 78.2537 8.35587 78.23 8.15002 78.1601C7.29889 77.7398 6.61295 77.0467 6.20154 76.1913C5.79013 75.3358 5.67694 74.3673 5.88002 73.4401C6.21942 72.1086 6.65045 70.8021 7.17002 69.5301C7.3746 68.9482 7.72766 68.4298 8.19424 68.0264C8.66081 67.623 9.22469 67.3485 9.83002 67.2301C10.4002 67.0476 11.0196 67.0989 11.552 67.3726C12.0845 67.6463 12.4866 68.1202 12.67 68.6901C12.698 68.7754 12.7214 68.8622 12.74 68.9501C12.8971 69.4561 13.0109 69.9747 13.08 70.5001C13.1 71.1301 13.1 71.7701 13.06 72.4001ZM10.33 69.8701C9.9522 69.7829 9.55524 69.8485 9.2256 70.0527C8.89596 70.2569 8.66033 70.583 8.57002 70.9601C8.55493 71.0595 8.55493 71.1606 8.57002 71.2601C8.24002 72.8001 7.08002 74.3901 8.95002 75.6801C10.88 74.3901 11.23 73.0101 10.37 69.8701H10.33Z" fill="black"/>
<path d="M35.89 81.18C33.47 81.11 32.77 80.35 32.89 78.47C32.8996 78.0115 33.0197 77.5621 33.24 77.16C34.2808 75.392 35.4472 73.701 36.73 72.1C37.0031 71.7026 37.377 71.385 37.8132 71.1797C38.2495 70.9743 38.7324 70.8886 39.2127 70.9314C39.693 70.9741 40.1532 71.1437 40.5464 71.4229C40.9395 71.702 41.2514 72.0807 41.45 72.52C41.6847 72.9755 41.7654 73.4948 41.68 74C41.0896 76.5442 39.6852 78.8264 37.68 80.5C37.1414 80.8571 36.5299 81.0894 35.89 81.18ZM39.72 73.93C38.24 73.33 38.24 73.33 37.73 73.77C36.63 74.68 35.24 77.7 35.42 78.97C37.88 78.18 39.04 76.33 39.72 73.93Z" fill="black"/>
<path d="M21.38 70.6799C21.4348 71.2853 21.4348 71.8944 21.38 72.4999C20.74 75.6399 18.72 76.6299 15.88 76.1099C15.402 76.0382 14.9717 75.7803 14.6832 75.3924C14.3946 75.0046 14.2713 74.5184 14.34 74.0399C14.3582 73.9172 14.3883 73.7967 14.43 73.6799C14.89 71.6799 15.59 69.7699 16.17 67.8099C16.2604 67.2875 16.5545 66.8224 16.9876 66.5168C17.4208 66.2111 17.9576 66.0899 18.48 66.1799H18.55C19.1848 66.1915 19.7968 66.4186 20.2855 66.8238C20.7743 67.229 21.1109 67.7883 21.24 68.4099C21.3298 69.1634 21.3799 69.9211 21.39 70.6799H21.38ZM16.38 73.3799C17.97 74.4499 18.89 74.1899 19.19 72.5899C19.3487 71.7699 19.3924 70.9319 19.32 70.0999C19.17 69.6428 18.9397 69.2162 18.64 68.8399C18.224 69.0784 17.8601 69.398 17.57 69.7799C17.09 70.9599 16.76 72.1999 16.38 73.3799Z" fill="black"/>
<path d="M33.47 23.6899L37.24 22.7499L35.61 21.7499C36.89 21.4999 37.82 21.3099 38.85 21.9799C38.76 22.6199 38.67 23.2499 38.58 23.9099L33.58 24.2799L33.47 23.6899Z" fill="black"/>
<path d="M35.16 19.7601L27.16 20.2401C28.64 19.2101 33.44 18.8801 35.16 19.7601Z" fill="black"/>
<path d="M38.17 25.38C39.36 23.33 41.24 23.33 43.16 22.72C42.5512 23.4776 41.7951 24.1039 40.9375 24.5611C40.0798 25.0183 39.1383 25.2969 38.17 25.38Z" fill="black"/>
<path d="M31.84 24.1699C30.3187 24.9571 28.6077 25.3035 26.9 25.1699C28.71 23.6499 30.44 24.7599 31.84 24.1699Z" fill="black"/>
<path d="M37.88 18.73C38.4645 18.7989 39.0429 18.9125 39.61 19.07C39.5699 19.5624 39.4896 20.0507 39.37 20.53C38.9 20.06 38.68 19.82 38.44 19.6C38.2 19.38 38.01 19.25 37.79 19.07L37.88 18.73Z" fill="black"/>
<path d="M23.61 22.93L25.75 22.5C25.609 22.8918 25.3226 23.2142 24.9502 23.4004C24.5778 23.5866 24.148 23.6223 23.75 23.5L23.61 22.93Z" fill="black"/>
<path d="M21.97 18.3301C22.0894 18.1375 22.2499 17.9736 22.44 17.8501C22.6769 17.9269 22.8998 18.0418 23.1 18.1901C22.9669 18.3516 22.7995 18.4814 22.61 18.5701C22.3827 18.5337 22.1651 18.4521 21.97 18.3301Z" fill="black"/>
<path d="M13.84 24.4301C14.0406 24.2775 14.2631 24.1561 14.5 24.0701C14.6899 24.0951 14.8732 24.1562 15.04 24.2501C14.9065 24.4579 14.7411 24.6435 14.55 24.8001C14.2918 24.7234 14.0508 24.5978 13.84 24.4301Z" fill="black"/>
</g>
<defs>
<clipPath id="clip0_20_164">
<rect width="52.47" height="96.66" fill="white"/>
</clipPath>
</defs>
</svg>
