<svg width="57" height="44" viewBox="0 0 57 44" fill="none" xmlns="http://www.w3.org/2000/svg">
<path d="M29.1451 43.0694C27.8666 43.0694 26.5577 43.0519 25.2185 43.0169C18.0345 42.8574 10.8897 41.9091 3.91274 40.1892C3.7842 40.2667 3.63902 40.3123 3.48928 40.3222C3.25276 40.3337 3.02133 40.251 2.84558 40.0923C2.66983 39.9336 2.56405 39.7118 2.55138 39.4753C2.41839 36.8961 2.3484 34.2714 2.27841 31.7306C2.21892 29.5189 2.15592 27.2301 2.05443 24.9868L1.97394 23.3175C1.77796 19.2124 1.57148 14.9674 1.76396 10.7958C1.449 9.89641 1.19702 9.09499 0.990544 8.34607C0.961522 8.23341 0.975093 8.11399 1.02866 8.01071C1.08222 7.90743 1.17201 7.82755 1.28082 7.78636C1.38963 7.74518 1.50981 7.74559 1.61834 7.78753C1.72687 7.82946 1.8161 7.90996 1.86895 8.01361C2.54438 9.44146 3.18482 10.9043 3.80425 12.3182C4.85414 14.7434 5.96352 17.2526 7.26539 19.6254C9.65914 23.9894 12.1439 27.4821 14.8631 30.3028C14.9537 30.3922 15.0182 30.5046 15.0496 30.6279C15.081 30.7513 15.0783 30.8808 15.0416 31.0027C14.9949 31.1453 14.9125 31.2735 14.8023 31.3752C14.692 31.4769 14.5575 31.5487 14.4116 31.5836C14.2866 31.6161 14.1551 31.6133 14.0316 31.5757C13.908 31.538 13.7973 31.4669 13.7117 31.3702C10.6968 28.1354 8.14998 24.4943 6.14551 20.5528C5.03262 18.474 4.00373 16.3217 3.07983 14.1345C3.14282 15.1844 3.20231 16.2552 3.26531 17.3156C3.40879 19.8844 3.56278 22.5371 3.72726 25.1513C3.79725 26.3097 3.88124 27.4786 3.96523 28.6509C4.20321 31.9931 4.45168 35.4437 4.36069 38.8279C11.3579 40.3652 18.4897 41.208 25.6525 41.3441C31.8468 41.4561 38.0447 40.8367 44.043 40.2347L46.9652 39.9443C46.5548 37.4219 46.3046 34.8761 46.2163 32.3221C46.2123 32.1815 46.2622 32.0447 46.356 31.9399C46.4497 31.8351 46.5801 31.7702 46.7203 31.7586C46.8587 31.7372 47.0001 31.7704 47.1144 31.8515C47.2288 31.9325 47.3071 32.0548 47.3327 32.1926C47.8692 34.8268 48.22 37.4954 48.3826 40.1787C48.4351 40.2593 48.4742 40.348 48.4981 40.4412C48.5253 40.5483 48.531 40.6597 48.5148 40.7691C48.4987 40.8784 48.4611 40.9834 48.4042 41.0781C48.3472 41.1728 48.2721 41.2552 48.1831 41.3207C48.0941 41.3862 47.993 41.4334 47.8856 41.4596C42.3597 42.541 36.2004 43.0694 29.1451 43.0694ZM3.72026 39.4193L3.91624 39.4683C10.8958 41.2024 18.046 42.1578 25.236 42.317C33.9151 42.541 41.2748 42.0405 47.7387 40.7842C47.7673 40.7731 47.791 40.752 47.8051 40.7247C47.815 40.7086 47.8217 40.6908 47.8247 40.6722C47.8277 40.6536 47.827 40.6345 47.8226 40.6162C47.8186 40.5998 47.8115 40.5844 47.8017 40.5707L47.4167 40.6092C46.3108 40.7142 45.2119 40.8227 44.113 40.9347C38.0937 41.5366 31.8643 42.1595 25.6385 42.0475C18.3291 41.9044 11.0523 41.0321 3.91624 39.4438L3.63277 39.3808V39.0904C3.74476 35.6502 3.48928 32.1121 3.24431 28.6929C3.16032 27.5206 3.07633 26.3517 3.00633 25.1933C2.84185 22.5791 2.69137 19.9439 2.54438 17.3576L2.3764 14.4354C2.3764 17.3996 2.52338 20.3848 2.66337 23.2825L2.74386 24.9518C2.84535 27.2056 2.90834 29.5014 2.96784 31.7131C3.03783 34.2469 3.10782 36.8681 3.24081 39.4403C3.24169 39.4781 3.25388 39.5148 3.27581 39.5455C3.29773 39.5763 3.32838 39.5998 3.3638 39.613C3.39921 39.6262 3.43777 39.6285 3.47449 39.6195C3.51121 39.6106 3.5444 39.5908 3.56977 39.5628L3.72026 39.4193ZM47.0562 34.6528C47.1568 36.4274 47.3637 38.1944 47.6757 39.9443C47.5698 38.1701 47.363 36.4035 47.0562 34.6528ZM3.69576 13.7915C4.61967 15.9823 5.64856 18.1415 6.76494 20.2308C8.74214 24.1172 11.2536 27.7076 14.2262 30.8977C14.2262 30.8977 14.2262 30.8977 14.2787 30.8977C14.3025 30.8903 14.3243 30.8772 14.3419 30.8595C14.3596 30.8418 14.3727 30.8201 14.3801 30.7962C11.6084 27.9195 9.0852 24.3779 6.65995 19.9474C5.55057 17.9526 4.59517 15.8563 3.69576 13.7915ZM27.1958 33.8899C23.3302 33.9276 19.4776 33.4366 15.745 32.4306C15.62 32.4005 15.5116 32.3232 15.4424 32.2148C15.3733 32.1065 15.3488 31.9756 15.374 31.8496C15.4029 31.7089 15.4838 31.5842 15.6006 31.5005C15.7174 31.4168 15.8614 31.3803 16.004 31.3982C22.6737 32.5769 29.4914 32.6549 36.1864 31.6291C42.4612 30.6527 48.2181 28.7034 54.297 26.6352C52.0362 23.8075 50.2234 20.3078 48.5576 16.9482C46.3213 12.3987 44.904 8.66104 44.1095 5.13341C43.4726 5.30839 42.8357 5.48337 42.1987 5.63736C42.2581 6.6218 42.1152 7.60798 41.7788 8.53505C41.706 8.73121 41.5597 8.89133 41.371 8.98148C41.1822 9.07163 40.9657 9.08473 40.7674 9.018C40.6758 8.99111 40.5904 8.94639 40.5161 8.88639C40.4419 8.8264 40.3802 8.75232 40.3347 8.66841C40.2892 8.58451 40.2607 8.49243 40.2508 8.39747C40.241 8.30251 40.2501 8.20655 40.2774 8.1151C40.4558 7.43511 40.5498 6.73576 40.5574 6.03281C39.455 6.28479 38.3386 6.52276 37.2223 6.73274C37.128 7.52191 36.8693 8.28254 36.4628 8.96551C36.3352 9.15811 36.1393 9.29516 35.9146 9.34906C35.6899 9.40296 35.4531 9.3697 35.252 9.25598C35.1642 9.21288 35.0858 9.15269 35.0216 9.07893C34.9573 9.00517 34.9085 8.91932 34.8778 8.82643C34.8472 8.73353 34.8354 8.63546 34.8432 8.53795C34.8509 8.44044 34.8781 8.34546 34.923 8.25858C35.1114 7.87741 35.2626 7.47893 35.3745 7.06871C33.8136 7.33118 32.2248 7.56565 30.6604 7.76863C30.5829 8.7003 30.2579 9.59435 29.719 10.3584C29.5829 10.5342 29.3875 10.6545 29.1693 10.697C28.9511 10.7395 28.7248 10.7012 28.5327 10.5893C28.3739 10.5012 28.2556 10.3549 28.2027 10.1812C28.1498 10.0075 28.1665 9.82007 28.2492 9.65844C28.5024 9.12602 28.6836 8.56231 28.7881 7.98211C27.2588 8.14309 25.7085 8.27258 24.1756 8.37057C24.1875 8.99365 24.0757 9.61291 23.8469 10.1926C23.618 10.7722 23.2766 11.3008 22.8423 11.7477C22.7021 11.8783 22.5214 11.9569 22.3303 11.9703C22.1392 11.9837 21.9493 11.931 21.7924 11.8212C21.656 11.7293 21.5563 11.5923 21.5109 11.4342C21.4655 11.2761 21.4772 11.1071 21.5439 10.9568L21.6244 10.7678C21.9802 10.0459 22.2244 9.27421 22.3488 8.47906C20.7845 8.55955 19.1991 8.60155 17.6313 8.60855C17.503 9.50062 17.0849 10.3257 16.4414 10.9568C16.2986 11.0836 16.117 11.1582 15.9263 11.1684C15.7356 11.1786 15.547 11.1237 15.3915 11.0128C15.2559 10.9185 15.158 10.7794 15.1151 10.6199C15.0722 10.4605 15.0871 10.291 15.1571 10.1414C15.4111 9.64652 15.6173 9.12857 15.773 8.59455C13.8132 8.59455 11.8324 8.52106 9.87961 8.42307C9.81572 9.05892 9.62109 9.67471 9.30793 10.2318C8.99476 10.7888 8.56983 11.2752 8.05981 11.6602C7.86788 11.8068 7.62712 11.8743 7.38696 11.849C7.14681 11.8236 6.92548 11.7072 6.76844 11.5237C6.70203 11.4419 6.6525 11.3477 6.6227 11.2466C6.5929 11.1455 6.58342 11.0395 6.5948 10.9348C6.60619 10.83 6.63823 10.7285 6.68905 10.6362C6.73988 10.5439 6.80849 10.4625 6.89093 10.3969C7.50562 9.852 7.92992 9.12481 8.1018 8.32158C5.53657 8.15359 2.99583 7.92612 0.476098 7.63565C0.340195 7.62317 0.214601 7.55791 0.126271 7.45388C0.0379411 7.34985 -0.00608321 7.21533 0.00364752 7.07921C0.0135294 6.94021 0.0779104 6.81074 0.182778 6.71899C0.287646 6.62723 0.424512 6.5806 0.563588 6.58926C2.95734 6.86573 5.48757 7.06521 8.1053 7.18419C8.04696 6.87135 7.93571 6.57074 7.77634 6.29529C7.10091 5.10191 5.79904 4.57347 3.92674 4.72045C3.81451 4.73108 3.70212 4.70183 3.60932 4.63783C3.51652 4.57383 3.44923 4.47917 3.41929 4.37049C3.3861 4.25546 3.39295 4.13256 3.43873 4.02193C3.48451 3.9113 3.56649 3.8195 3.67126 3.76155C5.71155 2.69067 8.22079 3.79655 9.27068 5.51137C9.5864 6.04704 9.78555 6.6433 9.85512 7.26119C11.8709 7.31718 13.9077 7.32768 15.92 7.28568C15.899 7.00231 15.8389 6.7232 15.7415 6.45627C15.339 5.32589 14.4081 4.48248 12.9768 3.95403C12.8687 3.91169 12.7786 3.83334 12.7216 3.73223C12.6647 3.63113 12.6443 3.51345 12.6641 3.39909C12.6838 3.28472 12.7424 3.18068 12.83 3.10453C12.9176 3.02838 13.0288 2.9848 13.1448 2.98113C15.5595 3.09662 17.2673 5.2244 17.5823 7.25069C19.0522 7.20519 20.5745 7.1282 22.2123 7.01971C22.037 6.39884 21.7304 5.82287 21.3132 5.33079C20.896 4.83871 20.3779 4.442 19.7941 4.16751C19.7192 4.13414 19.6519 4.08591 19.5962 4.02575C19.5405 3.96559 19.4976 3.89476 19.4702 3.81753C19.4427 3.7403 19.4312 3.6583 19.4363 3.57649C19.4415 3.49468 19.4632 3.41477 19.5001 3.3416C19.5818 3.1684 19.7265 3.03287 19.9047 2.96265C20.0829 2.89242 20.2811 2.89277 20.459 2.96364C21.2851 3.33059 22.022 3.87177 22.6194 4.55011C23.2168 5.22845 23.6605 6.02791 23.9201 6.89373C25.544 6.76074 27.1853 6.58576 28.8196 6.37228C28.6167 4.97243 27.7697 3.80005 26.3244 3.00913C26.2054 2.94241 26.1157 2.83357 26.073 2.70403C26.0302 2.57449 26.0375 2.43364 26.0934 2.3092C26.1457 2.16946 26.2497 2.05517 26.3839 1.99002C26.5181 1.92487 26.6722 1.91385 26.8143 1.95924C27.7362 2.28667 28.5606 2.84117 29.2114 3.57152C29.8623 4.30187 30.3185 5.18449 30.538 6.1378C32.2108 5.89283 33.9011 5.61986 35.5704 5.31889C35.4794 4.01353 34.832 2.81665 33.6351 1.75976C33.5404 1.68047 33.4789 1.56854 33.4627 1.44607C33.4465 1.32361 33.4768 1.19952 33.5476 1.09833C33.6243 0.982675 33.7401 0.898507 33.8738 0.861232C34.0075 0.823957 34.1501 0.836069 34.2756 0.895352C35.0491 1.30822 35.7158 1.89583 36.2224 2.61148C36.7291 3.32714 37.0619 4.15112 37.1943 5.01792C38.2442 4.81494 39.315 4.60496 40.3684 4.38449C40.0261 3.05147 39.3478 1.82849 38.3981 0.83236L38.3701 0.800863C38.2992 0.710785 38.2613 0.59907 38.2629 0.484408C38.2644 0.369747 38.3053 0.259095 38.3787 0.170968C38.452 0.0828409 38.5534 0.0225848 38.6659 0.000280919C38.7784 -0.022023 38.8951 -0.00502141 38.9966 0.0484412H39.0281C40.4634 0.970556 41.502 2.39613 41.9398 4.04502C43.132 3.79305 44.3265 3.53291 45.5234 3.2646C45.611 3.23366 45.7034 3.21826 45.7964 3.21911C45.8883 3.22227 45.9787 3.24352 46.0624 3.28165C46.1461 3.31978 46.2215 3.37403 46.2842 3.44131C46.347 3.5086 46.3958 3.58758 46.428 3.67376C46.4602 3.75993 46.4751 3.8516 46.4718 3.94353C46.4661 4.11728 46.3959 4.28269 46.2749 4.40754C46.1539 4.53239 45.9908 4.60776 45.8174 4.61896L45.1419 4.81494C45.3274 5.28739 45.4919 5.75984 45.6879 6.2148C46.9582 9.53595 48.2741 12.9656 49.9399 16.1958C51.1432 18.4238 52.468 20.584 53.9085 22.6666C54.8009 24.0069 55.7248 25.3963 56.5787 26.8101C56.6717 26.976 56.698 27.1709 56.6526 27.3555C56.6071 27.54 56.4931 27.7004 56.3338 27.804C56.2038 27.9077 56.0453 27.969 55.8794 27.9796C55.7136 27.9902 55.5484 27.9497 55.4064 27.8635C55.3764 27.8837 55.3448 27.9012 55.3119 27.916C49.6565 30.5023 43.0002 32.3046 35.5249 33.2775C32.7611 33.6603 29.9754 33.8649 27.1853 33.8899H27.1958ZM20.627 32.7385C25.0435 33.379 29.936 33.337 35.4444 32.623C42.8497 31.6606 49.443 29.8723 55.0424 27.3141C55.0509 27.3113 55.0588 27.3068 55.0654 27.3008C55.0721 27.2947 55.0773 27.2873 55.0809 27.2791L55.1509 27.0866L54.7449 27.2231C48.5541 29.3229 42.7097 31.3247 36.2984 32.3221C31.109 33.116 25.8406 33.2559 20.6165 32.7385H20.627ZM55.7948 27.3141C55.7948 27.3141 55.8543 27.3141 55.8648 27.3141C55.892 27.3074 55.9173 27.2945 55.9386 27.2762C55.9599 27.258 55.9766 27.235 55.9873 27.2091C55.1439 25.8092 54.2375 24.4094 53.3346 23.09C51.8796 20.9875 50.5419 18.8062 49.3275 16.5562C47.9255 13.7427 46.6755 10.856 45.5829 7.90862C46.5538 10.9148 47.759 13.8401 49.1875 16.6577C50.9828 20.2763 52.7886 23.762 55.1579 26.5967L55.7948 27.3141ZM23.0557 7.74764V8.0976C23.0557 9.14749 22.6673 10.0644 22.2543 11.0303L22.1738 11.2473C22.1738 11.2473 22.2088 11.2858 22.2578 11.2928C22.2827 11.3016 22.3099 11.3016 22.3348 11.2928C22.7423 10.8738 23.0528 10.3705 23.2445 9.81844C23.4362 9.26635 23.5044 8.67892 23.4442 8.0976L23.4092 7.74764L23.7592 7.72664C25.5475 7.62165 27.3568 7.46767 29.1346 7.27519L29.5686 7.22619L29.5196 7.66014C29.4322 8.46883 29.2086 9.25688 28.8581 9.9909C28.8558 10.0024 28.8558 10.0144 28.8581 10.0259C28.8996 10.0356 28.9417 10.0426 28.9841 10.0469C29.0099 10.0479 29.0355 10.043 29.0592 10.0327C29.0828 10.0224 29.1038 10.0069 29.1206 9.9874C29.6414 9.25519 29.9303 8.38348 29.95 7.48516V7.18419L30.2475 7.1457C32.0778 6.91472 33.9291 6.63825 35.7454 6.32328L36.2459 6.23929L36.1689 6.69775C36.0442 7.34804 35.8336 7.97885 35.5424 8.57355C35.5396 8.58622 35.5396 8.59937 35.5424 8.61205C35.5872 8.6537 35.6458 8.67737 35.7069 8.67854C35.7364 8.68296 35.7665 8.67945 35.7942 8.66838C35.8219 8.65731 35.8461 8.63907 35.8644 8.61555C36.2643 7.94812 36.5039 7.19699 36.5643 6.42127L36.5853 6.1518L36.8478 6.10281C38.1812 5.84733 39.5215 5.56036 40.8339 5.2524L41.2468 5.15441L41.2643 5.57786C41.3 6.49031 41.2009 7.40302 40.9704 8.28658C40.9704 8.31808 40.9704 8.33558 40.9704 8.33908C40.9837 8.34466 40.9979 8.34753 41.0124 8.34753C41.0268 8.34753 41.0411 8.34466 41.0544 8.33908C41.0739 8.33801 41.0927 8.3311 41.1083 8.31925C41.1239 8.30739 41.1356 8.29114 41.1418 8.27258C41.4726 7.34959 41.5922 6.36419 41.4918 5.38888L41.4638 5.08791L41.7578 5.01442C42.9862 4.70995 44.225 4.37399 45.4429 4.01353C44.218 4.2865 42.9955 4.5513 41.7753 4.80794L41.4253 4.87794L41.3518 4.52797C41.1576 3.61543 40.7592 2.75875 40.1865 2.02223C40.6386 2.82514 40.961 3.69443 41.1418 4.59797L41.2153 4.94793L40.8654 5.02142C39.5705 5.29089 38.2546 5.55337 36.9563 5.79834L36.5748 5.87183L36.5398 5.48337C36.4527 4.42225 36.0242 3.41789 35.3185 2.62067C35.9389 3.50216 36.2747 4.55242 36.2809 5.63036V5.92433L35.9939 5.97682C34.1111 6.32678 32.2003 6.63125 30.307 6.90422L29.957 6.95322L29.8975 6.60326C29.6953 5.40751 29.0752 4.32236 28.1477 3.54108C28.9735 4.37873 29.4704 5.48552 29.5476 6.65925L29.5721 6.98472L29.2431 7.03021C27.4093 7.27869 25.5405 7.47816 23.6962 7.62515L23.3987 7.64615L23.3287 7.35918C23.1438 6.62354 22.8103 5.93355 22.3486 5.33168C21.887 4.72981 21.3071 4.22882 20.6445 3.85954C21.2311 4.22711 21.7384 4.708 22.1368 5.27407C22.5352 5.84014 22.8167 6.48 22.9647 7.1562V7.23319V7.69514L22.6393 7.71964C21.4319 7.80363 20.2875 7.86662 19.1816 7.91912C20.347 7.89462 21.5159 7.85262 22.6813 7.78613L23.0557 7.74764ZM7.33538 10.8973C7.22689 10.9988 7.26189 11.0443 7.27939 11.0653C7.3022 11.0886 7.32942 11.1071 7.35947 11.1197C7.38951 11.1323 7.42178 11.1388 7.45437 11.1388C7.48696 11.1388 7.51922 11.1323 7.54927 11.1197C7.57932 11.1071 7.60654 11.0886 7.62935 11.0653C8.10219 10.7077 8.48794 10.2477 8.75765 9.71983C9.02736 9.19192 9.17404 8.60979 9.18669 8.01711V7.91212V7.58315C9.16533 6.96681 8.99095 6.36547 8.67924 5.83334C8.31707 5.27795 7.82286 4.82103 7.24083 4.50345C6.6588 4.18586 6.00711 4.01754 5.34409 4.01353C6.74394 4.18851 7.79383 4.83244 8.42027 5.91733C8.69904 6.4024 8.85745 6.94724 8.88222 7.50616V7.62865H8.91022L8.88922 7.78613V7.88412H8.87172V7.99961C8.73606 9.12242 8.18862 10.155 7.33538 10.8973ZM15.7625 10.4319C15.7931 10.444 15.8247 10.4533 15.857 10.4599C15.8862 10.465 15.9163 10.4588 15.941 10.4424C16.5402 9.85277 16.9004 9.06258 16.9524 8.22359L16.9699 7.95761L16.9419 7.60765C16.8793 6.9667 16.6831 6.34597 16.3661 5.78542C16.049 5.22487 15.6181 4.73692 15.1011 4.35299C15.6816 4.84269 16.1232 5.47626 16.3819 6.1903C16.5476 6.64518 16.6259 7.12722 16.6129 7.61115V7.86662H16.6444L16.5429 8.29358C16.3695 9.02945 16.1074 9.74158 15.7625 10.4144V10.4319ZM32.9912 28.5285C32.8257 28.5294 32.6643 28.4767 32.5312 28.3783C32.3981 28.2799 32.3004 28.1411 32.2528 27.9825C29.2194 27.4445 26.3179 26.3276 23.7067 24.6929L23.2132 24.3884C21.5894 23.4015 19.1361 21.9037 18.8632 20.0174C18.7444 19.2476 18.9355 18.4622 19.3947 17.8332C19.8538 17.2041 20.5436 16.7827 21.3129 16.6612C21.7398 16.5962 22.1756 16.6248 22.5903 16.7452C25.04 17.3786 26.9438 19.0795 28.0777 20.3498C28.4277 18.25 29.7225 15.3733 31.6928 14.3374C32.1914 14.0692 32.7538 13.9421 33.3193 13.9699C33.8848 13.9976 34.432 14.1792 34.902 14.4949C36.3998 15.4083 37.0018 17.3401 36.6518 20.2378C36.3788 22.6876 35.3605 25.3578 33.6281 28.154C33.5635 28.2689 33.4702 28.365 33.3574 28.4331C33.2445 28.5012 33.1159 28.5388 32.9842 28.5425L32.9912 28.5285ZM32.9247 27.7375C32.9235 27.7518 32.9261 27.7661 32.9322 27.779C32.9384 27.792 32.9479 27.803 32.9597 27.811C32.976 27.8198 32.995 27.8217 33.0127 27.8165C33.0304 27.8112 33.0453 27.7992 33.0542 27.783C34.7375 25.0673 35.7244 22.5021 35.9869 20.1503C36.2774 17.5466 35.7909 15.8388 34.5485 15.0794C34.1813 14.8278 33.7519 14.6822 33.3074 14.6588C32.8628 14.6353 32.4205 14.7348 32.0288 14.9464C31.2521 15.4088 30.6073 16.0632 30.1565 16.8467C30.6525 16.1047 31.3391 15.5099 32.1443 15.1249C32.4828 14.96 32.8544 14.8743 33.2309 14.8743C33.6075 14.8743 33.9791 14.96 34.3176 15.1249C35.2205 15.6113 35.6019 16.7102 35.7664 17.5431C36.4278 21.0007 34.6115 24.4969 33.2852 27.0481L32.9247 27.7375ZM20.753 17.5886C20.3322 17.8039 19.99 18.1464 19.7752 18.5673C19.5603 18.9883 19.4836 19.4663 19.5561 19.9334C19.7801 21.4977 22.1563 22.943 23.5772 23.811L24.0776 24.1154C26.6845 25.7471 29.5894 26.845 32.6237 27.3456V27.1566C28.61 26.4258 24.841 24.7084 21.6559 22.1591C21.5474 22.0681 21.4249 21.9771 21.3059 21.8792C20.7449 21.5088 20.268 21.0248 19.9061 20.4583C19.7634 20.1563 19.6893 19.8264 19.6893 19.4924C19.6893 19.1584 19.7634 18.8285 19.9061 18.5265C20.099 18.1448 20.3886 17.8202 20.746 17.5851L20.753 17.5886ZM21.6489 18.0366C21.2149 18.0366 20.8545 18.2535 20.5255 18.852C20.4304 19.0564 20.3811 19.2792 20.3811 19.5047C20.3811 19.7301 20.4304 19.9529 20.5255 20.1573C20.848 20.6219 21.2582 21.0189 21.7329 21.3262L22.1073 21.6167C25.2107 24.1021 28.8857 25.773 32.7987 26.4777C34.1251 23.9229 35.6859 20.7908 35.091 17.6726C34.979 17.1127 34.692 16.1118 33.9956 15.7373C33.5791 15.5098 33.0507 15.5273 32.4138 15.7828C31.6193 16.0978 30.8844 17.0112 30.4085 17.7216C29.67 18.8205 29.2921 20.0698 29.1416 21.8897C29.1317 21.9765 29.1023 22.06 29.0557 22.1339C29.009 22.2079 28.9463 22.2703 28.8721 22.3166C28.7547 22.4216 28.6027 22.4797 28.4452 22.4797C28.2876 22.4797 28.1356 22.4216 28.0182 22.3166L27.9587 22.2536C26.6984 20.585 25.0189 19.2798 23.0907 18.4705L22.9612 18.418C22.5522 18.2082 22.1067 18.0787 21.6489 18.0366ZM21.7329 17.3366C22.2557 17.3913 22.765 17.537 23.2377 17.7671L23.3637 17.8231C24.2289 18.1875 25.0506 18.6476 25.8134 19.1949C24.8062 18.3867 23.6454 17.7914 22.4013 17.4451C22.1853 17.3758 21.9598 17.3404 21.7329 17.3401V17.3366Z" fill="black"/>
</svg>
