<svg width="88" height="86" viewBox="0 0 88 86" fill="none" xmlns="http://www.w3.org/2000/svg">
<g clip-path="url(#clip0_18_106)">
<path fill-rule="evenodd" clip-rule="evenodd" d="M72.77 74.42L64.66 75.28C63.79 77.44 64.01 79.01 65.51 81.28C59 84.55 51.88 84.48 44.92 85.2C35.69 84 26.38 83.09 18.35 77.81C18.2408 77.5061 18.167 77.1907 18.13 76.87C18.3252 73.8946 18.1944 70.9069 17.74 67.96C17.4922 66.1905 17.653 64.3877 18.21 62.69C18.3585 62.257 18.406 61.7958 18.3488 61.3417C18.2916 60.8876 18.1312 60.4526 17.88 60.07C17.4053 59.062 17.1855 57.9528 17.24 56.84C17.24 54.79 17.38 52.74 17.47 50.7C17.47 49.86 17.53 49.02 17.57 48.18C17.64 46.86 18.16 46.26 19.38 46.18C24.1 45.73 28.82 45.18 33.55 44.89C37.2641 44.5633 40.9966 44.4965 44.72 44.69C46.57 44.84 48.43 44.9 50.28 44.98C50.6485 44.9567 51.0136 44.8964 51.37 44.8C51.4479 44.5159 51.4949 44.2242 51.51 43.93C51.19 39.37 50.8567 34.8133 50.51 30.26C50.46 29.52 50.3 28.78 50.29 28.04C50.0949 22.2707 49.564 16.5176 48.7 10.81C48.37 8.12998 48 5.44998 47.7 2.80998C47.56 1.33998 47.92 0.989982 49.38 0.809982C53.6334 0.303324 57.918 0.106139 62.2 0.219982C66.2 0.379982 70.2 0.339982 74.2 0.419982C75.01 0.419982 75.82 0.589982 76.61 0.669982C77.28 2.40998 76.89 3.99998 76.76 5.54998C76.63 7.09998 76.35 8.49998 76.11 9.95998C75.03 16.75 74.93 23.69 74.31 30.54C73.77 36.48 73.31 42.43 72.89 48.37C72.55 52.84 72.26 57.31 71.96 61.78C71.96 62.24 71.82 62.86 72.06 63.14C73.17 64.47 72.69 65.97 72.71 67.43C72.73 68.89 72.85 70.59 72.89 72.17C72.91 72.89 72.82 73.61 72.77 74.42ZM69.88 64.08C70.0836 63.5761 70.2376 63.0537 70.34 62.52C70.8 57.0533 71.24 51.58 71.66 46.1C72.1933 39.2333 72.7133 32.36 73.22 25.48C73.28 24.64 73.33 23.8 73.39 22.96C73.71 19.06 74.01 15.15 74.39 11.25C74.6 8.93998 74.91 6.62998 75.16 4.30998C75.2599 3.86261 75.2364 3.3965 75.092 2.96146C74.9475 2.52642 74.6876 2.13878 74.34 1.83998C74.07 1.83998 73.62 1.76998 73.16 1.77998C71.6013 1.95013 70.0287 1.95013 68.47 1.77998C66.38 1.30998 64.37 1.68998 62.34 1.68998C60.86 1.68998 59.34 1.76998 57.89 1.78998C55.068 1.84267 52.2593 2.19125 49.51 2.82998C49.88 6.50998 50.24 10.02 50.59 13.53C50.94 17.04 51.34 20.38 51.59 23.81C51.84 27.24 51.91 30.89 52.34 34.4C52.77 37.91 52.29 41.4 53.13 45.08C54.67 45.26 56.13 45.38 57.6 45.62C58.8843 45.8179 60.1538 46.1018 61.4 46.47C62.0304 46.6629 62.5981 47.0202 63.0445 47.5053C63.4909 47.9904 63.8 48.5858 63.94 49.23C64.0167 49.4873 64.0367 49.7582 63.9987 50.0241C63.9608 50.2899 63.8657 50.5444 63.72 50.77C63.4193 51.0572 63.2111 51.4275 63.1221 51.8337C63.033 52.2398 63.0671 52.6633 63.22 53.05C63.67 55.15 64.08 57.25 64.47 59.35C64.65 60.35 65.08 61.35 64.29 62.28C64 62.62 63.53 62.85 63.85 63.58C65.72 64.5 67.75 64.19 69.88 64.08ZM20.09 61.08C19.86 62.16 19.75 63.08 19.47 63.97C19.0323 65.3969 18.9195 66.9038 19.14 68.38C19.4216 70.5019 19.5685 72.6395 19.58 74.78C19.5585 75.3847 19.7027 75.9839 19.9971 76.5126C20.2914 77.0414 20.7247 77.4796 21.25 77.78C22.7745 78.8644 24.4624 79.6982 26.25 80.25C28.49 80.9166 30.7333 81.5233 32.98 82.07C37.5018 83.2087 42.1588 83.7202 46.82 83.59C49.8842 83.5236 52.9422 83.2866 55.98 82.88C58.4942 82.5463 60.9289 81.7674 63.17 80.58C61.88 78.52 63.02 76.32 62.49 74.27C63.25 70.63 62.23 67.11 61.96 63.48C60.7147 63.326 59.4553 63.326 58.21 63.48C55.71 63.66 53.21 63.79 50.69 63.78C46.78 63.78 42.88 63.52 38.97 63.54C34.8835 63.5387 30.8117 63.0519 26.84 62.09C24.6594 61.3877 22.3809 61.0367 20.09 61.05V61.08ZM18.96 58.69C19.96 59.06 20.72 59.41 21.52 59.63C22.1564 59.7705 22.801 59.8707 23.45 59.93C24.0017 59.9958 24.5492 60.0926 25.09 60.22C28.2418 61.0682 31.4786 61.5612 34.74 61.69C37.53 61.79 40.33 61.92 43.12 62.14C48.5079 62.4718 53.9131 62.3983 59.29 61.92C60.6785 61.8339 62.0046 61.3125 63.08 60.43C62.8543 57.471 62.3283 54.5426 61.51 51.69C60.19 51.9 59 52.05 57.83 52.27C54.8292 52.9622 51.7396 53.1881 48.67 52.94C47.7442 52.8149 46.8058 52.8149 45.88 52.94C44.0301 53.1649 42.1599 53.1649 40.31 52.94C37.1488 52.8312 33.9968 52.5374 30.87 52.06C28.59 51.62 26.25 51.52 23.94 51.23C22.39 51.04 20.84 50.77 19.19 50.52C19.0004 50.8303 18.8588 51.1674 18.77 51.52C18.66 53.19 18.55 54.86 18.55 56.52C18.6083 57.256 18.7457 57.9835 18.96 58.69ZM20.25 48.14C20.3391 48.5394 20.5624 48.8961 20.8827 49.1509C21.2029 49.4056 21.6008 49.543 22.01 49.54C24.01 49.85 26.01 50.19 28.07 50.46C29.83 50.69 31.63 50.67 33.34 51.07C34.982 51.421 36.6638 51.5489 38.34 51.45C39.4552 51.37 40.5748 51.37 41.69 51.45C47.7285 51.8963 53.7992 51.5839 59.76 50.52C60.6362 50.3195 61.4929 50.0417 62.32 49.69C62.3428 49.3369 62.2441 48.9867 62.0404 48.6975C61.8367 48.4082 61.5401 48.1974 61.2 48.1C59.87 47.69 58.56 47.22 57.2 46.93C55.5691 46.5606 53.9155 46.3001 52.25 46.15C49.09 45.9 45.92 45.6 42.76 45.64C38.87 45.69 34.97 46 31.08 46.34C28.08 46.6 25.18 47.05 22.24 47.48C21.5587 47.6237 20.8924 47.8313 20.25 48.1V48.14ZM70.51 66.22C68.3652 65.7075 66.1427 65.6057 63.96 65.92C63.6372 68.6077 63.8825 71.3331 64.68 73.92C66.68 73.11 69.07 73.92 71.18 72.61C71.3891 70.4566 71.1612 68.2832 70.51 66.22Z" fill="black"/>
<path d="M44.91 85.38L43.24 85.16C34.7 84.07 25.86 82.94 18.29 77.97C18.2607 77.8446 18.224 77.7211 18.18 77.6C18.1037 77.4055 18.0631 77.1989 18.06 76.99C18.2569 74.0217 18.1294 71.0407 17.68 68.1C17.3939 66.2893 17.5343 64.4369 18.09 62.69C18.2367 62.2741 18.2842 61.8296 18.2286 61.3921C18.1731 60.9545 18.016 60.5361 17.77 60.17C17.2782 59.1458 17.0513 58.0146 17.11 56.88C17.11 55.43 17.17 53.96 17.25 52.54L17.34 50.73V50.04C17.34 49.43 17.39 48.82 17.42 48.21C17.49 46.82 18.06 46.21 19.34 46.06L23.41 45.66C26.72 45.32 30.14 44.97 33.52 44.77L35.41 44.69C37.41 44.56 39.5 44.42 41.55 44.42C42.69 44.42 43.73 44.42 44.73 44.55C46.38 44.68 48.06 44.75 49.73 44.82H50.38C50.5964 44.8104 50.811 44.7769 51.02 44.72L51.3 44.66C51.3 44.57 51.3 44.49 51.3 44.42C51.3453 44.2503 51.3688 44.0756 51.37 43.9C51.05 39.3 50.72 34.71 50.37 30.24C50.37 29.94 50.3 29.63 50.27 29.34C50.1998 28.8999 50.1597 28.4555 50.15 28.01C49.9905 22.8583 49.5364 17.7199 48.79 12.62L48.56 10.79C48.49 10.22 48.41 9.64 48.34 9.06C48.07 6.99 47.8 4.86 47.59 2.75C47.44 1.25 47.82 0.75 49.37 0.64C52.8337 0.252028 56.3148 0.0384255 59.8 0C60.62 0 61.44 1.8999e-07 62.22 0.0500002C64.74 0.15 67.31 0.18 69.8 0.2C71.25 0.2 72.8 0.2 74.23 0.2C74.7925 0.222627 75.3533 0.27604 75.91 0.36L76.65 0.46H76.73V0.53C77.1514 1.82052 77.2374 3.19705 76.98 4.53C76.98 4.83 76.91 5.13 76.89 5.43C76.79 6.63 76.58 7.83 76.38 9L76.23 9.85C75.5495 14.3877 75.0989 18.9568 74.88 23.54C74.73 25.81 74.57 28.16 74.36 30.46C73.89 35.62 73.5 40.88 73.12 45.97L72.94 48.29C72.63 52.49 72.35 56.76 72.07 60.89V61.69C72.0749 61.7733 72.0749 61.8567 72.07 61.94C72.07 62.33 72 62.78 72.16 62.94C72.4992 63.4155 72.738 63.9551 72.8618 64.5259C72.9855 65.0967 72.9918 65.6867 72.88 66.26C72.8615 66.5931 72.8615 66.9269 72.88 67.26C72.88 68.12 72.88 68.99 72.97 69.84C73.06 70.69 73.04 71.28 73.06 72.01C73.06 72.51 73.06 73.01 72.99 73.53C72.99 73.76 72.99 74.01 72.99 74.26V74.37L64.85 75.24C64.03 77.31 64.26 78.85 65.72 81.09L65.79 81.21L65.67 81.28C60.28 84.1 54.51 84.57 48.93 85.02C47.61 85.13 46.26 85.24 44.93 85.38H44.91ZM18.51 77.78C26.03 82.7 34.82 83.78 43.32 84.91L44.97 85.12C46.29 84.99 47.65 84.88 48.97 84.77C54.48 84.32 60.17 83.86 65.38 81.27C63.93 78.99 63.73 77.4 64.6 75.27V75.19H64.68L72.68 74.33C72.68 74.11 72.68 73.9 72.68 73.7C72.68 73.18 72.76 72.7 72.75 72.2C72.75 71.48 72.75 70.75 72.66 70.04C72.57 69.33 72.58 68.32 72.57 67.46C72.57 67.1 72.57 66.74 72.57 66.4C72.6827 65.8594 72.6822 65.3013 72.5686 64.7609C72.455 64.2205 72.2308 63.7095 71.91 63.26C71.7232 62.8821 71.6703 62.4519 71.76 62.04C71.7649 61.9601 71.7649 61.8799 71.76 61.8L71.82 61C72.09 56.86 72.37 52.59 72.69 48.39L72.86 46.07C73.24 40.99 73.64 35.72 74.11 30.56C74.32 28.26 74.47 25.91 74.62 23.65C74.8423 19.0567 75.2962 14.4775 75.98 9.93L76.13 9.08C76.33 7.92 76.53 6.72 76.63 5.53C76.63 5.23 76.69 4.92 76.73 4.62C76.9733 3.34197 76.9012 2.02388 76.52 0.78L75.92 0.69C75.3705 0.602046 74.8161 0.548608 74.26 0.53C72.79 0.53 71.26 0.53 69.83 0.47C67.35 0.47 64.77 0.47 62.25 0.33C61.47 0.33 60.66 0.33 59.84 0.33C56.365 0.365418 52.8939 0.575685 49.44 0.960001C48.02 1.11 47.75 1.43 47.88 2.79C48.09 4.9 48.37 7.03 48.63 9.1C48.7 9.68 48.78 10.25 48.85 10.83L49.08 12.66C49.8323 17.7692 50.2864 22.918 50.44 28.08C50.4502 28.5156 50.4903 28.9499 50.56 29.38C50.56 29.68 50.64 29.99 50.66 30.29C50.99 34.76 51.32 39.36 51.66 43.96C51.661 44.1594 51.634 44.358 51.58 44.55C51.58 44.64 51.58 44.75 51.51 44.86V44.95H51.42L51.07 45.02C50.8422 45.0858 50.607 45.1228 50.37 45.13H49.71C48.08 45.07 46.39 45 44.71 44.86C43.71 44.78 42.71 44.74 41.55 44.74C39.55 44.74 37.43 44.87 35.42 45L33.56 45.12C30.19 45.32 26.77 45.66 23.46 46C22.1 46.14 20.75 46.28 19.39 46.4C18.24 46.51 17.77 47.05 17.7 48.32C17.7 48.93 17.65 49.54 17.62 50.15V50.83C17.62 51.44 17.62 52.04 17.53 52.64C17.46 54.06 17.38 55.53 17.4 56.97C17.3417 58.0584 17.5548 59.1443 18.02 60.13C18.2844 60.5276 18.4527 60.9811 18.5117 61.4549C18.5707 61.9287 18.5188 62.4097 18.36 62.86C17.811 64.5388 17.6536 66.321 17.9 68.07C18.3579 71.0266 18.4887 74.0247 18.29 77.01C18.2938 77.1887 18.3312 77.3651 18.4 77.53C18.4133 77.5767 18.45 77.66 18.51 77.78ZM45.28 83.69C41.1154 83.6811 36.9676 83.1605 32.93 82.14C30.93 81.63 28.76 81.05 26.2 80.33C24.4152 79.7621 22.7287 78.9222 21.2 77.84C20.663 77.5283 20.2216 77.0756 19.9237 76.5309C19.6258 75.9862 19.4827 75.3703 19.51 74.75C19.4944 72.6163 19.3474 70.4856 19.07 68.37C18.844 66.8774 18.9568 65.3531 19.4 63.91C19.5793 63.2921 19.7229 62.6644 19.83 62.03C19.88 61.71 19.94 61.37 20.02 61.03V60.94H20.11C20.39 60.94 20.68 60.94 20.96 60.94C22.733 61.0041 24.4921 61.2794 26.2 61.76L26.89 61.92C30.76 62.8625 34.7269 63.3492 38.71 63.37H38.99C41.1 63.37 43.26 63.43 45.34 63.49C47.1 63.55 48.92 63.61 50.71 63.61H51C53.08 63.61 55.31 63.52 58.21 63.31C58.85 63.31 59.49 63.22 60.15 63.22C60.7693 63.2196 61.3878 63.2664 62 63.36H62.1V63.46C62.18 64.53 62.33 65.62 62.47 66.67C62.9538 69.1692 63.0079 71.7326 62.63 74.25C62.7944 75.0933 62.8248 75.9572 62.72 76.81C62.4911 78.0691 62.6919 79.3686 63.29 80.5L63.36 80.62L63.24 80.69C60.9804 81.8776 58.5299 82.6594 56 83C52.9552 83.4025 49.8906 83.6361 46.82 83.7C46.3 83.69 45.78 83.69 45.28 83.69ZM20.2 61.17C20.13 61.48 20.08 61.78 20.02 62.07C19.9224 62.7194 19.7787 63.361 19.59 63.99C19.1599 65.3979 19.0506 66.8843 19.27 68.34C19.5472 70.4657 19.6941 72.6064 19.71 74.75C19.6881 75.3316 19.8268 75.908 20.1108 76.416C20.3948 76.924 20.8131 77.344 21.32 77.63C22.83 78.7059 24.5006 79.5362 26.27 80.09C28.82 80.82 30.96 81.39 32.99 81.9C37.4972 83.0443 42.1418 83.5559 46.79 83.42C49.8537 83.3511 52.9114 83.1174 55.95 82.72C58.3945 82.3859 60.7627 81.6315 62.95 80.49C62.3762 79.3399 62.1869 78.0358 62.41 76.77C62.5163 75.934 62.4859 75.0863 62.32 74.26V74.2C62.7053 71.7076 62.6613 69.1676 62.19 66.69C62.05 65.69 61.91 64.62 61.83 63.57C61.2603 63.4881 60.6855 63.448 60.11 63.45C59.47 63.45 58.86 63.45 58.21 63.54C55.28 63.75 53.06 63.84 50.97 63.84H50.67C48.88 63.84 47.06 63.78 45.3 63.72C43.22 63.66 41.07 63.59 38.96 63.6H38.68C34.6767 63.5763 30.6899 63.0863 26.8 62.14L26.11 61.98C24.4218 61.5045 22.6828 61.2326 20.93 61.17C20.68 61.15 20.44 61.15 20.2 61.17ZM64.57 74.05V73.93C63.7712 71.3435 63.5225 68.6184 63.84 65.93V65.84H63.93C64.6657 65.7054 65.4121 65.6385 66.16 65.64C67.6326 65.6752 69.0987 65.846 70.54 66.15H70.61V66.22C71.2624 68.2864 71.4936 70.4627 71.29 72.62V72.69H71.24C70.0784 73.329 68.7648 73.6402 67.44 73.59C66.5119 73.5739 65.5882 73.7194 64.71 74.02L64.57 74.05ZM64.05 66.05C63.7608 68.6159 63.9886 71.2136 64.72 73.69C65.5904 73.4176 66.498 73.2826 67.41 73.29C68.6687 73.337 69.9175 73.0507 71.03 72.46C71.2174 70.3872 70.9966 68.2978 70.38 66.31C68.982 66.013 67.5589 65.8489 66.13 65.82C65.4317 65.8268 64.7355 65.897 64.05 66.03V66.05ZM67.05 64.37C65.9405 64.4092 64.8383 64.1757 63.84 63.69C63.7324 63.4785 63.7035 63.2357 63.7584 63.0049C63.8134 62.774 63.9486 62.5703 64.14 62.43L64.31 62.26C64.5454 61.9141 64.6875 61.5132 64.7226 61.0963C64.7576 60.6793 64.6844 60.2604 64.51 59.88C64.51 59.71 64.43 59.55 64.4 59.38C64.03 57.38 63.62 55.22 63.16 53.08C62.9995 52.6726 62.9642 52.2266 63.0586 51.7991C63.153 51.3715 63.3729 50.9819 63.69 50.68C63.8169 50.4707 63.8993 50.2374 63.932 49.9948C63.9647 49.7522 63.947 49.5055 63.88 49.27C63.7419 48.6479 63.443 48.073 63.013 47.6027C62.5831 47.1324 62.0372 46.7832 61.43 46.59C60.1855 46.2284 58.9197 45.9445 57.64 45.74C56.64 45.58 55.64 45.47 54.57 45.36L53.18 45.21H53.09V45.12C52.6659 43.0038 52.4715 40.848 52.51 38.69C52.5079 37.257 52.4311 35.825 52.28 34.4C52.03 32.29 51.91 30.12 51.8 28.02C51.73 26.64 51.65 25.21 51.53 23.81C51.34 21.44 51.09 19.04 50.84 16.71C50.73 15.65 50.61 14.6 50.51 13.54L49.4 2.69H49.5C52.2538 2.06287 55.066 1.72768 57.89 1.69L59.89 1.64C60.72 1.64 61.56 1.59 62.39 1.58C62.96 1.58 63.54 1.58 64.1 1.51C64.66 1.44 65.4 1.43 66.1 1.43C66.9102 1.43197 67.718 1.51912 68.51 1.69C69.0187 1.80232 69.5392 1.85268 70.06 1.84C70.58 1.84 71.12 1.84 71.64 1.77C72.16 1.7 72.64 1.7 73.17 1.7C73.49 1.7 73.81 1.7 74.06 1.7H74.32C74.6831 2.01197 74.9541 2.41712 75.1039 2.87177C75.2537 3.32641 75.2765 3.81332 75.17 4.28C75.07 5.2 74.97 6.13 74.86 7.05C74.7 8.41 74.54 9.82 74.41 11.21C74.14 14.1 73.91 17.04 73.68 19.88C73.6 20.88 73.52 21.88 73.43 22.88L73.34 24.26C73.34 24.64 73.34 25.02 73.26 25.4L72.91 30.04C72.51 35.3733 72.1067 40.7067 71.7 46.04C71.26 51.68 70.82 57.21 70.38 62.46C70.3261 62.8345 70.2253 63.2007 70.08 63.55C70.02 63.71 69.96 63.88 69.91 64.05V64.13H69.83H68.92C68.32 64.31 67.69 64.35 67.07 64.35L67.05 64.37ZM63.98 63.51C64.9407 63.9524 65.9934 64.1581 67.05 64.11C67.66 64.11 68.29 64.11 68.94 64.03L69.76 63.97L69.91 63.55C70.0464 63.2302 70.1405 62.8941 70.19 62.55C70.65 57.26 71.1 51.69 71.51 46.09C71.9233 40.7567 72.3267 35.4233 72.72 30.09L73.07 25.45C73.07 25.07 73.07 24.69 73.15 24.31L73.24 22.93C73.33 21.93 73.41 20.93 73.49 19.93C73.72 17.09 73.96 14.15 74.22 11.26C74.35 9.87 74.51 8.45 74.67 7.09C74.78 6.17 74.89 5.24 74.99 4.32C75.0878 3.90098 75.0707 3.46332 74.9405 3.05322C74.8102 2.64312 74.5717 2.27579 74.25 1.99H74.03C73.78 1.99 73.47 1.99 73.16 1.99C72.66 1.99 72.16 1.99 71.65 2.07C71.14 2.15 70.58 2.14 70.05 2.14C69.5095 2.14687 68.9699 2.09659 68.44 1.99C67.6446 1.79476 66.829 1.69406 66.01 1.69C65.36 1.69 64.7 1.69 64.07 1.76C63.44 1.83 62.92 1.83 62.35 1.83L59.85 1.89L57.85 1.94C55.0831 1.99245 52.3288 2.32753 49.63 2.94L50.7 13.53L51.07 16.69C51.32 19.02 51.57 21.42 51.77 23.79C51.88 25.2 51.96 26.63 52.03 28.01C52.15 30.1 52.26 32.27 52.52 34.37C52.6678 35.8052 52.7413 37.2472 52.74 38.69C52.7037 40.793 52.8846 42.8942 53.28 44.96L54.58 45.1C55.65 45.21 56.66 45.32 57.67 45.48C58.9598 45.6878 60.2356 45.975 61.49 46.34C62.14 46.5404 62.7251 46.9099 63.1854 47.4107C63.6458 47.9114 63.9648 48.5255 64.11 49.19C64.1912 49.4705 64.21 49.7653 64.1651 50.0538C64.1202 50.3423 64.0126 50.6175 63.85 50.86C63.5644 51.1317 63.3684 51.4839 63.288 51.8698C63.2076 52.2557 63.2467 52.6569 63.4 53.02C63.86 55.16 64.27 57.31 64.64 59.33C64.64 59.49 64.71 59.65 64.74 59.82C64.9131 60.2333 64.9765 60.6844 64.9239 61.1294C64.8713 61.5745 64.7047 61.9984 64.44 62.36L64.26 62.55C64.1048 62.6438 63.9914 62.7935 63.9431 62.9683C63.8947 63.1431 63.9151 63.3298 64 63.49L63.98 63.51ZM49.03 62.51C46.92 62.51 44.97 62.44 43.09 62.29C40.62 62.1 37.96 61.96 34.71 61.85C31.4403 61.7103 28.1966 61.2038 25.04 60.34C24.63 60.24 24.2 60.17 23.78 60.11L23.41 60.05L22.75 59.97C22.3308 59.9048 21.9165 59.8113 21.51 59.69C20.96 59.53 20.44 59.32 19.83 59.08L18.95 58.74H18.88V58.69C18.82 58.43 18.75 58.19 18.68 57.96C18.5368 57.5232 18.4527 57.0691 18.43 56.61C18.43 54.91 18.54 53.19 18.65 51.61C18.6913 51.3513 18.7831 51.1033 18.92 50.88L19.09 50.54V50.45H19.19L20.74 50.69C21.84 50.86 22.88 51.02 23.93 51.15C24.76 51.26 25.61 51.34 26.43 51.42C27.9 51.56 29.43 51.7 30.87 51.98C33.2177 52.3836 35.5896 52.6308 37.97 52.72L40.3 52.86H40.67C41.61 52.93 42.58 53.01 43.54 53.01C44.3104 53.0153 45.0798 52.9551 45.84 52.83C46.7758 52.7037 47.7242 52.7037 48.66 52.83C49.4167 52.9196 50.1781 52.963 50.94 52.96C53.2436 52.9115 55.5373 52.6436 57.79 52.16C58.6 52.01 59.41 51.89 60.27 51.77L61.47 51.58H61.59V51.69C61.71 52.2 61.83 52.69 61.95 53.2C62.6196 55.5688 63.032 58.0028 63.18 60.46V60.52C62.0867 61.4211 60.7345 61.95 59.32 62.03C56.51 62.24 52.75 62.47 49.05 62.47L49.03 62.51ZM19.03 58.6L19.85 58.92C20.45 59.15 20.97 59.36 21.51 59.51C21.9209 59.6107 22.3387 59.6809 22.76 59.72L23.43 59.8L23.8 59.86C24.234 59.9167 24.6646 59.9968 25.09 60.1C28.2267 60.9585 31.4506 61.4583 34.7 61.59C37.95 61.7 40.61 61.85 43.08 62.04C44.97 62.18 46.9 62.26 49.01 62.26C52.68 62.26 56.24 62.04 59.24 61.82C60.5791 61.7438 61.8599 61.2468 62.9 60.4C62.7494 57.9865 62.3404 55.5962 61.68 53.27C61.57 52.8 61.45 52.34 61.34 51.87L60.25 52.03C59.39 52.15 58.58 52.27 57.78 52.42C55.5142 52.9076 53.2071 53.1788 50.89 53.23C50.1182 53.228 49.3471 53.1846 48.58 53.1C47.668 52.9689 46.742 52.9689 45.83 53.1C45.053 53.2254 44.267 53.2856 43.48 53.28C42.48 53.28 41.55 53.21 40.6 53.14H40.23L37.9 52.99C35.5096 52.9004 33.1278 52.6532 30.77 52.25C29.32 51.97 27.77 51.83 26.36 51.69C25.53 51.61 24.68 51.53 23.85 51.43C22.79 51.29 21.75 51.13 20.65 50.96L19.24 50.69C19.19 50.79 19.15 50.88 19.1 50.96C18.9777 51.1477 18.896 51.3589 18.86 51.58C18.76 53.19 18.65 54.91 18.64 56.58C18.6671 57.0158 18.7511 57.4461 18.89 57.86C18.95 58.09 19.02 58.32 19.07 58.56L19.03 58.6ZM46.63 51.83C44.91 51.83 43.23 51.75 41.63 51.6C41.125 51.5494 40.6175 51.526 40.11 51.53C39.52 51.53 38.92 51.53 38.34 51.53H37.19C35.889 51.5442 34.5906 51.41 33.32 51.13C32.2427 50.9045 31.1493 50.7641 30.05 50.71C29.4 50.71 28.73 50.61 28.05 50.52C26.61 50.33 25.16 50.1 23.76 49.88L21.98 49.6C21.5474 49.5975 21.1284 49.4489 20.7908 49.1785C20.4532 48.9081 20.2169 48.5316 20.12 48.11V47.99H20.23L20.84 47.76C21.2858 47.5536 21.7563 47.4057 22.24 47.32L23.24 47.17C25.81 46.8 28.46 46.41 31.08 46.17C34.8 45.85 38.78 45.52 42.77 45.47H43.39C45.99 45.47 48.62 45.69 51.17 45.9L52.27 45.99C53.9521 46.1393 55.6224 46.3999 57.27 46.77C58.27 46.99 59.27 47.31 60.27 47.62L61.27 47.94C61.6371 48.0529 61.9544 48.2881 62.1691 48.6066C62.3838 48.925 62.483 49.3074 62.45 49.69V49.79H62.36L61.58 50.08C60.9988 50.3343 60.392 50.5254 59.77 50.65C55.4374 51.3525 51.0588 51.7335 46.67 51.79L46.63 51.83ZM40.11 51.27C40.6242 51.2658 41.1383 51.2892 41.65 51.34C43.25 51.5 44.92 51.58 46.65 51.58C51.0263 51.5135 55.3916 51.1225 59.71 50.41C60.3312 50.2853 60.9355 50.0873 61.51 49.82L62.21 49.56C62.2189 49.2507 62.1259 48.947 61.9452 48.6958C61.7644 48.4446 61.5061 48.2598 61.21 48.17L60.21 47.85C59.21 47.54 58.21 47.22 57.21 47C55.5819 46.6357 53.9317 46.3785 52.27 46.23L51.17 46.14C48.39 45.91 45.51 45.69 42.77 45.69C38.77 45.69 34.77 46.07 31.09 46.39C28.48 46.62 25.83 47 23.27 47.39L22.27 47.53C21.8112 47.6201 21.3647 47.7645 20.94 47.96L20.43 48.16C20.5353 48.5075 20.7497 48.8119 21.0415 49.028C21.3332 49.2441 21.6869 49.3606 22.05 49.36L23.81 49.69C25.21 49.91 26.66 50.14 28.09 50.33C28.74 50.42 29.41 50.47 30.09 50.52C31.2027 50.5783 32.3093 50.722 33.4 50.95C34.6507 51.2266 35.9292 51.3575 37.21 51.34H38.35C38.95 51.25 39.51 51.23 40.15 51.23L40.11 51.27Z" fill="black"/>
<path fill-rule="evenodd" clip-rule="evenodd" d="M8.99999 69.03C8.94999 69.1 8.90999 69.22 8.83999 69.25C6.50999 70.34 4.18999 71.44 1.83999 72.47C1.55999 72.59 1.08999 72.32 0.289993 72.14C0.915083 71.5778 1.58385 71.0662 2.28999 70.61C4.03999 69.78 5.82999 69.03 7.60999 68.26C8.33999 67.96 8.40999 68 8.99999 69.03Z" fill="black"/>
<path d="M1.67 72.63C1.44002 72.6098 1.21426 72.5559 1 72.47C0.79 72.4 0.55 72.33 0.27 72.26L0 72.2L0.22 72.03C0.53 71.8 0.79 71.58 1.03 71.38C1.40921 71.0368 1.829 70.7412 2.28 70.5C3.69 69.82 5.15 69.19 6.57 68.59L7.57 68.14C7.75021 68.0455 7.94734 67.9878 8.15 67.97C8.49 67.97 8.67 68.26 9.08 68.97V69.04V69.11V69.17C9.04294 69.2542 8.97985 69.3243 8.9 69.37L7.75 69.91C5.85 70.81 3.87 71.73 1.91 72.59C1.8339 72.6207 1.75196 72.6344 1.67 72.63ZM0.58 72.08L1.08 72.23C1.41 72.33 1.66 72.41 1.79 72.35C3.79 71.49 5.73 70.57 7.63 69.67L8.78 69.13C8.80789 69.1061 8.82865 69.0749 8.84 69.04C8.5 68.45 8.35 68.24 8.17 68.24C8.00613 68.2637 7.84731 68.3144 7.7 68.39L6.7 68.84C5.29 69.45 3.83 70.07 2.42 70.75C1.99048 70.9842 1.5909 71.2696 1.23 71.6L0.58 72.08Z" fill="black"/>
<path fill-rule="evenodd" clip-rule="evenodd" d="M0.729996 64.4699L8.05 64.3999C8.23609 64.3845 8.42213 64.4302 8.58 64.5299C8.84072 64.7623 9.08467 65.013 9.31 65.2799C9.06 65.4899 8.79 65.9199 8.56 65.8899C6.71481 65.6949 4.85193 65.7454 3.02 66.0399C2.09 66.1899 1.23 65.8199 0.729996 64.4699Z" fill="black"/>
<path d="M2.64999 66.2C1.99999 66.2 1.11999 65.91 0.649994 64.51L0.509995 64.34H2.44999H8.01999C8.23526 64.3261 8.44924 64.3822 8.62999 64.5C8.82547 64.6672 9.00924 64.8476 9.17999 65.04C9.24 65.12 9.30999 65.19 9.36999 65.26L9.45999 65.36L9.35999 65.44C9.2784 65.5151 9.20158 65.5952 9.12999 65.68C8.93999 65.89 8.74999 66.09 8.54999 66.09C6.71499 65.8906 4.86143 65.941 3.03999 66.24L2.64999 66.2ZM0.909995 64.59C1.03224 65.0308 1.31352 65.4108 1.69951 65.6564C2.08551 65.9021 2.54883 65.9959 2.99999 65.92C4.84499 65.6228 6.721 65.569 8.57999 65.76C8.66999 65.76 8.84999 65.58 8.96999 65.44L9.12999 65.27L9.01999 65.15C8.86197 64.962 8.68799 64.788 8.49999 64.63C8.3666 64.5534 8.21336 64.5186 8.05999 64.53L2.50999 64.58L0.909995 64.59Z" fill="black"/>
<path fill-rule="evenodd" clip-rule="evenodd" d="M78.95 68.76C79.44 68.7 79.95 68.65 80.5 68.57L85.5 67.9C86.18 67.81 86.31 67.9 86.88 68.97C84.6317 69.5331 82.3272 69.8417 80.01 69.89C79.41 69.88 78.84 69.74 78.95 68.76Z" fill="black"/>
<path d="M80.35 70.03H79.96C79.7907 70.0404 79.6211 70.0166 79.4613 69.9599C79.3015 69.9032 79.1548 69.8148 79.03 69.7C78.9308 69.5669 78.8609 69.4144 78.8247 69.2524C78.7885 69.0905 78.7869 68.9227 78.82 68.76V68.69L79.39 68.62L80.51 68.45L85.51 67.78H85.85C86.36 67.78 86.57 68.08 87.02 68.94L87.1 69.09H86.93L86.05 69.26C84.1817 69.713 82.2715 69.9711 80.35 70.03ZM79.07 68.88C79.0338 69.108 79.0876 69.341 79.22 69.53C79.323 69.6169 79.4426 69.6821 79.5715 69.7216C79.7004 69.7612 79.8359 69.7742 79.97 69.76C81.992 69.7483 84.0057 69.5 85.97 69.02L86.68 68.88C86.29 68.14 86.14 68 85.82 68H85.52L80.51 68.69L79.43 68.82L79.07 68.88Z" fill="black"/>
<path fill-rule="evenodd" clip-rule="evenodd" d="M1.50999 57.09C2.21999 56.81 2.41999 56.65 2.50999 56.7C4.55884 57.4794 6.69997 57.9903 8.87999 58.22C9.01208 58.2564 9.13527 58.3196 9.24192 58.4056C9.34858 58.4916 9.43642 58.5986 9.49999 58.72C9.58533 58.9696 9.58533 59.2404 9.49999 59.49C9.45104 59.5668 9.38279 59.6294 9.30207 59.6715C9.22134 59.7136 9.13097 59.7338 9.03999 59.73C6.66999 59.08 4.11999 58.69 1.50999 57.09Z" fill="black"/>
<path d="M9.15 59.8699H9.07C8.57 59.7299 8.07 59.6099 7.56 59.4899C5.42595 59.0826 3.37886 58.3078 1.51 57.1999L1.3 57.0699L1.53 56.9699C1.81 56.8599 2.01 56.7699 2.16 56.6999C2.31 56.6299 2.54 56.5399 2.66 56.5699C4.69823 57.3502 6.82956 57.8611 9 58.0899C9.15603 58.1259 9.30187 58.1968 9.42657 58.2973C9.55127 58.3977 9.65159 58.5251 9.72 58.6699C9.82172 58.9475 9.82172 59.2522 9.72 59.5299C9.66349 59.6319 9.58097 59.717 9.48085 59.7768C9.38073 59.8365 9.26658 59.8686 9.15 59.8699ZM1.81 57.1199C3.61963 58.1332 5.58185 58.8458 7.62 59.2299C8.13 59.3499 8.62 59.4699 9.14 59.6099C9.25149 59.5962 9.35437 59.5429 9.43 59.4599C9.49982 59.2386 9.49982 59.0012 9.43 58.7799C9.37838 58.6775 9.30659 58.5867 9.21895 58.5128C9.1313 58.4389 9.02962 58.3835 8.92 58.3499C6.72683 58.1154 4.57268 57.6012 2.51 56.8199C2.401 56.8433 2.29638 56.8838 2.2 56.9399L1.81 57.1199Z" fill="black"/>
<path fill-rule="evenodd" clip-rule="evenodd" d="M86.57 77.6901C86.33 77.9401 86.23 78.1301 86.08 78.1901C85.9059 78.2553 85.7141 78.2553 85.54 78.1901C83.8646 77.4096 82.0869 76.8709 80.26 76.5901C79.987 76.5365 79.7403 76.392 79.56 76.1801C79.4351 75.9549 79.3893 75.6944 79.43 75.4401C79.43 75.3201 79.69 75.1901 79.85 75.1401C80.0259 75.0855 80.2142 75.0855 80.39 75.1401C82.23 75.7401 84.07 76.3301 85.89 76.9801C86.17 77.0601 86.35 77.4301 86.57 77.6901Z" fill="black"/>
<path d="M85.82 78.3299C85.7028 78.3328 85.5865 78.3088 85.48 78.2599C83.8182 77.4866 82.0532 76.9578 80.24 76.6899C79.9351 76.6302 79.6598 76.4679 79.46 76.2299C79.3095 75.9812 79.2527 75.6868 79.3 75.3999C79.3 75.1699 79.69 75.0199 79.81 74.9899C80.0114 74.9243 80.2285 74.9243 80.43 74.9899L81.01 75.1799C82.63 75.7099 84.3 76.2499 85.94 76.8299C86.1598 76.944 86.3433 77.1172 86.47 77.3299L86.66 77.5699L86.74 77.6499L86.66 77.7399L86.46 77.9699C86.374 78.0935 86.2612 78.1961 86.13 78.2699C86.03 78.3045 85.9256 78.3247 85.82 78.3299ZM80.07 75.1999H79.88C79.7568 75.2356 79.646 75.3048 79.56 75.3999C79.5214 75.6185 79.5566 75.8436 79.66 76.0399C79.8202 76.2264 80.0386 76.3533 80.28 76.3999C82.1198 76.6855 83.9106 77.2274 85.6 78.0099C85.7389 78.0604 85.8911 78.0604 86.03 78.0099C86.125 77.9507 86.2068 77.8724 86.27 77.7799C86.3075 77.7251 86.3511 77.6748 86.4 77.6299C86.3512 77.5777 86.3076 77.5207 86.27 77.4599C86.1645 77.2919 86.0205 77.1513 85.85 77.0499C84.22 76.4699 82.55 75.9299 80.93 75.3999L80.35 75.2099C80.2577 75.192 80.1633 75.1886 80.07 75.1999Z" fill="black"/>
<path fill-rule="evenodd" clip-rule="evenodd" d="M86.45 58.7499C84.72 59.8099 83.06 61.1699 80.99 61.8099C80.79 61.8699 80.5 61.6699 80.29 61.5999C80.13 61.0399 80.53 60.8899 80.82 60.6999C82.1533 59.8399 83.4867 58.9899 84.82 58.1499C85.0483 57.9916 85.3072 57.8826 85.58 57.8299C86.12 57.7499 86.45 57.9999 86.45 58.7499Z" fill="black"/>
<path d="M80.9 61.9499C80.7379 61.9323 80.5813 61.8812 80.44 61.7999L80.25 61.6899H80.18V61.6299C80.1126 61.4336 80.1252 61.2187 80.215 61.0315C80.3048 60.8444 80.4647 60.7001 80.66 60.6299C80.7002 60.6126 80.7373 60.589 80.77 60.5599C82.02 59.7499 83.33 58.9099 84.77 58.0099C84.9924 57.8541 85.2442 57.7453 85.51 57.6899H85.71C86.09 57.6899 86.54 57.8699 86.54 58.7499V58.8199H86.48C86.03 59.0899 85.57 59.3999 85.13 59.6899C83.8672 60.6253 82.4718 61.3668 80.99 61.8899L80.9 61.9499ZM80.4 61.4999L80.55 61.5699C80.69 61.6399 80.87 61.7199 80.95 61.6799C82.4095 61.1661 83.7846 60.4382 85.03 59.5199L86.32 58.6899C86.32 58.0399 86.01 57.9499 85.75 57.9499H85.59C85.3347 57.9926 85.0922 58.0917 84.88 58.2399C83.44 59.1499 82.14 59.9799 80.88 60.7999L80.76 60.8699C80.51 61.0299 80.32 61.1499 80.4 61.4999Z" fill="black"/>
<path fill-rule="evenodd" clip-rule="evenodd" d="M59.2 32.8499C58.2 32.7399 57.73 32.7299 57.28 32.6399C56.9803 32.6002 56.695 32.4877 56.4489 32.3122C56.2028 32.1367 56.0034 31.9036 55.8683 31.6333C55.7331 31.3629 55.6662 31.0635 55.6735 30.7614C55.6808 30.4592 55.762 30.1634 55.91 29.8999C56.91 28.2399 57.91 26.5299 59.72 25.5899C60.95 24.9599 62.15 24.2499 63.4 23.6399C64.6572 23.0738 66.0212 22.7839 67.4 22.7899C67.5363 22.8008 67.6688 22.8395 67.7896 22.9036C67.9103 22.9678 68.0166 23.056 68.1018 23.1628C68.1871 23.2697 68.2496 23.3929 68.2854 23.5248C68.3212 23.6567 68.3296 23.7946 68.31 23.9299C68.1003 25.7283 67.418 27.4391 66.3325 28.8883C65.247 30.3374 63.797 31.4731 62.13 32.1799C61.1853 32.5251 60.2009 32.7502 59.2 32.8499ZM63.98 25.8499C62.6247 25.968 61.3308 26.4687 60.2491 27.2937C59.1674 28.1187 58.3423 29.2341 57.87 30.5099L63.97 25.7999V25.6899L63.98 25.8499ZM65.36 26.4799C64.36 27.2199 63.44 27.8099 62.6 28.4799C61.76 29.1499 61.07 29.8399 60.32 30.4799C60.25 30.5399 60.16 30.6299 60.17 30.6999C60.18 30.7699 60.29 30.8299 60.36 30.8999C63.26 29.8099 64.51 28.6899 65.36 26.4999V26.4799Z" fill="black"/>
<path d="M59.21 32.98L58.31 32.9C57.87 32.9 57.57 32.83 57.31 32.78C56.9748 32.7213 56.6588 32.5824 56.3889 32.3752C56.119 32.168 55.9033 31.8986 55.76 31.59C55.6324 31.314 55.5748 31.0109 55.5923 30.7075C55.6097 30.404 55.7016 30.1095 55.86 29.85L55.94 29.72C56.94 28.1 57.89 26.42 59.72 25.49C60.25 25.22 60.78 24.92 61.3 24.64C61.98 24.27 62.69 23.88 63.4 23.54C64.6861 22.9522 66.086 22.6551 67.5 22.67C67.6444 22.67 67.7872 22.7012 67.9184 22.7617C68.0496 22.8221 68.1661 22.9102 68.26 23.02C68.3707 23.1475 68.4523 23.2978 68.4989 23.4601C68.5455 23.6225 68.5561 23.7931 68.53 23.96C68.323 25.78 67.6349 27.512 66.5364 28.9778C65.4379 30.4437 63.9687 31.5904 62.28 32.3C61.5353 32.615 60.7456 32.8107 59.94 32.88C59.7218 32.9023 59.5048 32.9357 59.29 32.98H59.21ZM67.45 22.92C66.0713 22.9048 64.7061 23.1915 63.45 23.76C62.75 24.1 62.04 24.49 61.36 24.86L59.77 25.69C58.01 26.58 57.04 28.23 56.1 29.83L56.02 29.95C55.8833 30.1753 55.8036 30.4307 55.7879 30.6938C55.7722 30.957 55.821 31.2199 55.93 31.46C56.0647 31.7219 56.2587 31.9487 56.4965 32.1223C56.7344 32.2959 57.0095 32.4115 57.3 32.46C57.59 32.51 57.88 32.54 58.3 32.58L59.18 32.66C59.36 32.66 59.58 32.59 59.83 32.56C60.6075 32.49 61.3697 32.3012 62.09 32C63.7402 31.309 65.1764 30.1905 66.2504 28.7597C67.3243 27.3288 67.9974 25.6375 68.2 23.86C68.2205 23.7288 68.2123 23.5947 68.176 23.467C68.1398 23.3392 68.0763 23.2209 67.99 23.12C67.9182 23.0518 67.8334 22.9989 67.7405 22.9645C67.6477 22.9301 67.5489 22.9149 67.45 22.92ZM60.33 31.12L60.27 31.06H60.21C60.1294 31.0087 60.0693 30.9309 60.04 30.84C60.0455 30.773 60.0653 30.708 60.0981 30.6494C60.1309 30.5907 60.1759 30.5398 60.23 30.5L60.84 29.94C61.38 29.44 61.94 28.94 62.52 28.45C63.1 27.96 63.73 27.55 64.38 27.09L65.29 26.45L65.63 26.2L65.48 26.6C64.66 28.81 63.37 29.95 60.4 31.14L60.33 31.12ZM60.33 30.77H60.4C63.06 29.7 64.31 28.67 65.1 26.77L64.55 27.16C63.9 27.62 63.28 28.05 62.7 28.51C62.12 28.97 61.57 29.51 61.03 29.99L60.42 30.55C60.35 30.61 60.32 30.66 60.32 30.68L60.33 30.77ZM57.51 30.94L57.73 30.47C58.1991 29.2092 59.0079 28.1029 60.0669 27.2734C61.1258 26.4439 62.3936 25.9235 63.73 25.77V25.69H63.99V25.96H63.8L57.51 30.94ZM63.33 26.12C62.206 26.3008 61.1458 26.7621 60.2474 27.4612C59.3489 28.1604 58.6413 29.0748 58.19 30.12L63.33 26.12Z" fill="black"/>
<path fill-rule="evenodd" clip-rule="evenodd" d="M50.41 78.83C48.34 78.17 46.49 77.54 44.62 77.01C44.26 76.9209 43.9319 76.7334 43.6723 76.4685C43.4127 76.2036 43.2318 75.8717 43.15 75.51C42.77 74.09 42.42 72.66 42.03 71.13C42.91 70.13 43.8 69.24 44.65 68.27C45.71 67.05 47.42 67.35 48.65 66.5C49.5443 66.705 50.4258 66.9621 51.29 67.27C52.29 67.69 53.29 68.27 54.37 68.84C54.57 69.54 54.86 70.32 55.01 71.13C55.37 73.07 55.12 74.77 53.31 76.04C52.2699 76.8906 51.3001 77.8236 50.41 78.83ZM49.51 73.42C49.28 74.28 49.04 74.98 48.91 75.7C48.9122 75.8309 48.9461 75.9593 49.0088 76.0743C49.0715 76.1892 49.1611 76.2873 49.27 76.36C49.3897 76.4191 49.5215 76.4498 49.655 76.4498C49.7885 76.4498 49.9203 76.4191 50.04 76.36C50.64 75.98 51.35 75.64 51.39 74.63L49.51 73.42ZM44.4 72.85C44.8274 72.8556 45.2517 72.7762 45.6482 72.6166C46.0448 72.4569 46.4057 72.2202 46.71 71.92C46.4327 71.5621 46.0824 71.2673 45.6824 71.0552C45.2824 70.8431 44.8418 70.7186 44.39 70.69C44.2398 70.8286 44.1209 70.9977 44.0411 71.1858C43.9614 71.374 43.9225 71.577 43.9273 71.7813C43.932 71.9856 43.9802 72.1866 44.0686 72.3708C44.157 72.5551 44.2836 72.7185 44.44 72.85H44.4ZM53.4 73.85C53.18 72.61 53.08 71.96 52.92 71.07L50.51 72.4L53.4 73.85ZM47.21 75.85C47.39 75.07 47.52 74.51 47.75 73.49C46.67 74.12 45.65 73.84 45.13 75.05L47.21 75.85ZM49.8 68.38C49.7 69.17 49.64 69.76 49.53 70.7L51.53 69.49L49.8 68.38ZM47.91 70.92C47.91 70.17 47.83 69.75 47.79 69.21H45.5L47.91 70.92Z" fill="black"/>
<path d="M50.44 78.98H50.37L48.6 78.41C47.22 77.96 45.91 77.54 44.6 77.17C44.2165 77.079 43.8666 76.8814 43.5905 76.6001C43.3145 76.3188 43.1236 75.9651 43.04 75.58C42.76 74.58 42.51 73.58 42.24 72.47C42.13 72.05 42.03 71.63 41.92 71.2V71.13L42.73 70.25C43.33 69.61 43.94 68.94 44.53 68.25C45.1554 67.6361 45.9619 67.2398 46.83 67.12C47.4372 67.0064 48.0195 66.7863 48.55 66.47H48.62L49.42 66.68C50.0504 66.8178 50.669 67.005 51.27 67.24C51.9833 67.5373 52.6809 67.8711 53.36 68.24L54.36 68.78H54.41L54.62 69.46C54.7949 69.9953 54.9418 70.5394 55.06 71.09C55.49 73.41 54.95 74.97 53.31 76.09C52.6026 76.6321 51.9496 77.2416 51.36 77.91C51.06 78.22 50.75 78.55 50.43 78.91L50.44 78.98ZM42.17 71.17C42.28 71.58 42.38 71.98 42.48 72.38C42.75 73.45 43 74.46 43.28 75.48C43.3478 75.8238 43.5145 76.1404 43.7596 76.3909C44.0048 76.6414 44.3177 76.8148 44.66 76.89C45.98 77.27 47.29 77.69 48.66 78.14L50.35 78.69C50.66 78.38 50.95 78.08 51.23 77.78C51.831 77.0959 52.5012 76.4759 53.23 75.93C54.78 74.84 55.29 73.37 54.88 71.16C54.7605 70.6162 54.6137 70.0789 54.44 69.55C54.37 69.34 54.31 69.13 54.25 68.93L53.25 68.42C52.5777 68.0512 51.8868 67.7174 51.18 67.42C50.5906 67.1963 49.9856 67.0158 49.37 66.88L48.61 66.68C48.0683 66.9976 47.4765 67.2207 46.86 67.34C46.0485 67.4334 45.2882 67.7838 44.69 68.34C44.1 69.02 43.48 69.69 42.88 70.34L42.17 71.17ZM49.72 76.59C49.5519 76.5956 49.3856 76.554 49.24 76.47C49.1096 76.3821 49.0036 76.2627 48.9319 76.1228C48.8602 75.9829 48.8252 75.8271 48.83 75.67C48.9339 75.1396 49.0675 74.6154 49.23 74.1C49.29 73.87 49.36 73.64 49.43 73.39V73.22L51.52 74.58V74.69C51.4915 75.0682 51.3586 75.4311 51.1362 75.7382C50.9137 76.0454 50.6104 76.2849 50.26 76.43L50.1 76.53C49.9797 76.5791 49.8496 76.5996 49.72 76.59ZM49.63 73.59C49.57 73.77 49.52 73.95 49.47 74.13C49.31 74.69 49.17 75.13 49.08 75.68C49.0868 75.7866 49.1173 75.8904 49.1691 75.9838C49.221 76.0772 49.2931 76.1579 49.38 76.22C49.4791 76.2644 49.5864 76.2874 49.695 76.2874C49.8036 76.2874 49.9109 76.2644 50.01 76.22L50.17 76.12C50.72 75.78 51.24 75.47 51.3 74.67L49.63 73.59ZM47.29 76.01L44.95 75.1L45.01 74.98C45.1471 74.6585 45.366 74.3785 45.645 74.1679C45.9239 73.9574 46.2532 73.8236 46.6 73.78C46.9733 73.6866 47.3329 73.5454 47.67 73.36L47.93 73.21L47.86 73.5C47.64 74.5 47.51 75.08 47.33 75.86L47.29 76.01ZM45.29 75.01L47.1 75.71C47.25 75.07 47.36 74.56 47.54 73.71C47.2577 73.8424 46.9629 73.9463 46.66 74.02C46.3719 74.0639 46.0984 74.1757 45.8619 74.3461C45.6255 74.5165 45.4329 74.7406 45.3 75L45.29 75.01ZM53.55 74.13L50.26 72.41L53 70.92L53.55 74.13ZM50.81 72.41L53.22 73.69L52.82 71.34L50.81 72.41ZM44.38 73C44.2132 72.857 44.0783 72.6806 43.9839 72.4823C43.8895 72.2839 43.8379 72.0679 43.8322 71.8483C43.8265 71.6287 43.867 71.4104 43.9511 71.2074C44.0351 71.0044 44.1608 70.8213 44.32 70.67V70.61H44.39C44.8654 70.6392 45.3293 70.7684 45.7514 70.9889C46.1735 71.2095 46.5445 71.5165 46.84 71.89L46.91 72L46.81 72.07C46.5017 72.3864 46.1331 72.6379 45.7261 72.8096C45.3191 72.9814 44.8818 73.0699 44.44 73.07L44.38 73ZM44.38 70.84C44.2656 70.9693 44.1782 71.1201 44.1227 71.2836C44.0673 71.4471 44.045 71.62 44.0571 71.7922C44.0692 71.9644 44.1155 72.1325 44.1932 72.2867C44.271 72.4408 44.3787 72.5779 44.51 72.69C45.2831 72.6949 46.0282 72.4011 46.59 71.87C46.3219 71.5586 45.9928 71.3057 45.623 71.1268C45.2531 70.9479 44.8505 70.8469 44.44 70.83L44.38 70.84ZM47.99 71.21L44.99 69.15H47.8L47.99 71.21ZM45.83 69.39L47.76 70.69L47.66 69.37L45.83 69.39ZM49.3 70.97L49.62 68.2L51.72 69.52L49.3 70.97ZM49.83 68.63L49.61 70.49L51.23 69.49L49.83 68.63Z" fill="black"/>
</g>
<defs>
<clipPath id="clip0_18_106">
<rect width="87.02" height="85.38" fill="white"/>
</clipPath>
</defs>
</svg>
