<svg width="51" height="61" viewBox="0 0 51 61" fill="none" xmlns="http://www.w3.org/2000/svg">
<g clip-path="url(#clip0_39_695)">
<path fill-rule="evenodd" clip-rule="evenodd" d="M21.38 0C17.58 7.54 22.38 17.09 25.29 22.47C28.55 18.91 25.79 9.39 27.87 6.8C31.45 11.3 27.55 19.4 27.04 23.72C30.1257 21.7759 32.3374 18.7111 33.21 15.17C33.89 12.41 32.21 7.74 36.21 7.4C35.59 14.99 33.53 19.19 29.55 23.68C37.94 21.73 43.04 13.46 44.68 5.55C55.04 13.24 49.47 30.73 40.04 33.02C43.76 44.8 37.04 53.37 32.87 57.73C31.23 58.51 29.56 61.31 27.66 60.63C30.27 54.32 26.81 48.11 23.22 44.73C22.31 45.48 22.61 45.25 20.93 45.42C20.67 45.56 19.73 46.15 16.87 42.98C10.96 44.83 4.36 46.98 1.03 51.38C-2.04 45.26 2.4 35.95 5.84 32.15C7.72 30.07 10.41 28.8 12.5 27.71C4.73 20.16 13.2 2.93 21.38 0ZM15.09 28.11C11.0098 29.276 7.47281 31.846 5.10334 35.3664C2.73388 38.8867 1.68433 43.131 2.14 47.35C6.25 44.67 12.04 43.73 16.94 41.8C16.36 34.8 21.56 28.48 24.33 24.8C20.12 19.17 16.52 11.88 18.42 2.97C11.65 7.38 8.57 21.65 15.09 28.11ZM30.25 57.73C35.77 52.28 41.89 43.09 37.65 32.15C46.91 30.83 51.38 15.78 45.04 7.73C44.37 11.838 42.6099 15.691 39.9433 18.8869C37.2768 22.0829 33.8015 24.5048 29.88 25.9C29.3 32.83 26.88 37.9 24.33 42.9C29.37 46.14 30.6 51.96 30.25 57.73ZM23.25 28.45C24.36 29.31 25.25 30.37 27.32 30.3C27.952 28.7104 28.0811 26.9653 27.69 25.3C27.32 25.3 26.21 24.78 25.83 24.78C24.78 26.27 24.49 26.84 23.23 28.48L23.25 28.45ZM26.57 33.26C26.27 32.26 27.1 32.26 26.94 31.41C25.0734 31.1477 23.2236 30.7771 21.4 30.3C21.04 32.17 24.4 32.79 26.55 33.29L26.57 33.26ZM25.04 37.36C25.4809 36.5097 25.8651 35.6311 26.19 34.73C23.81 35.13 21.38 31.95 19.53 34.73C21.4146 35.5024 23.2542 36.3805 25.04 37.36ZM18.76 39.58C21.1 39.21 21.33 40.95 23.2 41.06C24.03 40.2646 24.5539 39.2027 24.68 38.06C22.84 37.79 21.27 36.82 19.04 36.96C19.04 37.62 18.79 38.96 18.79 39.58H18.76ZM22.82 42.17C21.57 42.07 20.35 41.02 18.82 41.24C18.81 44.19 22.69 44.09 22.85 42.17H22.82Z" fill="black"/>
<path fill-rule="evenodd" clip-rule="evenodd" d="M15.46 11.47C15.89 11.41 16.12 11.55 16.2 11.84C15.79 14.04 14.68 15.58 15.09 18.84C15.54 22.49 18.09 24.29 19.9 26.6C12.73 28.48 13.13 16.03 15.46 11.47Z" fill="black"/>
<path fill-rule="evenodd" clip-rule="evenodd" d="M45.79 16.28C47.95 16.39 46 18.28 45.42 18.87C44.27 18.16 46.04 17.26 45.79 16.28Z" fill="black"/>
<path fill-rule="evenodd" clip-rule="evenodd" d="M44.31 20.73C44.74 20.67 44.97 20.81 45.05 21.1C44.15 26.55 38.4 30.88 32.84 29.23C34.36 26.15 39.14 27.17 41.72 25.17C43.0031 23.9784 43.9044 22.4334 44.31 20.73Z" fill="black"/>
<path fill-rule="evenodd" clip-rule="evenodd" d="M31.73 31.8101C36.98 33.1001 39.29 47.2601 31.73 47.7201C29.82 46.4901 27.27 44.1101 28.4 41.0601C30.9 41.7701 31 44.8801 33.21 45.8701C38.1 42.2101 31.26 35.6301 31.73 31.8101Z" fill="black"/>
<path fill-rule="evenodd" clip-rule="evenodd" d="M14.35 32.1799C14.78 32.2399 14.66 32.8599 14.72 33.2899C13.0708 33.7837 11.5517 34.6372 10.272 35.7889C8.99243 36.9405 7.9842 38.3617 7.32 39.9499C9.22 40.9499 11.8 39.8399 13.98 39.9499C12.61 41.7099 8.56 42.5999 5.84 41.7999C5.62 36.9499 10.53 34.2099 14.35 32.1799Z" fill="black"/>
</g>
<defs>
<clipPath id="clip0_39_695">
<rect width="50.24" height="60.76" fill="white"/>
</clipPath>
</defs>
</svg>
