<svg width="51" height="64" viewBox="0 0 51 64" fill="none" xmlns="http://www.w3.org/2000/svg">
<path d="M12.5129 39.7468C11.6055 39.4512 10.8001 38.9038 10.19 38.1679C6.9418 34.9546 4.44401 31.0589 2.87644 26.761C0.910018 22.0041 0.474528 16.7495 1.63086 11.732C2.47247 8.43069 3.70122 5.31513 6.45328 3.01011C9.92913 0.0971852 15.1471 1.37212 17.6046 4.04019C19.8854 6.51407 20.929 9.68874 22.3008 12.6777C22.4775 13.066 22.629 13.4629 22.9152 14.1299C23.6642 12.7114 24.2112 11.4872 24.9266 10.3642C27.1485 6.89402 29.4797 3.46605 33.3427 1.56631C39.234 -1.35506 44.393 -0.189885 48.2392 5.06183C49.7919 6.92061 50.7249 9.22083 50.9071 11.6391C51.269 15.4639 50.5284 19.77 48.1382 22.7505C45.2683 26.2967 33.3006 39.7721 30.2035 42.9806C26.5675 46.8128 23.7394 51.3414 21.8884 56.2956C21.2092 58.2039 20.4311 60.0752 19.5571 61.9019C19.3033 62.407 18.9478 62.8538 18.5133 63.2141C18.0787 63.5745 17.5745 63.8407 17.0323 63.9959C16.9481 62.9169 17.0914 61.8323 17.4531 60.8128C18.5424 57.266 19.9333 53.8198 21.6107 50.512C23.8073 45.7668 27.2999 41.9167 30.9609 38.2186C34.1001 35.0777 43.2905 24.0592 45.0831 22.0328C46.5074 20.4464 47.4905 18.512 47.9337 16.4238C48.3769 14.3355 48.2646 12.1671 47.608 10.1362C46.7664 7.66236 45.0242 4.79164 42.7098 3.71091C38.7037 1.85339 36.221 2.35998 33.1996 4.86763C29.0501 8.1304 26.1202 12.7031 24.8845 17.8449C24.6938 19.2639 24.6628 20.6998 24.7919 22.1257C24.7919 22.97 24.9434 23.8143 23.8409 24.0339C23.6053 24.0583 23.3672 24.0357 23.1403 23.9673C22.9135 23.8989 22.7024 23.786 22.5193 23.6353C22.3362 23.4846 22.1846 23.2989 22.0735 23.0891C21.9623 22.8792 21.8937 22.6494 21.8716 22.4128C21.8668 22.3905 21.8668 22.3675 21.8716 22.3452C21.293 17.3581 19.8098 12.5192 17.4952 8.06763C17.0691 7.27227 16.597 6.50262 16.0813 5.76262C13.6827 2.19956 9.6514 2.87502 7.30331 5.76262C5.22692 8.45812 3.99389 11.7108 3.76013 15.1093C3.07001 21.8133 5.09829 27.7742 8.80979 33.2286C10.0217 35.027 12.395 38.5056 12.5129 39.7468Z" fill="black"/>
</svg>
