<svg width="64" height="53" viewBox="0 0 64 53" fill="none" xmlns="http://www.w3.org/2000/svg">
<g clip-path="url(#clip0_38_657)">
<path d="M59.4267 39.9463L59.2797 40.0198H59.2061V40.0933H59.2797C59.2797 40.0933 59.4267 39.9463 59.5738 40.2404C59.6237 40.3153 59.6562 40.4004 59.6689 40.4895C59.6817 40.5785 59.6743 40.6693 59.6474 40.7552C59.6474 40.9758 59.5738 41.27 59.5738 41.5641C59.5003 42.226 59.5003 42.9614 59.4267 43.9174C59.3914 44.9519 59.2932 45.9834 59.1326 47.006C59.0715 47.6078 58.8904 48.1912 58.5998 48.7217C58.3093 49.2522 57.9153 49.7191 57.4412 50.0946C56.1662 50.8131 54.7099 51.1452 53.2495 51.0506C49.9402 50.9771 46.2633 50.9036 42.2186 50.83C38.174 50.7565 33.7617 50.6829 29.1287 50.6829C24.4958 50.6829 19.5687 50.7565 14.568 50.7565C12.0677 50.7565 9.49384 50.7565 6.84644 50.83C5.57199 50.9255 4.30256 50.5887 3.24304 49.874C2.28521 49.0376 1.59468 47.9379 1.25749 46.7118C1.09838 45.3945 1.04918 44.0662 1.11041 42.7407C1.11041 41.417 1.11041 40.0933 1.18395 38.6961C1.25749 35.9752 1.33103 33.3278 1.40457 30.6068C1.47811 27.8859 1.55164 25.2385 1.62518 22.5175C1.62518 21.1938 1.69872 19.7966 1.69872 18.4729C1.6448 17.1911 1.74355 15.9074 1.99288 14.6489C2.11629 14.0845 2.36791 13.5561 2.72827 13.1046C3.09961 12.6603 3.54802 12.2866 4.05197 12.0015C5.11305 11.433 6.30514 11.154 7.50829 11.1926C8.78741 11.2202 10.064 11.3184 11.3323 11.4867C12.5825 11.6338 13.9062 11.7073 15.1563 11.7809C20.2305 12.075 25.1576 12.0015 29.7906 11.8544C34.4235 11.7073 38.7623 11.5602 42.8805 11.4867C44.9396 11.4132 46.8516 11.3396 48.6901 11.3396C50.3971 11.1254 52.1187 11.0516 53.8378 11.119C55.2986 11.1673 56.6993 11.712 57.8089 12.6633C58.2786 13.0483 58.6598 13.5301 58.9263 14.0758C59.1928 14.6215 59.3384 15.2183 59.3532 15.8255C59.4267 20.532 59.4267 23.2529 59.4267 23.2529C59.4267 23.2529 59.4267 23.3265 59.5003 23.3265C59.5738 23.3265 59.5738 23.3265 59.5738 23.2529C59.5738 23.1794 59.6474 22.5911 59.6474 21.3409C59.6474 20.0908 59.7944 18.2523 59.9415 15.8255C59.9698 15.1191 59.8392 14.4154 59.5592 13.7662C59.2791 13.1171 58.8569 12.5391 58.3237 12.075C57.0895 10.9912 55.5461 10.3224 53.9113 10.163C52.1486 10.0042 50.3742 10.0288 48.6165 10.2365H42.807C38.7623 10.163 34.35 10.2365 29.717 10.3101C25.0841 10.3836 20.2305 10.4572 15.1563 10.2365L11.3323 10.0159C10.0141 9.86501 8.68809 9.79134 7.36122 9.79531C5.92168 9.76896 4.50082 10.1242 3.24304 10.8249C2.58329 11.1924 2.00727 11.6933 1.55164 12.2956C1.12277 12.9161 0.822701 13.6163 0.669177 14.3547C0.391211 15.7086 0.292313 17.0932 0.375022 18.4729V22.5175C0.375022 25.2385 0.448561 27.8859 0.448561 30.6068C0.448561 33.3278 0.5221 35.9752 0.5221 38.6961V42.7407C0.461759 44.0994 0.585445 45.4599 0.889794 46.7854C1.21808 48.1337 1.96459 49.3435 3.02242 50.2417C4.13805 51.0263 5.48433 51.4147 6.84644 51.3448L14.568 51.5654C19.6422 51.7125 24.4958 51.8596 29.1287 51.9331C33.7617 52.0066 38.174 52.0066 42.2186 52.0802C46.2633 52.1537 49.9402 52.0802 53.2495 52.0066C54.9409 51.9331 56.6323 51.7125 57.8824 50.7565C58.0469 50.6564 58.1955 50.5325 58.3237 50.3888C58.4639 50.2574 58.5874 50.1092 58.6914 49.9475C58.9297 49.6569 59.1275 49.3353 59.2797 48.9915C59.5227 48.3802 59.6715 47.7355 59.7209 47.0795C59.8151 46.0283 59.8397 44.9719 59.7944 43.9174V40.7552C59.7888 40.5271 59.7389 40.3023 59.6474 40.0933C59.7209 40.0198 59.5738 39.9463 59.4267 39.9463Z" fill="black"/>
<path d="M42.2187 52.448C40.1302 52.4137 37.9583 52.3892 35.7031 52.3745C33.5705 52.3745 31.3717 52.3745 29.0846 52.301C24.8561 52.2348 20.4732 52.1024 15.8476 51.97L6.83911 51.7126C5.39592 51.7953 3.96809 51.38 2.79447 50.536C1.66529 49.5857 0.8734 48.296 0.536825 46.8591C0.222692 45.5101 0.0940386 44.1246 0.154423 42.7409V38.6963C0.154423 37.3358 0.154423 35.9974 0.154423 34.659C0.154423 33.3206 0.154423 31.9675 0.154423 30.607C0.154423 29.2465 0.154423 27.9081 0.154423 26.5697C0.154423 25.2313 0.00734481 23.8782 0.00734481 22.5177V17.9068C-0.0618719 16.6728 0.0420925 15.4351 0.316208 14.2299C0.4746 13.44 0.789665 12.6898 1.2428 12.0237C1.73646 11.3758 2.35702 10.8353 3.06656 10.4353C4.38441 9.72707 5.86593 9.37953 7.36123 9.42779C8.29455 9.39843 9.22875 9.44023 10.1557 9.5528C10.5602 9.58957 10.9646 9.62634 11.3544 9.6484L14.8916 9.85431H15.1784C20.3261 10.0749 25.2974 10.0014 29.7097 9.92785H30.0186C34.5559 9.86167 38.8432 9.78813 42.8143 9.86167H48.6165C50.3988 9.65317 52.198 9.63099 53.9849 9.79548C55.6975 9.96076 57.314 10.6635 58.6031 11.8031C59.1734 12.3071 59.6248 12.9312 59.9249 13.6306C60.225 14.33 60.3663 15.0872 60.3386 15.8477C60.2504 17.3185 60.1842 18.5613 60.1327 19.5982C60.1033 20.2748 60.0739 20.8631 60.0445 21.3632C60.0445 22.5986 59.971 23.2678 59.971 23.2972C59.9725 23.3537 59.9618 23.4097 59.9395 23.4616C59.9173 23.5135 59.884 23.5599 59.8421 23.5977C59.8001 23.6355 59.7505 23.6637 59.6965 23.6804C59.6426 23.697 59.5857 23.7018 59.5297 23.6943C59.4704 23.7 59.4105 23.6925 59.3544 23.6724C59.2982 23.6522 59.2473 23.6199 59.2051 23.5777C59.1629 23.5356 59.1306 23.4846 59.1105 23.4285C59.0903 23.3723 59.0828 23.3125 59.0885 23.2531C59.0885 23.2531 59.0885 20.4807 59.0149 15.833C59.0012 15.2781 58.8679 14.7327 58.6243 14.2339C58.3806 13.7352 58.0323 13.2949 57.603 12.9429C56.5565 12.0403 55.2336 11.5215 53.8525 11.4722C52.4933 11.3946 51.1298 11.4389 49.7785 11.6045L48.7489 11.6928C47.0134 11.6928 45.2338 11.759 43.3512 11.8252H42.9246C39.2992 11.8913 35.5046 12.009 31.4967 12.1414L29.8347 12.1929C25.5548 12.3252 20.4659 12.4282 15.1637 12.1193H14.9504C13.7518 12.0531 12.509 11.9796 11.3176 11.8399H11.1191C9.92169 11.679 8.71619 11.5857 7.50831 11.5604C6.37187 11.5144 5.24331 11.768 4.23583 12.2958C3.76859 12.5603 3.35263 12.9065 3.00773 13.318C2.68657 13.7291 2.46054 14.2063 2.34588 14.7152C2.10668 15.9527 2.01289 17.2139 2.06643 18.4731C2.06643 19.1349 2.06643 19.8188 2.02966 20.5027C1.9929 21.1867 2.02966 21.8559 2.02966 22.5177L1.58843 38.6963C1.51489 40.0935 1.51489 41.4393 1.51489 42.7335C1.45503 44.0468 1.50422 45.3628 1.66197 46.6679C1.97663 47.8059 2.61538 48.8279 3.50044 49.6094C4.50006 50.2681 5.68922 50.5784 6.88323 50.4919C12.2222 50.3448 17.2522 50.4184 22.1573 50.3816C29.4008 50.3228 36.1296 50.3816 42.2628 50.4919C46.3074 50.5654 49.9844 50.639 53.2936 50.7125C54.6684 50.8 56.0387 50.483 57.2353 49.8006C57.6699 49.4526 58.03 49.0205 58.294 48.5303C58.5581 48.0401 58.7207 47.5017 58.7723 46.9473C58.9033 46.2185 58.9819 45.4812 59.0076 44.7412C59.0076 44.4617 59.0076 44.1896 59.0591 43.9396C59.0591 43.5131 59.1105 43.1307 59.1253 42.7777C59.14 42.4247 59.1694 41.9467 59.2061 41.579C59.2109 41.4213 59.2257 41.2641 59.2503 41.1083C59.2565 41.0079 59.2565 40.9072 59.2503 40.8068V40.6892C59.2634 40.6616 59.2701 40.6314 59.2701 40.6009C59.2701 40.5704 59.2634 40.5403 59.2503 40.5127H58.8385V39.7773L59.4268 39.6302C59.5427 39.622 59.6585 39.6475 59.7602 39.7036C59.862 39.7597 59.9454 39.8441 60.0004 39.9464L60.096 40.1744C60.155 40.3676 60.1871 40.5681 60.1916 40.7701V43.9175C60.1916 44.1234 60.1916 44.344 60.1916 44.572C60.2236 45.4235 60.1965 46.2761 60.1107 47.1238C60.0569 47.8155 59.8982 48.4949 59.64 49.1388C59.4783 49.5098 59.2654 49.8563 59.0076 50.1683C58.8958 50.3415 58.7624 50.4996 58.6105 50.639C58.4559 50.8184 58.2719 50.9701 58.0663 51.0876C56.7647 52.0877 54.9188 52.301 53.2863 52.3745C49.9476 52.448 46.1898 52.448 42.2187 52.448ZM12.0677 51.1243L15.8917 51.2714C20.532 51.4038 24.9076 51.5361 29.1287 51.6023C31.379 51.6023 33.5411 51.6538 35.7031 51.6759C37.9608 51.6759 40.1155 51.6759 42.2187 51.7494C46.1824 51.7494 49.9255 51.7494 53.2495 51.6759C54.8306 51.6097 56.4705 51.4185 57.6618 50.4993C57.811 50.4077 57.947 50.2964 58.0663 50.1683C58.1866 50.0512 58.2927 49.9204 58.3825 49.7786L58.434 49.7124C58.2124 49.9977 57.9468 50.2459 57.6471 50.4478C56.3095 51.216 54.7737 51.5692 53.2348 51.4626L42.204 51.242C36.1002 51.1317 29.3494 51.0729 22.1205 51.1317C18.8554 51.1096 15.5314 51.117 12.0677 51.1243ZM58.8458 48.9991C58.7943 49.0947 58.7429 49.1903 58.684 49.2859C58.7723 49.1903 58.8237 49.0652 58.8752 48.9991H58.8458ZM7.94219 10.1485H7.3833C6.00153 10.1217 4.63705 10.459 3.4269 11.1265C2.80976 11.476 2.27148 11.9492 1.84582 12.5164C1.45108 13.0933 1.17602 13.7434 1.03689 14.4284C0.782526 15.5668 0.686021 16.7348 0.750088 17.8995V22.5177C0.750088 23.8782 0.750087 25.2166 0.786857 26.555C0.823626 27.8934 0.786857 29.2465 0.786857 30.607C0.786857 31.9675 0.786857 33.3059 0.786857 34.6443V36.4901L1.16926 22.5177C1.16926 21.8632 1.16926 21.1793 1.16926 20.4954C1.16926 19.8115 1.20603 19.1423 1.20603 18.4804C1.15231 17.169 1.25352 15.8558 1.50754 14.5682C1.64315 13.9481 1.92279 13.3687 2.32382 12.8768C2.71985 12.3979 3.20105 11.9965 3.74312 11.6928C4.86883 11.0799 6.13927 10.7826 7.42007 10.8324C8.6498 10.8551 9.87732 10.946 11.097 11.1045H11.3029C12.4722 11.2442 13.7003 11.3177 14.8916 11.3839H15.1049C20.3776 11.6928 25.4444 11.5898 29.7023 11.4575L31.3717 11.406C35.3869 11.2736 39.1742 11.156 42.7996 11.0898H43.2188C45.1087 11.0236 46.8957 10.9574 48.6165 10.9574L49.6093 10.8691C51.0001 10.7033 52.4026 10.659 53.801 10.7368C55.3412 10.7941 56.8164 11.3723 57.9854 12.3767C58.3215 12.6651 58.6182 12.9964 58.8679 13.3621C58.6368 12.9781 58.3464 12.6331 58.0075 12.3399C56.831 11.3018 55.3558 10.6633 53.7937 10.5162C52.0554 10.3603 50.3056 10.3849 48.5724 10.5897H42.807C38.8506 10.5162 34.5633 10.5897 30.0259 10.6559H29.7171C25.3047 10.7294 20.2747 10.803 15.1343 10.5823H14.8401L11.3323 10.3838C10.9352 10.3838 10.5234 10.3176 10.1042 10.2808C9.39091 10.2147 8.67023 10.1485 7.94219 10.1485Z" fill="black"/>
<path d="M63.3979 27.8123C63.4081 27.3698 63.3835 26.9272 63.3243 26.4886C63.2728 26.2203 63.1682 25.9651 63.0166 25.7378C62.8651 25.5105 62.6697 25.3157 62.4419 25.1649C62.0133 24.919 61.5367 24.7685 61.0446 24.7237C60.6533 24.6868 60.2594 24.6868 59.868 24.7237H58.7649C58.0777 24.7101 57.3903 24.7347 56.7058 24.7972C54.0584 24.8708 51.8523 25.0178 50.308 25.1649C49.499 25.2385 48.9107 25.312 48.543 25.312C48.3245 25.3527 48.1033 25.3773 47.8812 25.3855C47.8617 25.3855 47.843 25.3933 47.8292 25.4071C47.8154 25.4209 47.8076 25.4396 47.8076 25.4591C47.8076 25.5326 47.8076 25.5326 47.8812 25.5326C48.1033 25.5409 48.3245 25.5655 48.543 25.6062C48.9843 25.6062 49.5726 25.6797 50.3815 25.7532C51.9258 25.9003 54.132 25.9739 56.8529 25.9739H61.0446C61.3449 25.9743 61.643 26.0239 61.9271 26.1209C62.0446 26.1652 62.1513 26.234 62.24 26.3228C62.3288 26.4115 62.3976 26.5182 62.4419 26.6357C62.5369 26.9958 62.5863 27.3664 62.589 27.7388C62.6625 28.18 62.6625 28.5477 62.736 28.9889C62.8831 30.6803 63.0302 32.3717 63.1037 34.1367C63.1613 34.5188 63.0832 34.9091 62.8831 35.2398C62.5854 35.4563 62.2207 35.5605 61.8536 35.5339C60.9711 35.5339 60.0886 35.5339 59.2062 35.4604C57.4412 35.3868 55.6763 35.3133 53.9114 35.3133C52.1464 35.3133 50.455 35.2398 48.7636 35.2398H46.3369C46.0504 35.2558 45.7665 35.1784 45.5279 35.0191C45.3273 34.9018 45.1719 34.7205 45.0867 34.5044C44.8797 33.9115 44.7559 33.2928 44.719 32.6659C44.719 32.004 44.7925 31.2687 44.7925 30.6068C44.8661 29.2831 44.8661 28.0329 44.8661 27.0034C44.8565 26.8429 44.9092 26.6848 45.0132 26.5622C45.1348 26.446 45.2885 26.3692 45.4544 26.3415C45.8397 26.2176 46.2327 26.1193 46.631 26.0474C47.2145 25.9546 47.8068 25.9299 48.396 25.9739C48.5902 26.0115 48.7867 26.0361 48.9843 26.0474C49.0038 26.0474 49.0225 26.0396 49.0363 26.0259C49.0501 26.0121 49.0578 25.9934 49.0578 25.9739V25.9003C49.0578 25.9003 48.8372 25.8268 48.4695 25.6797C47.8773 25.4801 47.2559 25.3807 46.631 25.3855C46.1868 25.4022 45.7444 25.4513 45.3073 25.5326C45.0181 25.6066 44.7443 25.7311 44.4984 25.9003C44.2441 26.167 44.0662 26.4972 43.9836 26.8563C43.8365 27.9594 43.6895 29.136 43.5424 30.4597C43.4688 31.1216 43.3953 31.7834 43.3218 32.5924C43.2645 33.4492 43.4159 34.3072 43.763 35.0927C43.9783 35.5806 44.3375 35.9911 44.7925 36.2693L44.9396 36.3428L45.0867 36.4164L45.1602 36.4899C45.3073 36.5635 45.4544 36.5634 45.5279 36.637C45.7681 36.6978 46.0159 36.7226 46.2633 36.7105H48.7636C50.455 36.637 52.1464 36.637 53.9114 36.5635C54.7938 36.5635 55.6763 36.4899 56.5588 36.4899L59.2062 36.2693L61.8536 36.0487C62.0742 36.0487 62.2948 35.9751 62.589 35.9751C62.8496 35.8994 63.0806 35.7454 63.2508 35.5339C63.5214 35.1219 63.6265 34.6228 63.545 34.1367C63.4714 32.3717 63.4714 30.6803 63.545 28.9889C63.4193 28.6102 63.3693 28.2104 63.3979 27.8123Z" fill="black"/>
<path d="M47.5134 37.0782H46.2633C45.9757 37.0918 45.6877 37.0595 45.4102 36.9826H45.3293L45.2705 36.9164C45.1755 36.9122 45.0826 36.8871 44.9984 36.8429L44.6307 36.6223C44.1036 36.306 43.6855 35.8366 43.432 35.2765C43.0559 34.4343 42.8918 33.5127 42.954 32.5924C43.0276 31.7834 43.0938 31.1216 43.1673 30.5038V30.4156C43.3144 29.0919 43.4615 27.9153 43.6085 26.8048C43.6605 26.4209 43.8296 26.0624 44.0928 25.7781C44.356 25.4938 44.7005 25.2977 45.0793 25.2164H45.1676C45.6523 25.1195 46.1443 25.063 46.6383 25.0473C46.9731 25.0462 47.3075 25.0708 47.6385 25.1208C47.7137 25.0743 47.8001 25.0489 47.8885 25.0473C48.0909 25.0401 48.2924 25.0179 48.4915 24.9811C48.793 24.9811 49.1607 24.937 49.624 24.8928L50.3079 24.7972C52.1243 24.6281 54.404 24.4957 56.7279 24.4295C57.4148 24.3669 58.1047 24.3423 58.7943 24.356H59.868H60.2063C61.0527 24.2891 61.9004 24.4679 62.6477 24.8708C62.9178 25.052 63.1492 25.2851 63.3285 25.5566C63.5077 25.828 63.6313 26.1323 63.692 26.4519C63.7511 26.9077 63.7756 27.3674 63.7655 27.827C63.7398 28.177 63.7797 28.5286 63.8832 28.8639V28.9375V29.0184C63.8097 30.7024 63.8097 32.3791 63.8832 34.1661V34.3573C63.9196 34.6155 63.9045 34.8784 63.8389 35.1309C63.7732 35.3833 63.6583 35.6202 63.5008 35.8281C63.2884 36.0911 63.0012 36.2834 62.6772 36.3796H62.5595C62.4371 36.3709 62.3142 36.3709 62.1918 36.3796C62.0695 36.3901 61.9465 36.3901 61.8241 36.3796L58.4193 36.6664L56.5587 36.8208C56.0954 36.8208 55.6542 36.8208 55.2203 36.8208C54.7864 36.8208 54.3305 36.8208 53.8819 36.8208C53.0289 36.8208 52.1758 36.8723 51.3301 36.8944C50.4844 36.9164 49.6093 36.9312 48.7489 36.9679L47.5134 37.0782ZM45.697 36.3061C45.8841 36.3371 46.0738 36.3494 46.2633 36.3428H48.7636C49.6093 36.3061 50.4697 36.284 51.3448 36.2693C52.2199 36.2546 53.0289 36.2325 53.8966 36.1958C54.3452 36.1958 54.7864 36.1958 55.2203 36.1958C55.6542 36.1958 56.1101 36.159 56.5587 36.159L58.3972 35.9678L59.6915 35.8648H59.1914C57.4706 35.7913 55.6836 35.7178 53.926 35.7178C53.0289 35.7178 52.1538 35.7178 51.286 35.7178C50.4182 35.7178 49.6093 35.7178 48.7783 35.7178H46.3368C45.9775 35.7344 45.6222 35.6366 45.322 35.4383C45.046 35.2712 44.8397 35.0101 44.741 34.7029C44.5203 34.0875 44.389 33.4436 44.3513 32.7909C44.3513 32.4085 44.3513 32.0555 44.3513 31.6952C44.3513 31.3348 44.3513 31.0113 44.3513 30.6877C44.4248 29.3566 44.4248 28.0991 44.4248 27.0843C44.4159 26.9507 44.4341 26.8167 44.4784 26.6903C44.5226 26.5639 44.5919 26.4478 44.6822 26.3489C44.8524 26.1794 45.0706 26.0664 45.3073 26.0253C45.5215 25.9509 45.7401 25.8895 45.9618 25.8415L45.2926 25.9371H45.2485C45.0326 25.9942 44.8285 26.0888 44.6454 26.2165C44.4611 26.4266 44.3322 26.6794 44.2704 26.9519C44.1307 28.0109 43.9836 29.1581 43.8365 30.5112V30.5921C43.7703 31.2245 43.6968 31.8643 43.6306 32.6365C43.5771 33.4252 43.7159 34.215 44.0351 34.9382C44.218 35.361 44.526 35.7177 44.9175 35.9604L45.3146 36.1884H45.3882C45.4978 36.2073 45.6027 36.2473 45.697 36.3061ZM45.4544 26.746C45.3872 26.7751 45.3251 26.8149 45.2705 26.8637C45.2418 26.9178 45.229 26.979 45.2337 27.0402C45.2337 28.0624 45.2337 29.3272 45.1602 30.6656C45.1602 30.9819 45.1602 31.3348 45.1602 31.6952C45.1602 32.0555 45.1602 32.3791 45.1602 32.7027C45.1974 33.279 45.3112 33.8478 45.4985 34.3941C45.5486 34.5301 45.6415 34.6463 45.7632 34.725C45.9518 34.8581 46.18 34.9229 46.4104 34.9088H48.8372C49.6755 34.9088 50.5138 34.9088 51.3669 34.9088C52.2199 34.9088 53.0951 34.9088 53.9849 34.9088C55.7572 34.9088 57.5589 34.9824 59.2944 35.0559C60.1768 35.1294 61.0667 35.1294 61.9271 35.1294C62.1852 35.1443 62.4417 35.0802 62.6625 34.9456C62.7667 34.6767 62.8045 34.3866 62.7728 34.0999C62.6992 32.3717 62.5521 30.673 62.4124 29.0331C62.3683 28.783 62.3536 28.5698 62.3315 28.3565C62.3095 28.1433 62.3315 27.9741 62.2654 27.7608C62.26 27.4138 62.2156 27.0684 62.133 26.7313C62.0153 26.5033 61.9271 26.4592 61.8462 26.4298C61.6087 26.3514 61.3608 26.3092 61.1108 26.3048H56.8529C54.0878 26.3048 51.8964 26.2312 50.3447 26.0842L49.749 26.0253H49.4181C49.407 26.1319 49.3563 26.2304 49.2759 26.3013C49.1955 26.3722 49.0914 26.4102 48.9842 26.4077C48.767 26.3945 48.5509 26.3675 48.3371 26.3268H48.0503C47.6004 26.2959 47.1484 26.3206 46.7045 26.4004C46.3212 26.4682 45.9429 26.5615 45.572 26.6798L45.4544 26.746ZM51.2272 25.4885C52.6979 25.5915 54.5658 25.6429 56.8529 25.6429H61.0446C61.3853 25.641 61.7237 25.6982 62.0447 25.8121C62.2144 25.872 62.3685 25.9692 62.4958 26.0964C62.623 26.2237 62.7202 26.3778 62.7801 26.5475V26.621C62.8793 26.9861 62.9385 27.3609 62.9566 27.7388C62.9911 27.9335 63.0156 28.1299 63.0302 28.3271C63.0302 28.5183 63.0302 28.7169 63.0963 28.9301V29.0037C63.0963 29.1875 63.0963 29.3787 63.1478 29.5626V29.0478C63.0254 28.648 62.9756 28.2296 63.0007 27.8123C63.0104 27.3896 62.9883 26.9668 62.9346 26.5475C62.8889 26.3288 62.8005 26.1213 62.6742 25.9371C62.548 25.7528 62.3866 25.5953 62.1992 25.4738C61.8357 25.2659 61.432 25.1381 61.0152 25.0987C60.7517 25.0628 60.4845 25.0628 60.221 25.0987H59.8312H58.7649C58.0924 25.0847 57.4196 25.1093 56.7499 25.1723C54.3158 25.2311 52.4332 25.3561 51.2272 25.4517V25.4885Z" fill="black"/>
<path d="M9.42031 8.61875V8.98645C9.42031 9.05998 9.42031 9.05999 9.49385 9.05999C9.56739 9.05999 9.56739 9.05998 9.56739 8.98645V8.54521C9.54151 8.15046 9.49239 7.75757 9.42031 7.36859C9.26542 6.79333 9.19118 6.19934 9.19969 5.60366C9.21147 5.27471 9.3421 4.96118 9.56739 4.72119C9.83891 4.4882 10.1699 4.33542 10.5234 4.27996C11.3323 4.13288 12.2883 4.05934 13.2443 3.9858C14.2003 3.91226 15.2299 3.76519 16.333 3.61811C18.4656 3.39749 20.7453 3.17687 23.025 2.95626C25.3047 2.73564 27.5844 2.58856 29.717 2.36795C31.8497 2.14733 33.8352 1.85317 35.5266 1.55902C36.2539 1.40752 36.9912 1.30921 37.7328 1.26486C38.2671 1.26561 38.7854 1.44703 39.2036 1.77964C39.4977 2.07379 39.7183 2.44148 39.6448 2.58856H39.5712V2.51502C39.5712 2.44149 39.5712 2.44149 39.4977 2.44149H39.4242C39.3506 2.44149 39.3506 2.51502 39.3506 2.58856C39.3506 2.6621 39.3506 2.73564 39.4242 2.73564C39.4977 2.73564 39.6448 2.73564 39.7183 2.6621C39.8111 2.48071 39.8372 2.27245 39.7919 2.07379C39.7292 1.82487 39.6024 1.59669 39.4242 1.41194C39.2142 1.13696 38.9484 0.909583 38.6442 0.744801C38.3399 0.580018 38.0043 0.481567 37.6592 0.455935C36.8542 0.357991 36.0419 0.333377 35.2325 0.382396C33.5411 0.455935 31.482 0.603012 29.3493 0.823629C27.2167 1.04425 24.937 1.41194 22.6573 1.77964C20.3776 2.14733 18.0979 2.44149 15.9653 2.80918C14.9357 2.95626 13.9062 3.17687 12.8766 3.32395C11.8471 3.47103 11.0382 3.61811 10.1557 3.83872C9.69606 3.90893 9.27776 4.14423 8.97908 4.50057C8.72583 4.83933 8.59608 5.25452 8.61138 5.6772C8.64082 6.30502 8.76478 6.92481 8.97908 7.51567C9.25825 7.81568 9.41556 8.20897 9.42031 8.61875Z" fill="black"/>
<path d="M9.49386 9.4277C9.4345 9.4334 9.37462 9.42589 9.3185 9.40573C9.26238 9.38557 9.21141 9.35325 9.16924 9.31108C9.12708 9.26892 9.09476 9.21795 9.07459 9.16183C9.05443 9.10571 9.04693 9.04583 9.05263 8.98647V8.61877C9.04604 8.29588 8.92032 7.98682 8.69964 7.75102L8.6261 7.61864L8.55256 7.36126C8.36175 6.81963 8.25752 6.25131 8.2437 5.67722C8.22402 5.17092 8.38279 4.6738 8.69228 4.27263C9.04544 3.84116 9.54576 3.55563 10.0969 3.47105C11.0014 3.24308 11.9427 3.08865 12.8178 2.95628C13.3326 2.88274 13.8474 2.78714 14.3548 2.69889C14.8622 2.61065 15.3917 2.51505 15.9138 2.44151C17.1125 2.22825 18.3626 2.0444 19.6349 1.86055L22.5764 1.41196C24.8267 1.04427 27.1432 0.676574 29.2905 0.448604C31.2908 0.242695 33.3866 0.0882629 35.1736 0.0073701H35.784C36.4178 -0.0288063 37.0536 0.000766956 37.6813 0.0956167C38.0755 0.128102 38.4583 0.243885 38.8043 0.435308C39.1504 0.626732 39.4519 0.889436 39.6889 1.20605C39.8837 1.41312 40.0228 1.66611 40.0934 1.94144V2.05911C40.0934 2.05911 40.0934 2.10323 40.0934 2.13264C40.1386 2.38661 40.0889 2.64834 39.9537 2.86803C39.8681 2.97501 39.7511 3.05242 39.6191 3.08936C39.4872 3.1263 39.347 3.12091 39.2183 3.07394C39.123 3.03691 39.0429 2.96893 38.9909 2.8809C38.9389 2.79288 38.9179 2.68993 38.9315 2.58858C38.9247 2.45353 38.9664 2.32049 39.0491 2.21354L38.8947 2.03704C38.5444 1.77498 38.1188 1.63311 37.6813 1.63258C37.1082 1.66196 36.538 1.73324 35.9752 1.84584L35.534 1.91938C33.5705 2.26501 31.607 2.53711 29.7023 2.73566C28.5551 2.85333 27.3638 2.94893 26.1504 3.05188C25.1135 3.13277 24.0619 3.22102 23.0103 3.32397H22.8559C20.6497 3.53724 18.4068 3.7505 16.3183 3.97112L15.8917 4.02995C14.9504 4.15496 14.0606 4.27263 13.2223 4.33881C12.3839 4.405 11.325 4.48589 10.5381 4.62561C10.2677 4.67232 10.0142 4.78894 9.80272 4.96389C9.64902 5.13734 9.55833 5.35758 9.54534 5.58897C9.51879 5.99471 9.55853 6.40206 9.663 6.79501C9.663 6.9715 9.73654 7.14064 9.76595 7.30243L9.81743 7.68483C9.8695 7.96408 9.90144 8.2467 9.91303 8.53053V8.97176C9.9206 9.03029 9.91527 9.08977 9.89741 9.14602C9.87956 9.20227 9.8496 9.25393 9.80966 9.29738C9.76972 9.34083 9.72075 9.37501 9.66619 9.39752C9.61164 9.42003 9.55282 9.43034 9.49386 9.4277ZM36.4385 0.735405H35.2325C33.4602 0.816298 31.379 0.97073 29.3494 1.17664C27.2314 1.39726 24.937 1.76495 22.6794 2.12529C21.6866 2.28708 20.6865 2.43415 19.7378 2.58123C18.4656 2.76508 17.2228 2.94893 16.0168 3.15483C15.502 3.22837 14.9872 3.32397 14.4798 3.41222L13.5385 3.58871C14.2739 3.52253 15.0093 3.41958 15.8256 3.30927L16.2594 3.25044L22.8118 2.60329H22.9662C24.0251 2.50034 25.0767 2.41945 26.121 2.3312C27.327 2.2356 28.511 2.13264 29.6582 2.01498C31.5482 1.82378 33.4896 1.55169 35.4384 1.21341L35.8796 1.13987C36.6005 0.9612 37.3446 0.894236 38.0858 0.941314C37.9238 0.887299 37.7559 0.852738 37.5857 0.83836C37.2072 0.769738 36.8232 0.735281 36.4385 0.735405Z" fill="black"/>
<path d="M21.1866 7.00089C20.3776 7.14796 19.5687 7.2215 18.9069 7.36858C18.2895 7.46361 17.6928 7.66253 17.1419 7.95689C16.7781 8.14832 16.4921 8.46028 16.333 8.83936C16.2638 8.95286 16.2141 9.07714 16.1859 9.20705C16.1859 9.28059 16.1859 9.28059 16.2595 9.28059C16.333 9.28059 16.333 9.28059 16.333 9.20705C16.3475 9.07334 16.3983 8.94617 16.4801 8.83936C16.6765 8.52412 16.9565 8.26955 17.289 8.10397C17.8235 7.86154 18.3956 7.71232 18.9804 7.66274C19.7371 7.57232 20.4981 7.52322 21.2601 7.51566C24.6429 7.29504 29.1288 6.85381 33.6882 6.48611C35.9679 6.2655 38.174 6.11842 40.3067 5.97134C41.3362 5.82426 42.3658 5.75072 43.3218 5.60365L44.719 5.38303C45.0829 5.30874 45.4581 5.30874 45.8221 5.38303C46.4558 5.54659 47.0061 5.93971 47.3664 6.48611C47.6786 6.95664 47.9028 7.47988 48.0282 8.03043C48.1753 8.47166 48.2489 8.83936 48.3224 9.13351C48.358 9.2536 48.3826 9.37667 48.3959 9.50121C48.3959 9.52071 48.4037 9.53942 48.4175 9.55321C48.4313 9.567 48.45 9.57475 48.4695 9.57475C48.543 9.57475 48.543 9.57475 48.543 9.50121V7.88335C48.4847 7.25257 48.3361 6.63343 48.1018 6.04488C47.9245 5.62475 47.6635 5.2451 47.3348 4.92903C47.0061 4.61297 46.6165 4.3671 46.1898 4.20641C45.6913 4.04811 45.1648 3.99797 44.6455 4.05933C44.2042 4.05933 43.6895 4.13287 43.2482 4.13287C42.2922 4.20641 41.2627 4.27995 40.2331 4.42702C38.1005 4.64764 35.8943 5.01534 33.6146 5.30949C29.0552 5.97134 24.5693 6.55965 21.1866 7.00089Z" fill="black"/>
<path d="M48.4694 9.94239C48.4112 9.94338 48.3534 9.93265 48.2994 9.91083C48.2454 9.88901 48.1964 9.85654 48.1552 9.81537C48.1141 9.7742 48.0816 9.72516 48.0598 9.67118C48.0379 9.61719 48.0272 9.55937 48.0282 9.50115C48.0112 9.40689 47.9891 9.3136 47.962 9.2217L47.9105 9.00109C47.8517 8.75841 47.7855 8.47161 47.6826 8.14804C47.5677 7.62432 47.3584 7.12592 47.0648 6.67726C46.7558 6.20706 46.2847 5.86683 45.7412 5.72125C45.4231 5.65805 45.0958 5.65805 44.7778 5.72125L44.0939 5.83156L43.3585 5.94187C42.8511 6.02276 42.3216 6.08159 41.7848 6.14043C41.2479 6.19926 40.8214 6.24338 40.314 6.31692H39.8213C37.8357 6.45664 35.7913 6.59637 33.6808 6.80228C31.8864 6.942 30.1141 7.10378 28.408 7.25086C25.7827 7.47883 23.2603 7.69945 21.238 7.83182C20.4833 7.83766 19.7295 7.88676 18.9804 7.9789C18.436 8.0195 17.9031 8.15644 17.4066 8.38336C17.1318 8.51873 16.9019 8.7307 16.7448 8.99373C16.7009 9.04698 16.6706 9.11007 16.6565 9.17758C16.6601 9.23548 16.651 9.29347 16.6298 9.34746C16.6085 9.40145 16.5758 9.45014 16.5337 9.49009C16.4916 9.53005 16.4413 9.56031 16.3863 9.57873C16.3313 9.59716 16.2729 9.60331 16.2153 9.59675C16.1559 9.60245 16.0961 9.59494 16.0399 9.57478C15.9838 9.55462 15.9328 9.5223 15.8907 9.48014C15.8485 9.43797 15.8162 9.387 15.796 9.33088C15.7759 9.27476 15.7684 9.21488 15.7741 9.15552C15.7944 8.97874 15.8521 8.8083 15.9432 8.65546C16.1269 8.20305 16.4623 7.82866 16.8919 7.5965C17.4808 7.27718 18.12 7.0608 18.7818 6.95671C19.1716 6.87581 19.5907 6.80963 20.0393 6.7508L21.0762 6.58901C24.7532 6.11101 29.1067 5.53741 33.4969 4.90497L36.0781 4.54463C37.4754 4.34608 38.8064 4.15488 40.1301 4.01515C41.0861 3.88278 42.0348 3.80924 42.954 3.7357H43.1526C43.3953 3.7357 43.6232 3.7357 43.888 3.7357C44.1527 3.7357 44.388 3.69893 44.6234 3.69893C45.1777 3.63958 45.7384 3.69464 46.2706 3.86072C46.7477 4.03954 47.1837 4.31277 47.5527 4.66405C47.9216 5.01532 48.2159 5.43743 48.418 5.9051C48.6514 6.48161 48.8024 7.08814 48.8666 7.7068V7.83917V9.50115C48.8716 9.55666 48.8652 9.61262 48.8476 9.66552C48.83 9.71841 48.8017 9.7671 48.7644 9.80853C48.7271 9.84997 48.6817 9.88324 48.6309 9.90628C48.5802 9.92931 48.5252 9.9416 48.4694 9.94239ZM45.0867 4.39755C44.9643 4.38635 44.8413 4.38635 44.719 4.39755C44.4542 4.39755 44.2263 4.39755 43.9836 4.43432C43.7409 4.47109 43.4835 4.43432 43.2482 4.43432H43.0717C42.1672 4.50051 41.2332 4.57405 40.2846 4.71377C38.9609 4.84614 37.6445 5.03734 36.2473 5.2359L33.6587 5.67713C30.7613 6.0963 27.8859 6.48606 25.1944 6.8464L28.3933 6.56695L33.6587 6.11836C35.7693 5.91246 37.8284 5.77273 39.8139 5.63301H40.2846C40.7479 5.56682 41.2406 5.51535 41.7553 5.45651C42.2701 5.39768 42.7996 5.34621 43.2923 5.27267L44.0277 5.15501L44.7116 5.05205C45.2806 4.92759 45.8741 4.98073 46.412 5.2043C46.9499 5.42786 47.4062 5.81108 47.7193 6.30221C47.8334 6.46551 47.9342 6.63764 48.0209 6.81698C47.9688 6.61309 47.8999 6.41386 47.8149 6.22132C47.6578 5.84706 47.4262 5.50869 47.1341 5.22677C46.8421 4.94485 46.4958 4.72527 46.1162 4.5814C45.7765 4.46929 45.4222 4.40735 45.0646 4.39755H45.0867Z" fill="black"/>
</g>
<defs>
<clipPath id="clip0_38_657">
<rect width="63.92" height="52.4479" fill="white"/>
</clipPath>
</defs>
</svg>
