<svg width="102" height="100" viewBox="0 0 102 100" fill="none" xmlns="http://www.w3.org/2000/svg">
<g clip-path="url(#clip0_20_136)">
<path d="M101.694 14.7235C100.241 13.2725 98.6477 11.9692 96.9363 10.8329L91.1329 6.72606L85.457 2.79726C83.8338 1.54129 81.9854 0.604924 80.0107 0.0382026C79.7903 -0.0227673 79.5549 0.000490503 79.3508 0.103423C79.1466 0.206356 78.9883 0.381551 78.907 0.594702C78.8256 0.807854 78.8269 1.04361 78.9108 1.25581C78.9946 1.46801 79.1549 1.64138 79.3602 1.74195C79.3602 2.25054 79.322 2.75912 79.2454 3.2677C79.1562 3.97972 79.0669 4.67902 78.9266 5.3656C78.7863 6.05219 78.6332 6.81506 78.5184 7.5525C78.3143 8.33649 78.2624 9.15213 78.3654 9.95556C78.4007 10.1302 78.4953 10.2873 78.6332 10.4006C78.5567 10.8964 78.4802 11.405 78.4036 11.8755C78.1996 12.9053 78.021 13.9479 77.8424 14.9905C77.5108 17.0121 77.3577 19.0719 77.1792 21.1062C77.1849 21.2268 77.2297 21.3424 77.3068 21.4355C77.3838 21.5287 77.4891 21.5945 77.6068 21.6231C77.7244 21.6517 77.8483 21.6416 77.9597 21.5943C78.0711 21.5469 78.1642 21.4649 78.2251 21.3605C78.3526 21.5004 78.4802 21.6402 78.6205 21.7674C78.8655 21.9712 79.1305 22.1501 79.4113 22.3014L80.5975 22.9625C79.4465 24.9479 78.0823 26.8024 76.5287 28.4934C74.5772 30.3624 71.9114 32.4222 69.0544 32.3078C66.1973 32.1933 63.7739 29.8411 61.6056 28.2391C59.2569 26.511 57.0439 24.6067 54.9859 22.543C53.2257 20.7248 51.7206 18.665 49.2462 17.7623C46.9246 17.0216 44.4225 17.0663 42.129 17.8894C39.7997 18.613 37.6246 19.7597 35.7134 21.2715C33.7846 22.9664 32.2334 25.0454 31.1599 27.3745C29.3232 30.9091 27.4738 34.5201 25.9305 38.2454C19.9867 37.7369 13.89 36.4146 8.07377 37.9403C8.0287 37.8949 7.97507 37.8589 7.91596 37.8344C7.85685 37.8098 7.79344 37.7971 7.72939 37.7971C7.66535 37.7971 7.60194 37.8098 7.54283 37.8344C7.48372 37.8589 7.43008 37.8949 7.38501 37.9403L7.30848 38.042C6.39362 40.0596 5.7874 42.2025 5.51006 44.3993C5.02538 46.6116 4.59172 48.824 4.17081 51.049C3.32049 55.4737 2.62323 59.9238 2.07902 64.3993C0.837903 73.5853 0.143678 82.8365 -5.55767e-06 92.1043C-0.00778287 92.3516 0.0786568 92.5927 0.241931 92.779C0.405205 92.9654 0.633203 93.0832 0.880074 93.1088C2.15555 95.7788 7.25747 95.8043 9.71914 95.9823C15.1399 96.3764 20.3949 97.7496 25.8284 98.0166C28.3794 98.131 30.9303 98.1692 33.4813 98.3726C36.1398 98.7186 38.7792 99.1981 41.3893 99.8093C42.2464 100.089 43.1759 100.052 44.0076 99.7037C44.8392 99.3557 45.5172 98.7207 45.9172 97.9149C46.7865 96.0097 47.1003 93.8992 46.8228 91.8246C46.6825 79.6568 46.4912 67.4889 46.6442 55.3338C46.743 52.204 47.1704 49.0932 47.9197 46.0522C48.4299 43.7509 48.2641 41.5894 45.8917 40.4959C43.2663 39.5164 40.5125 38.9211 37.7159 38.7286C34.5399 38.3217 31.3385 38.5379 28.1881 38.398H27.6013C29.0044 35.3847 30.5094 32.4222 32.0783 29.4978C33.189 26.9174 34.8672 24.6188 36.9889 22.7718C39.1805 21.159 41.7245 20.0871 44.4121 19.644C47.6774 19.1355 49.8712 20.4324 51.9885 22.7845C53.914 24.9203 56.0176 26.8896 58.2766 28.6714C62.103 31.6975 66.4397 35.9568 71.7074 34.3166C74.1892 33.4476 76.4647 32.0778 78.3915 30.2926C80.3184 28.5075 81.8552 26.3455 82.9061 23.9416C83.3015 24.0941 83.6969 24.234 84.105 24.3484C84.3434 24.4112 84.597 24.3786 84.8115 24.2574C85.0261 24.1362 85.1845 23.9361 85.253 23.7V23.4711L86.3881 22.8863L88.9391 21.6148C89.7937 21.1698 90.6482 20.7375 91.4901 20.3434L92.7655 19.7076C92.9951 19.6059 93.2374 19.5042 93.4543 19.3898C93.6051 19.3966 93.7557 19.3737 93.8976 19.3224C94.0395 19.2711 94.1699 19.1925 94.2812 19.0909C94.3926 18.9893 94.4828 18.8669 94.5466 18.7305C94.6105 18.5942 94.6467 18.4466 94.6532 18.2963C94.6595 18.2032 94.6595 18.1097 94.6532 18.0166L94.8956 17.9276C95.5588 17.7114 96.1711 17.4699 96.8598 17.2919C97.4839 17.125 98.1189 17.0018 98.7603 16.9231C99.4873 16.8468 100.444 17.0121 101.043 16.5544C101.329 16.5286 101.593 16.391 101.777 16.1717C101.961 15.9525 102.05 15.6695 102.025 15.3847C101.997 15.132 101.88 14.8975 101.694 14.7235ZM33.494 40.8519C36.595 40.9464 39.6793 41.3424 42.703 42.0344C43.7616 42.2505 45.254 42.3522 45.7131 43.4203C46.1723 44.4883 45.3432 46.8278 45.0754 48.0865C44.5595 50.6605 44.3158 53.2813 44.3484 55.906C44.3484 61.8564 44.4249 67.8068 44.4249 73.7699C44.4249 80.6104 44.3229 87.4381 44.2718 94.2785C44.1698 95.2194 43.9402 96.8214 43.2515 97.2919C42.5627 97.7623 41.2107 97.1266 40.4964 96.9358C39.5623 96.6628 38.6125 96.4462 37.6521 96.2874C33.7464 95.8085 29.8146 95.5707 25.8794 95.5754C21.8617 95.4355 17.9842 94.5582 13.992 94.3039C11.8875 94.1386 9.77016 94.1641 7.6146 94.1005C5.96923 94.1005 3.11216 94.2149 1.83668 92.918C1.94247 92.8184 2.02651 92.6981 2.08357 92.5647C2.14063 92.4313 2.16947 92.2875 2.16831 92.1425C2.22306 83.079 2.7766 74.0253 3.82643 65.0223C4.37063 60.3942 5.06364 55.7915 5.90546 51.2143C6.2881 49.0952 6.71326 46.9761 7.18094 44.857C7.78518 42.827 8.17001 40.7384 8.32887 38.6269C13.8772 38.3853 19.4383 39.6568 24.9101 40.3433H25.1524C24.604 41.7928 24.1065 43.2677 23.6984 44.7553H21.3132C20.145 44.8821 18.9632 44.7429 17.8567 44.3484C17.6754 44.2613 17.468 44.2451 17.2754 44.3031C17.0827 44.3611 16.9189 44.489 16.8163 44.6616C16.7138 44.8341 16.6799 45.0388 16.7213 45.2351C16.7628 45.4313 16.8767 45.605 17.0404 45.7216C17.8818 46.2772 18.8435 46.6258 19.8464 46.7388C20.8223 47.4105 22.0105 47.7043 23.1882 47.5652C24.4301 47.6309 25.6752 47.6011 26.9126 47.4762C27.1782 47.4629 27.4314 47.36 27.6307 47.1845C27.83 47.0089 27.9636 46.7711 28.0095 46.5099L29.285 46.3955C30.0739 46.3192 30.8684 46.3192 31.6574 46.3955C32.4077 46.5516 33.1773 46.5945 33.9405 46.5226C34.1794 46.4595 34.3863 46.31 34.5207 46.1031C34.6551 45.8963 34.7074 45.6469 34.6675 45.4037C34.6316 45.1643 34.5122 44.945 34.3302 44.7846C34.1483 44.6241 33.9155 44.5327 33.6726 44.5264C32.9408 44.5133 32.2109 44.6032 31.5043 44.7934C30.8245 44.891 30.137 44.925 29.4508 44.8952C28.035 44.8952 26.6192 44.7807 25.2162 44.7553H24.7443C25.3055 43.3313 25.8922 41.92 26.5044 40.5214C28.8896 40.7375 31.1854 40.8265 33.494 40.8519ZM90.2783 18.1183L87.7274 19.555C86.8473 20.0382 86.082 20.5468 85.2912 21.0808L84.0157 21.92L83.5693 22.2251C82.8678 21.9835 82.1663 21.7165 81.4648 21.4495C81.0056 21.2588 80.5592 21.0681 80.1 20.8519C79.8449 20.7375 79.5898 20.5849 79.322 20.4959L78.5312 20.2798C78.9138 18.6015 79.322 16.9359 79.6664 15.2575C79.8704 14.2658 80.0873 13.2741 80.3041 12.2823C80.4444 11.672 80.6357 11.0109 80.776 10.4133C82.6637 11.7737 84.6025 13.1596 86.5157 14.3929C87.6381 15.105 88.7733 15.7915 89.8447 16.5544C90.2957 16.8832 90.722 17.2444 91.1202 17.6351L90.2783 18.1183ZM93.8369 16.4781C93.185 15.7939 92.4625 15.1803 91.6814 14.6472C90.5717 13.8335 89.3727 13.1215 88.1993 12.3968C85.6484 10.871 83.0974 9.53598 80.4572 8.13738V7.65422C80.5337 6.96764 80.6357 6.29376 80.725 5.61989C83.276 7.24736 85.7376 8.83668 88.1993 10.5277C90.6223 12.1172 92.9322 13.8718 95.1124 15.7788C94.67 15.9791 94.2435 16.2129 93.8369 16.4781ZM98.4414 14.9142C97.7676 15.0112 97.1024 15.16 96.4517 15.3592C94.1693 13.2631 91.7209 11.354 89.1304 9.65041C86.4938 7.77436 83.7512 6.05082 80.9163 4.4883C80.9674 4.06601 80.9674 3.63913 80.9163 3.21684C80.9319 2.96254 80.8973 2.70766 80.8143 2.46668C82.0874 3.19333 83.318 3.99139 84.5004 4.85702L89.9722 8.67139C91.7919 9.9598 93.6243 11.2313 95.4695 12.4858C96.5537 13.2359 97.6251 13.9861 98.6327 14.8252L98.4414 14.9142ZM38.9148 89.536C39.2975 90.7311 37.9455 91.2906 37.0781 91.6339C36.046 92.068 34.9677 92.3837 33.8639 92.5748C31.614 92.9561 29.3156 92.9561 27.0656 92.5748C26.9585 92.5392 26.8672 92.4675 26.8075 92.372C26.7478 92.2765 26.7234 92.1632 26.7385 92.0516C26.7536 91.9401 26.8073 91.8373 26.8903 91.7611C26.9733 91.6848 27.0804 91.6398 27.1932 91.6339C29.22 91.7942 31.2594 91.6137 33.2262 91.0999C34.214 90.8565 35.1854 90.5507 36.1343 90.1844C36.8509 89.7487 37.6291 89.423 38.4429 89.2181C38.5444 89.2183 38.6434 89.2487 38.7275 89.3053C38.8116 89.3619 38.8768 89.4422 38.9148 89.536ZM39.1444 84.4501C39.0679 85.302 37.8689 85.8869 37.244 86.3065C36.4352 86.8085 35.5812 87.2342 34.693 87.5779C33.7999 87.9492 32.8601 88.1974 31.8997 88.3154C30.9823 88.3845 30.0607 88.2588 29.1957 87.9467C28.8641 87.8322 28.9023 87.2855 29.285 87.3109C30.1425 87.3517 31.0014 87.2703 31.8359 87.0693C32.6704 86.8995 33.4802 86.6261 34.2466 86.2556C35.0501 85.8742 35.7772 85.4037 36.5424 84.9842C37.3077 84.5646 37.9965 83.8526 38.7235 84.0814C38.8213 84.0792 38.9167 84.111 38.9936 84.1713C39.0704 84.2316 39.1237 84.3167 39.1444 84.412V84.4501ZM40.573 79.555C39.9094 80.0923 39.1646 80.5214 38.3664 80.8265C37.6246 81.1846 36.8622 81.4988 36.0833 81.7674C34.5015 82.3222 32.8633 82.7016 31.1982 82.899C30.6625 82.899 30.5477 82.0471 31.0706 81.9581C32.661 81.7082 34.2182 81.2818 35.7134 80.6866C36.4608 80.4167 37.1931 80.1068 37.9072 79.7585C38.577 79.2913 39.2757 78.8667 39.999 78.487C40.5602 78.3217 40.9684 79.1355 40.573 79.5169V79.555ZM41.2107 73.1978C41.3765 74.1132 40.4582 74.8125 39.7056 75.1558C38.9531 75.4991 38.022 75.6135 37.1547 75.9568C35.6624 76.5798 34.3104 77.5334 32.614 77.2283C32.04 77.1393 32.1803 76.1603 32.7543 76.2111C34.1573 76.351 35.3052 75.3847 36.4914 74.7871C37.2057 74.4184 37.9582 74.2404 38.698 73.9352C38.9808 73.8292 39.2471 73.6836 39.4888 73.5029C39.7566 73.2741 39.8969 72.9562 40.2031 72.7782C40.2742 72.7303 40.354 72.6969 40.4381 72.68C40.5222 72.663 40.6088 72.6628 40.693 72.6793C40.7772 72.6959 40.8572 72.7289 40.9286 72.7764C40.9999 72.8239 41.0611 72.885 41.1087 72.9562C41.163 73.0361 41.1979 73.1275 41.2107 73.2232V73.1978ZM42.3459 68.9002C40.9178 69.7283 39.3478 70.2844 37.7159 70.5404C36.0996 70.8217 34.4565 70.9198 32.818 70.8329C32.6709 70.8109 32.5386 70.7316 32.4501 70.6124C32.3616 70.4932 32.3242 70.3438 32.3461 70.1971C32.3658 70.0795 32.4218 69.9709 32.5064 69.8865C32.5911 69.8022 32.7 69.7463 32.818 69.7267C34.3609 69.6491 35.8913 69.4104 37.3843 69.0147C38.124 68.8112 38.8511 68.6205 39.5653 68.379C40.2796 68.1374 41.0321 67.7941 41.7719 67.5398C42.5117 67.2855 43.0474 68.4934 42.3459 68.9257V68.9002ZM42.5499 63.7381C41.9744 64.1849 41.3335 64.5408 40.6495 64.7934C40.0266 65.0724 39.3878 65.3144 38.7363 65.5182C37.4168 65.944 36.0581 66.2379 34.6802 66.3955C34.0935 66.4718 33.966 65.48 34.5399 65.3783C35.8456 65.152 37.1268 64.8029 38.3664 64.3357C38.9659 64.1069 39.5398 63.8398 40.1138 63.5601C40.7017 63.2131 41.3109 62.9031 41.9377 62.632C42.1084 62.5889 42.2893 62.614 42.4417 62.7019C42.5942 62.7898 42.7062 62.9335 42.754 63.1024C42.7861 63.2206 42.7839 63.3454 42.7478 63.4624C42.7117 63.5794 42.6431 63.6838 42.5499 63.7636V63.7381ZM36.2618 54.3294L36.5807 54.1641C36.6911 54.0641 36.8106 53.9747 36.9378 53.8971L37.5756 53.6046C38.0092 53.3758 38.4301 53.1342 38.8511 52.8672L40.1265 52.0407C40.6104 51.7085 41.1225 51.4192 41.6571 51.1762C41.8389 51.1268 42.0319 51.1387 42.2062 51.2101C42.3804 51.2814 42.5262 51.4081 42.6207 51.5705C42.7153 51.7329 42.7533 51.9219 42.729 52.1081C42.7047 52.2944 42.6193 52.4673 42.4862 52.6002C42.0019 52.9679 41.4854 53.2913 40.9428 53.5665C40.0124 54.1271 39.0078 54.5551 37.9582 54.8379L37.2695 55.0287C37.1167 55.0414 36.9631 55.0414 36.8103 55.0287H36.4277C36.3747 55.0114 36.3257 54.9839 36.2835 54.9476C36.2413 54.9114 36.2067 54.8671 36.1818 54.8174C36.1569 54.7678 36.1421 54.7137 36.1383 54.6582C36.1346 54.6028 36.1418 54.5472 36.1598 54.4947C36.1765 54.4306 36.212 54.373 36.2618 54.3294ZM34.3359 60.2543C34.6154 60.0409 34.9248 59.8696 35.2542 59.7458C35.5986 59.6059 35.943 59.4406 36.3001 59.3135C36.9906 59.0797 37.6677 58.808 38.3281 58.4997C38.9914 58.2073 39.6929 57.953 40.3306 57.597C40.9683 57.241 41.3127 56.6053 41.976 56.4018C42.3459 56.3001 42.8688 56.6053 42.8178 57.0376C42.78 57.2775 42.7025 57.5096 42.5882 57.7241C42.6055 57.8041 42.6042 57.887 42.5843 57.9663C42.5644 58.0457 42.5264 58.1194 42.4734 58.1819C42.3408 58.3203 42.1798 58.4287 42.0015 58.4997C41.1356 59.1664 40.1603 59.6783 39.1189 60.0128C38.3536 60.3052 37.5756 60.5849 36.7848 60.8011C36.014 61.0516 35.1832 61.0516 34.4124 60.8011C34.3701 60.7798 34.3327 60.7501 34.3024 60.7138C34.2722 60.6775 34.2498 60.6353 34.2366 60.59C34.2234 60.5446 34.2198 60.4971 34.2259 60.4503C34.232 60.4035 34.2477 60.3584 34.2721 60.3179C34.2858 60.2835 34.3077 60.253 34.3359 60.2289V60.2543Z" fill="black"/>
</g>
<defs>
<clipPath id="clip0_20_136">
<rect width="102" height="100" fill="white"/>
</clipPath>
</defs>
</svg>
