<svg width="74" height="72" viewBox="0 0 74 72" fill="none" xmlns="http://www.w3.org/2000/svg">
<path d="M55.0844 17.7928C56.1922 18.9007 56.1922 19.6984 55.0844 20.9724C53.6441 22.6232 23.7753 51.1625 22.5234 52.2482C22.1108 52.6443 21.561 52.8655 20.989 52.8655C20.417 52.8655 19.8672 52.6443 19.4546 52.2482C19.1196 51.7559 18.9774 51.1575 19.055 50.5671C19.1326 49.9767 19.4247 49.4354 19.8756 49.0464C22.8558 46.2324 49.5449 20.2966 52.0709 17.8925C52.4048 17.4839 52.8862 17.2233 53.4109 17.1673C53.9356 17.1113 54.4613 17.2644 54.8739 17.5934L55.0844 17.7928Z" fill="black"/>
<path d="M28.1848 29.1042C22.5899 29.1042 21.3491 25.0826 21.615 20.5956C21.8541 19.2078 22.5357 17.9346 23.5581 16.9662C24.5804 15.9977 25.8887 15.386 27.2874 15.2223C30.2122 15.1116 32.1953 15.4661 34.3114 17.8148C36.4275 20.1635 35.8735 23.4318 35.1202 25.5701C34.2117 28.2068 31.2204 29.1042 28.1848 29.1042ZM25.7474 23.7199C26.0142 24.1741 26.3817 24.5611 26.8215 24.8512C27.2613 25.1412 27.7618 25.3265 28.2845 25.3928C28.8868 25.4921 29.5043 25.4432 30.0834 25.2501C30.6625 25.0571 31.1859 24.7258 31.6081 24.2849C32.0516 23.7187 32.3264 23.0389 32.4009 22.3236C32.4754 21.6083 32.3465 20.8865 32.0291 20.2411C31.2046 19.302 30.0411 18.7282 28.7941 18.6457C27.8717 18.6787 26.9788 18.9789 26.2238 19.5099C25.7046 20.0729 25.3785 20.7869 25.2928 21.548C25.2071 22.3091 25.3664 23.0776 25.7474 23.742V23.7199Z" fill="black"/>
<path d="M48.1268 54.5859C42.532 54.5859 41.2911 50.5643 41.557 46.0773C41.7961 44.6895 42.4778 43.4163 43.5001 42.4479C44.5225 41.4794 45.8307 40.8677 47.2294 40.704C50.1542 40.5932 52.1374 40.9478 54.2534 43.2965C56.3695 45.6452 55.8156 48.9135 55.0622 51.0517C54.1537 53.6885 51.1624 54.5859 48.1268 54.5859ZM45.6894 49.2016C45.9563 49.6558 46.3237 50.0428 46.7636 50.3328C47.2034 50.6229 47.7039 50.8082 48.2265 50.8745C48.8288 50.9738 49.4463 50.9249 50.0254 50.7318C50.6046 50.5388 51.1279 50.2075 51.5502 49.7666C51.9937 49.2004 52.2685 48.5206 52.3429 47.8053C52.4174 47.09 52.2886 46.3682 51.9712 45.7228C51.1466 44.7836 49.9832 44.2099 48.7361 44.1274C47.8138 44.1604 46.9208 44.4606 46.1658 44.9916C45.6466 45.5546 45.3205 46.2686 45.2348 47.0297C45.1492 47.7908 45.3084 48.5593 45.6894 49.2237V49.2016Z" fill="black"/>
</svg>
