<svg width="90" height="80" viewBox="0 0 90 80" fill="none" xmlns="http://www.w3.org/2000/svg">
<g clip-path="url(#clip0_18_76)">
<path d="M47.17 79.22C46.96 78.86 46.4 79.05 46.25 78.6C46.1647 78.7103 46.0401 78.7834 45.9021 78.8039C45.7642 78.8244 45.6237 78.7907 45.51 78.71L45.4 78.6C45.01 79.06 44.65 78.6 44.4 78.5C44.1015 78.3804 43.7685 78.3804 43.47 78.5C43.25 78.59 42.84 78.63 42.73 78.5C42.5733 78.3433 42.3777 78.231 42.1633 78.1748C41.9489 78.1186 41.7235 78.1204 41.51 78.18C40.979 78.1902 40.4496 78.1194 39.94 77.97C39.45 77.86 38.94 78.16 38.46 77.79C38.2 77.59 37.88 78.28 37.61 77.79C37.2726 77.7168 36.9205 77.759 36.61 77.91C36.49 78 36.17 77.81 36.06 77.91C35.75 78.15 35.66 77.91 35.47 77.76C35.1 77.55 34.74 77.1 34.26 77.59C33.66 77.2 32.95 77.53 32.32 77.3C32.21 77.3 32.06 77.18 31.97 77.22C31.0146 77.5182 29.985 77.4722 29.06 77.09C28.69 76.98 28.13 77.15 27.92 76.61C27.5063 76.552 27.1026 76.4376 26.72 76.27C26.2614 76.157 25.7921 76.0933 25.32 76.08C25.0197 75.6917 24.5967 75.4168 24.12 75.3C23.98 74.72 23.4 74.79 23 74.62L23.18 74.36C22.92 74.24 22.58 74.18 22.43 73.98C22.28 73.78 22.32 73.51 22.13 73.28C21.66 72.7 21.31 72.03 20.86 71.44C20.4506 70.9934 20.1797 70.4376 20.08 69.84V69.76C19.6435 69.1773 19.3769 68.485 19.31 67.76C19.2097 67.019 19.2504 66.2658 19.43 65.54C19.52 65.32 19.29 65 19.3 64.73C19.3 64.1 19.46 63.48 19.48 62.85C19.5284 62.4485 19.5013 62.0415 19.4 61.65C19.29 61.33 19.53 60.9 19.48 60.54C19.4 60.01 19.69 59.54 19.71 59.08C19.7196 58.6194 19.7902 58.162 19.92 57.72C20.0707 57.3735 20.2479 57.0392 20.45 56.72C20.6334 56.4176 20.7366 56.0734 20.75 55.72C20.75 55.2 21.12 54.84 21.33 54.41C21.4431 54.266 21.5372 54.108 21.61 53.94C21.66 53.71 21.47 53.36 21.95 53.38C22.035 53.2312 22.0665 53.0577 22.0392 52.8885C22.0119 52.7193 21.9275 52.5645 21.8 52.45C21.923 52.4155 22.0433 52.3721 22.16 52.32C22.08 51.85 22.56 51.66 22.65 51.32C22.65 51.14 23.02 51 22.79 50.81C22.56 50.62 22.92 50.51 22.86 50.33C22.8 50.15 22.97 49.76 23.15 49.76C23.57 49.76 23.61 49.33 23.62 49.23C23.62 48.71 24.03 48.48 24.33 48.13C24.2354 47.9712 24.1647 47.7993 24.12 47.62C24.12 47.56 24.41 47.49 24.45 47.38C24.6 47.02 24.69 46.65 24.83 46.2C24.9324 46.2199 25.0376 46.2199 25.14 46.2C25.43 46.11 25.66 45.88 25.53 45.6C25.4565 45.465 25.418 45.3137 25.418 45.16C25.418 45.0063 25.4565 44.855 25.53 44.72C25.65 44.47 25.53 44.16 25.68 43.85C25.83 43.54 25.62 42.99 25.96 42.63C26.0949 41.6658 26.1651 40.6936 26.17 39.72C26.13 39.2375 26.13 38.7525 26.17 38.27C26.2043 37.3783 26.065 36.4885 25.76 35.65C25.7299 35.4645 25.7299 35.2754 25.76 35.09H24.23V35.61C23.33 35.2 22.33 35.69 21.42 35.31C21.4077 35.3974 21.3783 35.4815 21.3334 35.5576C21.2886 35.6336 21.2291 35.7 21.1585 35.753C21.0879 35.8059 21.0075 35.8444 20.9219 35.8662C20.8364 35.888 20.7474 35.8927 20.66 35.88L20.61 35.84C20.22 35.77 19.79 36.01 19.44 35.67C19.12 35.96 18.82 35.81 18.44 35.67C18.3177 35.6041 18.1752 35.586 18.0403 35.6193C17.9054 35.6525 17.7877 35.7348 17.71 35.85L17.08 35.21C17.03 35.34 17 35.45 16.93 35.63C16.3956 35.7313 15.8426 35.6392 15.37 35.37C15.27 35.31 15.08 35.21 15.03 35.25C14.42 35.77 13.61 35.12 13.03 35.6L12.81 35.47C12.6491 35.3638 12.4821 35.2669 12.31 35.18C11.81 34.93 11.68 34.96 11.15 35.41L10.29 34.7C10.23 35.02 10.18 35.23 10.12 35.52L9.91999 35.08C9.48999 35.15 9.05999 35.2 8.61999 35.23C7.82999 35.23 7.81999 35.23 7.61999 34.41C7.49999 34.41 7.31999 34.35 7.23999 34.41C7.13802 34.5355 6.99101 34.6163 6.83034 34.635C6.66967 34.6536 6.50806 34.6088 6.37999 34.51C6.32577 34.4638 6.2786 34.4099 6.23999 34.35C6.14044 34.246 6.02094 34.1632 5.88863 34.1065C5.75632 34.0498 5.61394 34.0204 5.46999 34.02C5.03999 34.02 4.88999 33.72 4.67999 33.6L3.60999 33.84C3.47999 33.54 3.35999 33.28 3.20999 32.96L2.20999 33.02C1.72003 32.6401 1.2799 32.1999 0.899992 31.71L0.509992 32.11L-0.0400085 31.72V28.14C0.292651 28.11 0.627332 28.11 0.959991 28.14C1.12594 28.184 1.30109 28.1792 1.46433 28.1259C1.62756 28.0727 1.77192 27.9734 1.87999 27.84C2.25606 27.87 2.63392 27.87 3.00999 27.84C3.12999 27.84 3.07999 27.27 3.41999 27.55C3.75999 27.83 3.79999 27.62 4.01999 27.55C4.13226 27.5204 4.25027 27.5206 4.36246 27.5504C4.47466 27.5802 4.57718 27.6386 4.65999 27.72C4.86999 27.89 5.05999 27.72 5.18999 27.57C5.38127 27.3771 5.5491 27.1623 5.68999 26.93C6.04999 27.77 6.68999 26.93 7.11999 27.1C7.92248 26.6824 8.75475 26.3248 9.60999 26.03C10.0883 25.772 10.5951 25.5707 11.12 25.43C11.35 25.43 11.53 25.08 11.7 24.93C11.87 24.78 12.04 25.01 12.18 24.93C12.32 24.85 12.62 24.66 12.83 24.51C13.04 24.36 13.31 24.71 13.28 24.27C13.3619 24.2316 13.4499 24.2079 13.54 24.2H13.85C13.94 24.2 14.26 23.96 14.47 23.89C14.669 23.8569 14.8498 23.7541 14.98 23.6C15.18 23.71 15.38 24.06 15.53 23.53C15.62 23.2 15.83 23.37 15.99 23.53C16.0353 23.546 16.0847 23.546 16.13 23.53L16.73 22.87C16.4 22.63 16.86 22.45 16.73 22.2C16.6 21.95 16.85 21.47 16.6 21.11C16.5405 20.9604 16.5099 20.8009 16.51 20.64C16.4018 20.2771 16.3678 19.8962 16.41 19.52C16.4883 19.1284 16.5219 18.7292 16.51 18.33C16.61 17.9058 16.61 17.4642 16.51 17.04C16.42 16.77 16.62 16.42 16.69 16.1C16.76 15.78 16.98 15.38 16.86 15.18C16.74 14.98 16.94 14.65 16.86 14.4C16.8252 14.2842 16.8288 14.1603 16.8703 14.0467C16.9117 13.9332 16.9888 13.8361 17.09 13.77C17.15 13.77 17.24 13.66 17.23 13.63C17.06 12.8 17.91 12.17 17.66 11.34C17.9308 11.1741 18.1583 10.946 18.3235 10.6748C18.4887 10.4035 18.5869 10.0968 18.61 9.77998C18.6314 9.5894 18.7002 9.4072 18.81 9.24998C18.95 8.98998 19.25 8.86998 19.25 8.48998C19.25 8.32998 19.61 8.17998 19.8 8.01998C19.99 7.85998 19.99 7.88998 20.01 7.79998C20.182 7.28923 20.5386 6.86122 21.01 6.59998C21.39 6.36998 21.36 5.66998 22.01 5.77998C22.01 5.77998 22.06 5.60998 22.1 5.51998C22.1496 5.36756 22.2203 5.22282 22.31 5.08998C22.54 4.79998 22.95 4.74998 23.2 4.53998C23.45 4.32998 23.59 3.95998 23.89 3.73998C24.19 3.51998 24.6 3.33998 24.72 3.03998C24.84 2.73998 25.28 2.63998 25.48 2.33998C25.595 2.20092 25.7383 2.08797 25.9004 2.00865C26.0625 1.92933 26.2396 1.88547 26.42 1.87998C26.91 1.81998 26.78 1.33998 26.87 1.16998C27.13 1.16998 27.37 1.23998 27.45 1.16998C27.94 0.709976 27.92 0.729977 28.52 0.759977C28.72 0.759977 29.07 0.619976 29.1 0.489976C29.0896 0.453182 29.0868 0.414641 29.0918 0.37673C29.0969 0.338819 29.1096 0.302342 29.1293 0.269548C29.149 0.236754 29.1751 0.208338 29.2062 0.186053C29.2373 0.163769 29.2726 0.148088 29.31 0.139977C29.3643 0.125823 29.4216 0.127737 29.4748 0.145488C29.5281 0.163239 29.575 0.196062 29.61 0.239976C30.19 0.569976 30.74 0.0199761 31.31 0.239976C31.68 -0.120024 32.14 0.0799761 32.56 0.0299761C33.82 -0.120024 35.05 0.289976 36.3 0.249976C36.3817 0.251136 36.4623 0.269553 36.5364 0.30402C36.6105 0.338487 36.6765 0.388226 36.73 0.449976C36.8084 0.538327 36.9095 0.603632 37.0222 0.63887C37.135 0.674109 37.2552 0.677949 37.37 0.649977C38.0101 0.52039 38.6754 0.619477 39.25 0.929977C40.02 1.47998 41.04 1.55998 41.69 2.28998C42.18 2.28998 41.93 2.65998 42.09 2.92998L42.84 2.80998C42.9352 3.00924 43.0526 3.1971 43.19 3.36998C43.5894 3.86653 44.0694 4.29246 44.61 4.62998C44.8876 4.83996 45.1194 5.10433 45.2913 5.40694C45.4633 5.70955 45.5717 6.04404 45.61 6.38998L45.73 5.64998L46.52 6.49998C46.6505 6.46043 46.7776 6.41026 46.9 6.34998C47.04 6.20998 47.21 6.12998 47.31 6.34998C47.41 6.56998 47.23 6.63998 47.17 6.80998L47.44 6.89998C47.41 7.16246 47.41 7.4275 47.44 7.68998C47.5125 7.90612 47.636 8.10163 47.8 8.25998C47.94 8.42998 48.08 8.68998 48.37 8.42998L48.66 8.50998C48.76 8.50998 49.05 8.50998 48.97 8.76998C48.89 9.02998 48.74 8.93998 48.54 9.06998C49 9.15998 49.54 9.12998 49.78 9.46998C49.9 9.59998 49.78 9.92998 50.01 10.08C49.56 10.26 50.37 10.71 49.59 10.94C49.897 10.9199 50.202 11.0023 50.4572 11.1743C50.7123 11.3462 50.9033 11.5979 51 11.89C51.4588 12.7031 51.7607 13.5953 51.89 14.52C51.9193 14.7102 51.991 14.8913 52.1 15.05C52.1 15.13 52.25 15.19 52.29 15.28C52.41 15.53 51.86 15.66 52.18 15.98C52.3573 16.168 52.4634 16.4121 52.48 16.67C52.48 17.13 52.31 17.58 52.31 18.03C52.31 18.48 52.41 18.95 52.49 19.4C52.4955 19.448 52.4912 19.4967 52.4775 19.5431C52.4637 19.5895 52.4408 19.6327 52.41 19.67C52 20.11 52.1 20.67 52.09 21.19C52.0208 22.3598 51.7885 23.5143 51.4 24.62C51.2495 24.9732 51.1388 25.3422 51.07 25.72C51.1206 26.2517 50.9787 26.784 50.67 27.22C50.6503 27.2623 50.6401 27.3083 50.6401 27.355C50.6401 27.4016 50.6503 27.4477 50.67 27.49C50.94 27.72 50.84 27.9 50.62 28.06C50.5364 28.1199 50.472 28.2029 50.4347 28.2987C50.3974 28.3946 50.3888 28.4993 50.41 28.6V28.84C49.88 29.42 49.96 30.18 49.79 30.84C49.7427 30.9616 49.6788 31.076 49.6 31.18C49.53 31.29 49.37 31.41 49.39 31.5C49.53 32.23 48.94 32.8 48.96 33.5C48.9555 33.5636 48.9382 33.6257 48.909 33.6825C48.8797 33.7392 48.8392 33.7894 48.79 33.83C48.7018 33.908 48.6332 34.0057 48.5898 34.1151C48.5463 34.2246 48.5293 34.3427 48.54 34.46C48.54 34.91 48.54 34.9 48.03 35.46C48.2101 35.432 48.3874 35.3885 48.56 35.33C49.23 34.95 49.71 34.28 50.56 34.13C50.91 34.07 51.19 33.66 51.56 33.44C51.93 33.22 51.65 32.89 52.07 32.95C52.2864 32.9013 52.5 32.8412 52.71 32.77C52.93 32.77 53 32.93 53.11 32.89C53.22 32.85 53.26 32.64 53.37 32.56C53.9101 32.35 54.4746 32.2089 55.05 32.14C55.1827 32.1607 55.3184 32.1507 55.4467 32.1108C55.5749 32.0709 55.6924 32.0022 55.79 31.91C55.8447 31.849 55.9131 31.8018 55.9896 31.7722C56.0661 31.7427 56.1484 31.7316 56.23 31.74C57.07 31.81 57.8 31.26 58.64 31.31C59.1 30.91 59.84 31.31 60.27 30.74H60.53C60.5718 30.7928 60.6237 30.8367 60.6826 30.8693C60.7416 30.902 60.8064 30.9226 60.8733 30.93C60.9403 30.9375 61.008 30.9316 61.0727 30.9127C61.1373 30.8938 61.1976 30.8623 61.25 30.82C61.2815 30.7986 61.3086 30.7715 61.33 30.74C61.3908 30.7107 61.4575 30.6955 61.525 30.6955C61.5925 30.6955 61.6591 30.7107 61.72 30.74C62.1 31.12 62.57 30.86 62.99 30.94C63.3703 30.9501 63.7503 30.9098 64.12 30.82C64.54 30.82 64.91 31.06 65.33 30.94C65.82 31.37 66.47 31.07 67.04 31.31C67.6181 31.42 68.2118 31.42 68.79 31.31C68.8745 31.4565 68.9999 31.5753 69.1509 31.6516C69.3019 31.728 69.4718 31.7587 69.64 31.74C69.9376 31.7002 70.2399 31.7599 70.5 31.91C70.9013 32.0413 71.3183 32.1186 71.74 32.14C71.873 32.1262 72.0073 32.1469 72.13 32.2C72.67 32.69 73.33 32.52 73.95 32.56C74.17 32.76 74.33 33.03 74.71 32.98C74.7912 32.9753 74.8725 32.988 74.9484 33.0173C75.0243 33.0466 75.093 33.0919 75.15 33.15C75.2285 33.237 75.3265 33.3042 75.4361 33.3459C75.5456 33.3876 75.6635 33.4027 75.78 33.39C76.3347 33.4952 76.8799 33.6457 77.41 33.84C77.7838 34.0205 78.195 34.1096 78.61 34.1C79.2686 34.0776 79.9222 34.2221 80.51 34.52C80.63 34.52 80.72 34.7 80.84 34.71H81.77C82.08 34.71 82.26 34.87 82.51 34.9C82.8424 34.8649 83.1776 34.8649 83.51 34.9C83.77 35 84.06 34.9 84.32 35.05C84.42 35.13 84.71 34.97 84.92 34.92L84.99 35.2L85.16 35.28H86.16C86.32 35.28 86.54 35.28 86.61 35.42C86.68 35.56 87.05 35.49 87.2 35.6C87.418 35.7307 87.6493 35.838 87.89 35.92C88.3166 36.1421 88.7131 36.4176 89.07 36.74V39.92C89.07 40.28 89.22 40.67 88.88 40.98C88.85 41.0406 88.8344 41.1073 88.8344 41.175C88.8344 41.2426 88.85 41.3093 88.88 41.37C89.2 41.75 89.17 41.97 88.69 42.19C88.57 42.19 88.58 42.59 88.51 42.86C89 43.22 88.94 43.79 88.77 44.34C88.7082 44.982 88.5249 45.6064 88.23 46.18C88.65 46.8 87.94 47.47 88.34 48.18C88.3985 48.3603 88.4171 48.5511 88.3947 48.7393C88.3722 48.9274 88.3092 49.1085 88.21 49.27C87.94 49.73 88.21 50.27 87.86 50.69C87.78 50.8 87.86 51.02 87.86 51.18C87.9003 51.6148 87.8386 52.0531 87.68 52.46C87.57 52.67 87.74 53.03 87.78 53.32C87.82 53.61 87.87 53.8 87.78 53.86C87.39 54.13 87.44 54.5 87.45 54.86C87.4207 55.23 87.3502 55.5956 87.24 55.95C87.15 56.4 87.08 56.86 86.99 57.3C86.8771 57.7477 86.8233 58.2083 86.83 58.67C86.8491 58.8498 86.8305 59.0315 86.7754 59.2037C86.7203 59.3759 86.6299 59.5347 86.51 59.67C86.4061 59.7769 86.3251 59.9039 86.2718 60.0431C86.2185 60.1824 86.1941 60.331 86.2 60.48C86.2457 61.2423 85.9989 61.9933 85.51 62.58C85.4316 62.7176 85.3871 62.8718 85.38 63.03C85.362 63.3167 85.2841 63.5965 85.1515 63.8514C85.0189 64.1063 84.8344 64.3306 84.61 64.51C84.5883 64.5623 84.5771 64.6183 84.5771 64.675C84.5771 64.7316 84.5883 64.7877 84.61 64.84C84.6517 65.047 84.726 65.2462 84.83 65.43L84.13 65.56C84.1216 65.8113 84.1589 66.062 84.24 66.3C84.2709 66.348 84.2819 66.4061 84.2707 66.4621C84.2595 66.5181 84.227 66.5675 84.18 66.6C83.937 66.7345 83.7309 66.9268 83.58 67.16C83.45 67.4 83.24 67.58 83.31 67.88C83.1057 67.9673 82.934 68.1166 82.8191 68.3068C82.7043 68.497 82.6521 68.7185 82.67 68.94C82.03 69.02 82.03 69.74 81.59 70.04C81.15 70.34 81.02 70.71 80.53 70.93C79.9214 71.2906 79.3773 71.7503 78.92 72.29C78.71 72.5 78.6 72.79 78.21 72.81C78.07 72.81 77.95 73.15 77.8 73.37C77.6105 73.35 77.4195 73.35 77.23 73.37C77.1496 73.3706 77.0704 73.3888 76.9978 73.4234C76.9252 73.4579 76.8611 73.508 76.81 73.57C76.67 74.03 76.15 74.03 75.98 74.41C75.86 74.23 75.77 74.01 75.7 74.01C75.6187 74.0187 75.5405 74.0457 75.4713 74.089C75.402 74.1323 75.3434 74.1908 75.3 74.26C75.2495 74.5487 75.1216 74.8182 74.93 75.04C74.5972 75.4187 74.1523 75.6814 73.66 75.79L73.48 75.41C73.4526 75.6111 73.3469 75.7934 73.1858 75.917C73.0248 76.0406 72.8214 76.0956 72.62 76.07C72.2766 76.1 71.9396 76.1809 71.62 76.31C71.55 76.31 71.53 76.54 71.47 76.68C70.57 76.68 69.61 76.52 69.04 77.47C68.8712 77.3659 68.6815 77.3003 68.4845 77.2778C68.2875 77.2554 68.0879 77.2766 67.9 77.34C67.73 77.34 67.61 77.61 67.45 77.63C67.29 77.65 67.08 77.53 66.89 77.51C66.4607 77.4674 66.0276 77.5327 65.63 77.7C65.29 77.82 64.99 78.03 64.54 77.7C64.09 77.37 63.96 77.95 63.8 78.29C63.45 77.83 63.1 78.23 62.74 78.29L62.6 77.89C62.29 77.89 61.89 78.11 61.71 77.98C61.35 77.72 61.18 78.32 60.91 78.05C60.52 78.243 60.0815 78.3161 59.65 78.26L58.36 78.12L58.25 78.43C57.9447 78.3523 57.6337 78.2988 57.32 78.27C57.2234 78.2644 57.1267 78.2784 57.0357 78.311C56.9446 78.3437 56.861 78.3943 56.79 78.46C56.6382 78.5955 56.4488 78.6815 56.2469 78.7065C56.045 78.7315 55.8402 78.6944 55.66 78.6C55.2677 78.4572 54.8432 78.4275 54.4348 78.5141C54.0264 78.6007 53.6506 78.8003 53.35 79.09L47.17 79.22ZM29.61 34.35C29.6282 34.9539 29.6917 35.5556 29.8 36.15C30.0169 36.745 30.1121 37.3775 30.08 38.01C29.9104 38.9446 29.8101 39.8905 29.78 40.84C29.7693 41.7235 29.6104 42.599 29.31 43.43C29.31 43.55 29.2 43.67 29.18 43.79C28.9807 44.7629 28.6686 45.7093 28.25 46.61C28.1 46.97 27.68 47.32 27.77 47.61C27.91 48.12 27.18 48.31 27.46 48.79C27.22 49.1 26.97 49.41 26.73 49.73C26.6405 49.8608 26.5603 49.9978 26.49 50.14C26.41 50.32 26.68 50.65 26.25 50.69C25.82 50.73 26.51 51 26.15 51.18C25.9645 51.2946 25.8189 51.4637 25.733 51.6641C25.6471 51.8645 25.6251 52.0866 25.67 52.3C25.6822 52.4168 25.6647 52.5349 25.6193 52.6432C25.5739 52.7516 25.5019 52.8468 25.41 52.92C25.3167 53.0129 25.2629 53.1383 25.26 53.27C25.2764 53.452 25.2537 53.6354 25.1933 53.8079C25.1329 53.9804 25.0363 54.1379 24.91 54.27C24.7 54.47 24.8 54.93 24.7 55.27C24.6 55.61 24.23 56.16 24.1 56.68C23.8597 57.2009 23.6688 57.7433 23.53 58.3C23.4423 58.6415 23.3286 58.9758 23.19 59.3C23.1 59.61 23.24 59.94 23.06 60.3C22.9599 60.6541 22.9293 61.0242 22.97 61.39C22.97 61.63 22.97 61.88 22.97 62.12C22.9506 62.3145 22.9816 62.5108 23.06 62.69C23.15 62.82 22.8 63.05 22.95 63.29C23.0189 63.4378 23.0596 63.5972 23.07 63.76C23.07 63.88 23.16 64.06 23.07 64.1C22.81 64.33 22.94 64.62 22.93 64.88C22.9 65.256 22.9 65.6339 22.93 66.01C23.0102 66.3932 23.0703 66.7804 23.11 67.17C23.1598 67.5072 23.2299 67.8412 23.32 68.17C23.3686 68.5296 23.5023 68.8724 23.71 69.17C24.01 69.7 24.29 70.24 24.58 70.78C24.87 71.32 24.94 71.68 25.27 71.91C25.6003 72.2118 25.8985 72.5469 26.16 72.91C26.48 73.22 27.01 73.31 27.16 73.82C27.59 73.82 27.77 74.41 28.32 74.31C28.57 74.31 28.92 74.52 29.26 74.48C29.46 74.89 29.81 74.71 30.12 74.76C30.43 74.81 30.53 75.15 30.9 75.12C31.2408 75.1339 31.5778 75.198 31.9 75.31C32.19 75.37 32.48 75.21 32.79 75.43C32.92 75.53 33.25 75.31 33.49 75.32C33.73 75.33 34.06 75.52 34.33 75.5C35.83 75.39 37.33 75.7 38.8 75.72H39.93C40.3 75.72 40.65 76.11 41 75.72C41.5 76.15 42.2 75.72 42.69 76.13C43.83 76.13 44.9 76.61 46.04 76.55C46.1699 76.5585 46.2947 76.6036 46.4 76.68C46.7913 76.9396 47.2672 77.0398 47.73 76.96C49.11 76.87 50.51 77.16 51.89 76.77C52.1959 76.74 52.5041 76.74 52.81 76.77C53.1 76.77 53.44 76.92 53.68 76.61C53.7633 76.7064 53.8809 76.7667 54.0078 76.7779C54.1348 76.7891 54.2611 76.7504 54.36 76.67L54.42 76.61C54.84 76.93 55.17 76.69 55.53 76.47C55.7133 76.3806 55.9224 76.3594 56.12 76.41C56.34 76.41 56.55 76.6 56.76 76.59C56.97 76.58 57.26 76.43 57.51 76.41C58.1073 76.3991 58.7026 76.3389 59.29 76.23C60.51 76.04 61.78 76.06 63.02 75.98C63.38 75.98 63.78 76.15 64.02 75.78C64.9 75.89 65.67 75.37 66.54 75.34C66.9484 75.32 67.3326 75.1404 67.61 74.84C67.786 74.6508 68.0234 74.5303 68.28 74.5C68.5108 74.5005 68.739 74.4517 68.9494 74.3568C69.1598 74.262 69.3475 74.1233 69.5 73.95C69.74 73.68 69.88 74.06 70.08 74.01C70.1161 73.8926 70.163 73.7788 70.22 73.67C70.76 73.78 70.89 73.36 71.09 72.98L71.46 73.19C72.1114 72.6386 72.871 72.2299 73.69 71.99C73.83 71.99 73.96 71.79 74.07 71.66C74.18 71.53 74.4 71.97 74.51 71.66C74.68 71.12 75.12 70.97 75.57 70.76C76.02 70.55 76.27 70.14 76.68 69.94C77.09 69.74 76.8 69.36 77.23 69.3C77.45 69.3 77.67 68.96 77.8 68.65C77.93 68.34 78.25 68.3 78.47 68.11C78.69 67.92 78.8 67.85 78.79 67.74C78.79 67.22 79.18 67.05 79.43 66.74C79.68 66.43 79.85 66.4 79.82 66.3C79.68 65.8 80.37 65.67 80.25 65.23C80.13 64.79 80.95 64.69 80.68 64.17V64C81.18 63.88 80.82 63.14 81.39 63C81.51 63 81.6 62.62 81.65 62.41C81.6579 62.2191 81.6445 62.0279 81.61 61.84C81.6601 61.6543 81.727 61.4735 81.81 61.3C81.9 61.1 81.93 60.81 82.09 60.71C82.25 60.61 81.94 60.42 82.09 60.25C82.3126 60.0013 82.4773 59.7065 82.5724 59.3866C82.6675 59.0668 82.6906 58.7298 82.64 58.4C82.64 58.33 82.72 58.23 82.75 58.15C83.2312 56.9423 83.5213 55.667 83.61 54.37C83.6182 54.0758 83.6618 53.7837 83.74 53.5C83.9573 52.9434 84.0528 52.3466 84.02 51.75C83.85 50.56 84.45 49.47 84.44 48.3C84.89 48.04 84.35 47.73 84.44 47.55C84.74 47.07 84.58 46.55 84.63 46.07C84.62 45.9736 84.62 45.8764 84.63 45.78C84.8983 45.2552 85.0226 44.6685 84.99 44.08C84.9 43.45 85.24 42.91 85.22 42.3V39.09C85.22 38.89 85.14 38.62 85.22 38.49C85.56 38.01 85.33 37.64 85.1 37.24H84.17C84.008 37.2493 83.8481 37.1996 83.72 37.1C83.645 36.9841 83.5334 36.8966 83.4029 36.8513C83.2725 36.806 83.1307 36.8055 83 36.85C82.7702 36.938 82.5545 37.0592 82.36 37.21C81.96 36.86 81.96 36.86 81.68 36.83C81.4538 36.8136 81.2295 36.7768 81.01 36.72C80.45 36.57 79.9 36.4 79.35 36.23C78.98 36.11 78.58 36.32 78.2 35.98C77.82 35.64 77.46 35.77 77.14 35.58C76.975 35.4672 76.7854 35.3956 76.587 35.3713C76.3887 35.3469 76.1874 35.3705 76 35.44C75.74 35.58 75.68 35.44 75.52 35.39C75.3032 35.3378 75.0921 35.2641 74.89 35.17C74.72 35.08 74.58 34.77 74.46 34.79C73.9938 34.8171 73.5352 34.6631 73.18 34.36C72.98 34.24 72.8 34.01 72.49 34.3C72.18 34.59 71.96 34.36 71.66 34.19C71.2501 33.9345 70.7823 33.7866 70.3 33.76C69.4693 33.6797 68.6544 33.481 67.88 33.17L67.75 33.53C67.52 33.32 67.26 32.93 67.09 32.97C66.9144 32.9955 66.7355 32.9857 66.5637 32.9411C66.392 32.8964 66.2309 32.8178 66.09 32.71C65.7 33.17 65.31 32.71 64.93 32.71C64.29 32.71 63.58 33.23 62.99 32.57C62.9498 32.609 62.9022 32.6396 62.85 32.66C62.6954 32.7398 62.524 32.7814 62.35 32.7814C62.176 32.7814 62.0046 32.7398 61.85 32.66C61.7968 32.635 61.7388 32.6221 61.68 32.6221C61.6212 32.6221 61.5632 32.635 61.51 32.66C61.15 32.81 60.73 32.84 60.51 33.26C60.11 33.03 59.75 32.8 59.42 33.26C59.3919 33.2858 59.3587 33.3054 59.3225 33.3175C59.2863 33.3296 59.248 33.3338 59.21 33.33C58.8159 33.2942 58.4186 33.3368 58.0411 33.4552C57.6635 33.5736 57.3131 33.7656 57.01 34.02C56.64 33.79 56.64 33.79 56.49 34.02L56.37 34.24C55.78 33.67 55.8 34.51 55.61 34.6L55.17 34.47C55.1237 34.6381 55.023 34.7861 54.8837 34.891C54.7444 34.9959 54.5744 35.0518 54.4 35.05C53.95 35.05 54.01 35.73 53.55 35.5C53.19 35.95 52.48 35.89 52.17 36.41C52.1183 36.5318 52.0814 36.6594 52.06 36.79H51.06L51.34 37.1L50.48 37.2V37.76C50.32 37.76 50.2 37.62 50.12 37.65C49.78 37.76 49.94 38.12 49.82 38.37H49.07C49.07 38.96 48.57 39.05 48.24 39.31V39.94L48.18 40.01C47.7 39.86 47.53 39.85 47.4 40.19C47.3159 40.3828 47.1937 40.5565 47.0408 40.7009C46.8879 40.8452 46.7073 40.9572 46.51 41.03C46.111 41.253 45.8004 41.6059 45.63 42.03C45.49 42.41 45.23 42.37 45.11 42.29C44.9589 42.1584 44.7653 42.086 44.565 42.086C44.3647 42.086 44.1711 42.1584 44.02 42.29C43.8667 42.2463 43.7164 42.1929 43.57 42.13C43.5455 42.4153 43.5055 42.699 43.45 42.98C42.86 42.54 42.86 42.54 42.35 42.74C42.1525 42.5313 41.9964 42.2869 41.89 42.02C41.8416 41.8533 41.8282 41.6785 41.8506 41.5064C41.873 41.3343 41.9306 41.1687 42.02 41.02C42.24 40.76 42.17 40.41 42.37 40.23C42.4796 40.1567 42.5558 40.043 42.582 39.9138C42.6082 39.7846 42.5824 39.6502 42.51 39.54C43.04 38.94 42.99 38.1 43.51 37.44C43.8251 36.9553 44.0362 36.4104 44.13 35.84C44.19 35.5 44.23 34.94 44.54 34.84C44.85 34.74 44.92 34.46 44.92 34.16C44.9199 34.1115 44.9295 34.0634 44.9484 34.0187C44.9673 33.9741 44.9951 33.9337 45.03 33.9C45.1475 33.8031 45.2385 33.6779 45.2945 33.5363C45.3505 33.3946 45.3696 33.241 45.35 33.09C45.35 32.95 45.49 32.8 45.61 32.69C45.73 32.58 45.72 32.49 45.61 32.4C45.93 32.06 45.55 31.4 46.09 31.19C46.0999 31.168 46.1051 31.1441 46.1051 31.12C46.1051 31.0958 46.0999 31.072 46.09 31.05C45.77 30.82 46.26 30.71 46.18 30.46C46.1 30.21 46.35 30 46.45 29.77C46.55 29.54 46.88 29.15 46.76 28.77C46.7 28.58 47.13 28.51 46.85 28.28C46.906 28.1554 46.9463 28.0244 46.97 27.89C46.97 27.75 46.97 27.47 46.97 27.27C47.0218 27.088 47.0887 26.9108 47.17 26.74C47.3104 26.4036 47.3884 26.0443 47.4 25.68C47.3683 25.1914 47.4612 24.7028 47.67 24.26C47.9373 23.7607 48.0521 23.1939 48 22.63C48.0273 22.4408 48.0674 22.2537 48.12 22.07C48.3062 21.2935 48.4035 20.4984 48.41 19.7C48.312 19.3895 48.2384 19.0719 48.19 18.75C48.19 17.96 47.97 17.17 47.96 16.36C47.9472 15.9973 47.8214 15.6476 47.6 15.36C47.2896 14.9109 47.0186 14.4358 46.79 13.94L46.89 13.8C46.63 13.36 46.37 12.95 46.14 12.52C45.91 12.09 45.42 11.73 45.51 11.13C45.4995 11.0868 45.4785 11.0468 45.4488 11.0136C45.4192 10.9805 45.3818 10.9552 45.34 10.94C44.91 10.94 44.96 10.44 44.72 10.23C44.61 10.12 44.61 9.83998 44.61 9.83998C44.01 9.99998 44.11 9.30998 43.76 9.15998C43.2888 8.90983 42.871 8.57015 42.53 8.15998C42.3482 8.06774 42.1743 7.96071 42.01 7.83998C41.87 7.63998 41.64 7.54998 41.52 7.41998C41.4 7.28998 40.96 7.35998 40.79 7.15998C40.6197 6.96029 40.4721 6.74228 40.35 6.50998C40.1 6.03998 39.58 6.02998 39.19 5.78998C38.6555 5.36683 38.0583 5.02946 37.42 4.78998C37.17 4.71998 36.71 4.71998 36.69 4.62998C36.61 4.21998 36.33 4.34998 36.09 4.28998C35.4359 4.09781 34.7669 3.96066 34.09 3.87998C33.87 3.87998 33.55 3.61998 33.47 3.69998C33.23 3.92998 33.06 3.69998 32.9 3.69998C32.6704 3.56745 32.4101 3.49768 32.145 3.49768C31.8799 3.49768 31.6195 3.56745 31.39 3.69998C31.31 3.69998 31.17 3.78998 31.11 3.69998C30.81 3.47998 30.53 3.69998 30.24 3.69998H29.1C28.9677 3.67573 28.8314 3.68703 28.7049 3.73271C28.5784 3.77838 28.4663 3.85681 28.38 3.95998C28.2226 4.0785 28.0258 4.13219 27.83 4.10998C27.4628 4.11734 27.1094 4.25161 26.83 4.48998C26.59 4.64998 26.46 5.07998 26.1 4.92998C25.74 4.77998 25.73 5.41998 25.35 5.37998C25.1234 5.37331 24.9013 5.44383 24.72 5.57998C24.52 5.70998 24.22 5.92998 24.23 6.07998C24.23 6.49998 23.88 6.31998 23.77 6.50998C23.6539 6.70523 23.52 6.88935 23.37 7.05998C23.18 7.28998 23.16 7.68998 22.77 7.72998C22.41 8.42998 21.55 8.72998 21.27 9.44998C21.1218 9.80764 20.8377 10.0918 20.48 10.24C20.59 10.69 20.31 10.99 20.08 11.32C19.96 11.49 20.08 11.78 19.94 11.98C19.8 12.18 19.58 12.21 19.84 12.52C20.1 12.83 19.5 12.9 19.51 13.07C19.56 13.64 18.91 14.15 19.42 14.76C19.4787 14.8666 19.4938 14.9918 19.4621 15.1093C19.4304 15.2268 19.3544 15.3274 19.25 15.39C19.2076 15.4251 19.1738 15.4696 19.1513 15.5199C19.1287 15.5701 19.118 15.6249 19.12 15.68C19.12 16.07 19.24 16.46 19.3 16.87C19.63 16.98 19.86 17.16 19.55 17.56L19.32 17.35C19.25 17.68 19.19 17.99 19.09 18.47L19.86 19.2C19.86 19.42 19.77 19.71 19.86 19.89C19.9581 20.0176 20.0113 20.174 20.0113 20.335C20.0113 20.4959 19.9581 20.6524 19.86 20.78C19.8163 20.872 19.8043 20.9759 19.826 21.0755C19.8478 21.175 19.9019 21.2645 19.98 21.33C20.41 21.74 20.48 22.41 20.98 22.76C20.98 23.42 21.52 23.83 21.76 24.32C21.87 24.32 21.99 24.24 22.07 24.32C22.48 24.51 22.16 24.95 22.37 25.25C22.5361 25.23 22.7039 25.23 22.87 25.25C23.09 25.25 23.32 25.47 23.51 25.43C23.91 25.35 23.92 25.81 24.05 25.83C24.512 25.8863 24.9399 26.102 25.26 26.44C25.2877 26.4549 25.3186 26.4626 25.35 26.4626C25.3814 26.4626 25.4123 26.4549 25.44 26.44C25.8 26.03 25.75 26.55 25.9 26.63C26.3043 26.8863 26.7373 27.0944 27.19 27.25C27.6548 27.429 28.0697 27.7171 28.4 28.09H28.71C28.8098 28.0775 28.9112 28.0913 29.0041 28.1298C29.097 28.1684 29.1783 28.2305 29.24 28.31C29.3734 28.4026 29.5225 28.4703 29.68 28.51C30.4731 28.7482 31.2484 29.0423 32 29.39C32.5515 29.5683 33.0763 29.8206 33.56 30.14C33.56 30.14 33.68 29.99 33.77 29.97C33.8589 29.9498 33.9511 29.9498 34.04 29.97L34.17 30.72L34.64 30.13C35.16 30.22 35.4 30.83 35.96 30.89C36.04 30.89 36.11 31.02 36.18 31.1C36.2326 31.1383 36.2768 31.187 36.31 31.243C36.3432 31.299 36.3646 31.3611 36.3731 31.4257C36.3815 31.4902 36.3767 31.5558 36.359 31.6184C36.3412 31.681 36.311 31.7394 36.27 31.79C36.2453 31.8248 36.2148 31.8553 36.18 31.88C36.0297 32.0584 35.8266 32.1845 35.6 32.24C35.28 32.31 34.84 32.52 34.75 32.78C34.54 33.37 33.95 33.3 33.6 33.6C33.43 33.75 33.09 33.69 32.85 33.77C31.91 34.11 30.95 34.35 30.02 34.68C29.8964 34.5547 29.7588 34.4439 29.61 34.35ZM25.61 31.12C25.45 30.34 25.44 30.34 24.8 30.21C24.6725 30.1944 24.5533 30.1383 24.46 30.05C24.3671 29.9188 24.2301 29.8255 24.074 29.7869C23.918 29.7484 23.7533 29.7672 23.61 29.84C23.3299 29.844 23.0529 29.7807 22.8023 29.6554C22.5517 29.5301 22.3349 29.3465 22.17 29.12C22.047 28.9595 21.8803 28.838 21.69 28.77C21.5 28.77 21.38 28.26 21.22 28.25C20.82 28.25 20.69 27.84 20.39 27.78C19.9706 27.7393 19.5679 27.5945 19.2187 27.3588C18.8694 27.123 18.5846 26.8038 18.39 26.43C18.13 25.91 17.54 25.73 17.03 25.5C16.9835 25.4953 16.9366 25.4999 16.8919 25.5137C16.8472 25.5274 16.8058 25.55 16.77 25.58C16.77 26.08 16.36 25.8 16.21 25.95C16.06 26.1 15.9 26.48 15.68 26.64C15.56 26.7548 15.4165 26.842 15.2593 26.8956C15.1021 26.9491 14.9351 26.9677 14.77 26.95C14.6552 26.922 14.535 26.9258 14.4222 26.9611C14.3094 26.9963 14.2084 27.0616 14.13 27.15C14.02 27.28 13.78 27.29 13.6 27.35C13.42 27.41 13.25 27.41 13.25 27.46C13.17 27.97 13 27.74 12.72 27.6C12.6608 27.5595 12.5917 27.5362 12.5201 27.5325C12.4486 27.5288 12.3774 27.5448 12.3143 27.5789C12.2513 27.613 12.1989 27.6638 12.1629 27.7257C12.1268 27.7877 12.1085 27.8583 12.11 27.93L11.61 27.71L11.52 28.29L10.91 28.15V28.84C10.4 28.61 9.90999 28.99 9.36999 28.55C9.03999 29.22 8.13999 29.14 7.75999 29.78L7.47999 29.61L7.36999 29.95C7.22999 29.95 7.10999 29.86 7.02999 29.95C6.94717 30.0574 6.84552 30.1489 6.72999 30.22C6.41999 30.38 6.41999 30.37 6.55999 30.53L7.30999 31.38C8.13999 31.38 8.82999 31.93 9.73999 31.64L9.94999 32.07C10.18 32 10.38 31.87 10.48 31.93C11.1269 32.128 11.8073 32.1926 12.48 32.12C12.7123 32.1055 12.9454 32.1291 13.17 32.19C13.75 32.59 14.47 32.55 15.08 32.83C15.152 32.85 15.228 32.85 15.3 32.83C15.7263 32.7137 16.1703 32.6764 16.61 32.72C17.4325 32.8846 18.2724 32.9451 19.11 32.9C19.25 32.9 19.42 32.84 19.52 32.9C20.16 33.3 20.85 33 21.52 33.09C21.7 33.09 21.86 32.76 22.09 33.09C22.09 33.09 22.49 32.96 22.69 32.87C22.89 32.78 22.96 32.73 23.09 32.66C23.22 32.59 22.95 33.28 23.42 32.99C23.6049 32.9196 23.8025 32.889 24 32.9H25.61L25.76 32.45C26.39 32.63 27.06 32.23 27.66 32.68C27.66 32.68 27.87 32.68 27.92 32.6C28.1031 32.4095 28.3375 32.2761 28.5948 32.2157C28.852 32.1554 29.1213 32.1708 29.37 32.26V31.74C28.59 31.41 27.64 31.74 26.97 31.04C26.9552 31.0301 26.9378 31.0248 26.92 31.0248C26.9022 31.0248 26.8848 31.0301 26.87 31.04C26.43 31.33 26.01 30.84 25.53 31.12H25.61Z" fill="black"/>
<path d="M46.42 57.9C45.93 58.07 45.61 57.76 45.31 57.38V56.48C45.2791 56.1822 45.3496 55.8827 45.51 55.63C45.6035 55.5358 45.6718 55.4195 45.7085 55.2919C45.7452 55.1643 45.7491 55.0295 45.72 54.9C45.63 54.63 46.11 54.54 45.85 54.18C45.59 53.82 46.23 54.02 46.27 53.76C46.27 53.66 46.27 53.54 46.35 53.49C46.78 53.13 46.71 52.49 47.04 52.11C47.2794 51.658 47.4705 51.1821 47.61 50.69C47.68 50.52 47.91 50.42 48 50.25C48.09 50.08 48 49.7 48.09 49.69C48.71 49.63 48.29 49.14 48.45 48.9C49.15 48.52 49.24 48.41 49.05 48.1C49.36 47.76 49.81 47.49 49.67 46.91C49.661 46.8967 49.6561 46.881 49.6561 46.865C49.6561 46.8489 49.661 46.8333 49.67 46.82C50.5 46.51 50.37 45.47 51.04 45.02C51.3671 44.7663 51.6625 44.4742 51.92 44.15C52.14 43.91 52.33 43.65 52.53 43.39C52.73 43.13 52.99 42.75 53.24 42.44L53.46 42.59C53.8 42.42 53.89 41.99 54.22 41.79C54.6008 41.6425 54.9428 41.4099 55.22 41.11C55.41 40.81 55.83 41.11 56.02 40.75C56.0829 40.6078 56.1896 40.4894 56.3245 40.412C56.4594 40.3347 56.6155 40.3024 56.77 40.32C56.88 40.32 57.01 40.09 57.15 40.02C57.59 39.82 57.93 39.38 58.5 39.51C58.5958 39.5097 58.6895 39.482 58.77 39.43C59.2761 39.0509 59.8984 38.86 60.53 38.89C60.82 38.89 61.12 38.98 61.39 38.71C61.47 38.64 61.81 38.9 62.01 38.88C62.9344 38.8141 63.8574 39.0266 64.66 39.49C64.8632 39.5833 65.0787 39.6473 65.3 39.68C65.913 39.7806 66.4717 40.0918 66.88 40.56C67.1953 40.8088 67.4927 41.0794 67.77 41.37C68.08 41.79 68.36 42.23 68.65 42.66C68.74 42.8 68.38 42.97 68.65 43.1C68.6794 43.8502 68.821 44.5917 69.07 45.3C69.1447 45.47 69.1617 45.6598 69.1184 45.8404C69.075 46.021 68.9737 46.1824 68.83 46.3C68.66 46.45 68.62 46.76 68.52 46.99C67.899 48.2288 67.1906 49.4219 66.4 50.56C65.66 50.74 65.85 51.42 65.73 51.98L65.25 51.71C64.4431 52.448 63.7128 53.2654 63.07 54.15C63.32 54.72 63.86 54.67 64.26 54.78C64.9351 54.9153 65.5673 55.2126 66.1021 55.6464C66.6369 56.0801 67.0583 56.6373 67.33 57.27C67.3913 57.4199 67.4284 57.5785 67.44 57.74V58.74C67.44 59.32 67.55 59.93 66.84 60.25C66.72 60.31 66.7 60.59 66.61 60.76C66.5227 61.0014 66.3978 61.2275 66.24 61.43C66.0337 61.6924 65.7704 61.9044 65.47 62.05C65.27 62.14 65.41 62.69 64.96 62.73C65.02 63.05 64.81 63.04 64.59 63.04C64.37 63.04 64.42 63.13 64.33 63.15C63.93 63.24 64.33 63.85 63.93 63.85C63.7954 63.8518 63.6634 63.8876 63.5462 63.9541C63.4291 64.0205 63.3307 64.1154 63.26 64.23C63.11 64.44 62.97 64.66 62.84 64.88C62.63 64.79 62.48 64.53 62.24 64.82C62 65.11 61.91 65.3 61.59 64.96C61.4531 65 61.3194 65.0501 61.19 65.11C61.06 65.18 60.55 65.38 60.43 65.31C60.1252 65.1415 59.7768 65.0683 59.43 65.1C59.0836 65.1505 58.7303 65.0798 58.43 64.9C58.05 65.25 57.79 65.03 57.53 64.73C57.4087 64.7291 57.2888 64.7565 57.18 64.81H57.04C56.85 64.28 56.18 64.23 55.96 63.52V62.02H58.39C58.56 62.83 58.66 62.91 59.44 62.71C59.4875 62.6902 59.5385 62.68 59.59 62.68C59.6415 62.68 59.6925 62.6902 59.74 62.71C59.9233 62.7602 60.1167 62.7602 60.3 62.71C60.5 62.64 60.71 62.4 60.89 62.43C61.1375 62.4602 61.3886 62.4336 61.6243 62.3521C61.86 62.2707 62.0739 62.1366 62.25 61.96C62.48 61.76 62.65 62.06 62.78 61.89C62.91 61.72 62.96 61.55 63.08 61.4C63.3 61.1 63.76 61.09 63.91 60.62C63.99 60.34 64.39 60.11 64.7 59.89C65.0692 59.5823 65.3317 59.1658 65.45 58.7C65.5153 58.4554 65.5126 58.1975 65.4421 57.9543C65.3716 57.7111 65.236 57.4918 65.05 57.32C64.73 56.99 64.11 57.03 63.97 56.47C63.9136 56.4406 63.8528 56.4203 63.79 56.41C63.0836 56.3562 62.3731 56.4034 61.68 56.55C61.3022 56.5969 60.9191 56.5732 60.55 56.48C60.4391 56.6178 60.2937 56.7236 60.1286 56.7869C59.9635 56.8501 59.7845 56.8685 59.61 56.84C59.1154 56.8199 58.6204 56.8704 58.14 56.99C57.14 57.22 57.14 57.12 56.47 57.57C56.383 57.6058 56.2925 57.6326 56.2 57.65C55.84 57.81 55.75 57.03 55.33 57.41L55.26 57.23C55.1881 57.0891 55.1407 56.9369 55.12 56.78C55.12 56.18 54.66 55.53 55.32 55.02C55.4695 54.9275 55.6362 54.8663 55.81 54.84C56.08 54.76 56.43 54.6 56.62 54.7C57 54.92 57.1 54.48 57.35 54.49C57.4894 54.5171 57.6241 54.5643 57.75 54.63C58.15 54.48 58.28 53.86 58.84 54.01C58.93 53.76 59.13 53.65 59.33 53.5C59.6366 53.2692 59.973 53.0809 60.33 52.94C60.5448 52.8872 60.7528 52.8101 60.95 52.71C61.09 52.6 61.15 52.38 61.25 52.22C61.35 52.06 61.4 52.01 61.47 52.01C62.02 52.01 62.27 51.57 62.62 51.27C62.97 50.97 63.23 50.79 63.54 50.55C63.5965 50.5102 63.6442 50.4591 63.68 50.4C63.953 49.9769 64.2904 49.599 64.68 49.28C65.27 48.83 65.47 47.99 66.11 47.53C66.33 46.63 67.11 45.91 66.97 44.89C66.9504 44.3389 66.8283 43.7964 66.61 43.29C66.301 42.8893 65.967 42.5085 65.61 42.15C65.05 41.39 64.1 41.43 63.4 40.98C63.09 40.78 62.88 41.27 62.52 40.98C62.16 40.69 61.85 40.98 61.52 40.98C61.3559 40.9664 61.1907 40.9879 61.0355 41.0431C60.8803 41.0982 60.7387 41.1858 60.62 41.3C60.34 41.54 60.22 41.24 60.03 41.3C59.8418 41.33 59.6574 41.3803 59.48 41.45C59.25 41.45 58.89 41.31 58.9 41.79C58.8073 41.8247 58.7089 41.8416 58.61 41.84C58.35 41.84 58.05 41.75 58.02 42.18C58.02 42.18 57.66 42.18 57.57 42.26C57.27 42.59 56.66 42.49 56.57 43.05C56.07 42.95 55.85 43.46 55.44 43.57C55.3795 43.598 55.3263 43.6396 55.2846 43.6917C55.243 43.7438 55.214 43.8048 55.2 43.87C55.2 44.12 55.02 44.16 54.86 44.11C54.34 43.92 54.36 44.64 53.95 44.63C53.95 45.21 53.46 45.49 53.1 45.8C52.74 46.11 52.42 46.26 52.43 46.8C52.43 46.87 52.31 46.98 52.22 47.01C51.62 47.21 51.53 47.79 51.22 48.24C50.91 48.69 50.89 49.24 50.46 49.59C50.38 49.65 50.24 49.74 50.25 49.8C50.34 50.58 49.53 50.8 49.25 51.36C49.1642 51.7902 48.9393 52.1802 48.61 52.47C48.53 52.53 48.52 52.71 48.52 52.84C48.5087 53.0374 48.4429 53.2277 48.33 53.39C48.0786 53.7996 47.8898 54.2445 47.77 54.71C47.5936 55.1252 47.3578 55.5126 47.07 55.86C46.9504 56.0119 46.8806 56.197 46.87 56.39C46.9011 56.659 46.8773 56.9316 46.8 57.1912C46.7226 57.4507 46.5933 57.6919 46.42 57.9Z" fill="black"/>
<path d="M36.96 26.07C36.81 25.86 36.7 25.54 36.55 25.51C36 25.42 36.04 24.98 35.91 24.64C35.6792 23.8695 35.7215 23.0429 36.03 22.3C36.0968 22.1725 36.1904 22.0609 36.3043 21.9729C36.4182 21.8849 36.5498 21.8225 36.69 21.79C37.3226 21.6315 37.9865 21.6488 38.61 21.84C38.87 21.96 38.87 22.2 39.04 22.28C39.21 22.36 39.45 22.28 39.64 22.28C39.8399 22.4265 39.9953 22.6255 40.0889 22.855C40.1824 23.0845 40.2105 23.3355 40.17 23.58C39.92 24.16 39.62 24.73 39.33 25.29C39.24 25.46 39.17 25.71 39.03 25.77C38.7302 25.8924 38.413 25.9667 38.09 25.99C37.7188 26.0686 37.3386 26.0955 36.96 26.07Z" fill="black"/>
<path d="M22.97 18.45C22.97 17.96 22.82 17.45 23.39 17.08C23.28 16.53 23.69 17.08 23.84 16.88C23.99 16.68 24.35 16.8 24.61 16.77C24.87 16.74 24.97 17.14 25.15 16.77C25.41 16.96 25.69 17.14 25.93 17.35C26.02 17.43 26 17.64 26.09 17.69C26.55 17.91 25.93 18.32 26.24 18.55C25.98 19.03 25.71 19.55 25.45 19.97C24.96 19.88 24.84 20.58 24.35 20.48C23.9864 20.3098 23.6495 20.0875 23.35 19.82C22.88 19.45 22.98 18.94 22.97 18.45Z" fill="black"/>
</g>
<defs>
<clipPath id="clip0_18_76">
<rect width="89.1" height="79.22" fill="white"/>
</clipPath>
</defs>
</svg>
