<svg width="80" height="141" viewBox="0 0 80 141" fill="none" xmlns="http://www.w3.org/2000/svg">
<g clip-path="url(#clip0_18_112)">
<path d="M76.8631 46.7438C74.562 44.7848 71.7146 43.5801 68.7062 43.2928C65.1925 43.104 61.7641 42.1398 58.667 40.4693C53.9844 37.4394 50.1941 33.216 47.6866 28.234C44.8631 22.9007 37.9612 8.78304 29.8043 14.4301C31.7126 14.79 33.5177 15.5672 35.0905 16.7061C36.6634 17.8451 37.965 19.3176 38.9023 21.0183C41.4121 24.783 42.9808 28.8615 45.4906 32.6262C46.7836 34.816 48.3665 36.821 50.1964 38.587C50.0361 39.2296 49.8263 39.859 49.569 40.4693C49.0597 41.6545 48.3122 42.7224 47.3729 43.6066C46.5531 44.7187 45.454 45.5946 44.1869 46.1455C42.9198 46.6964 41.5297 46.9028 40.1572 46.7438C40.968 47.2119 41.8877 47.4584 42.8239 47.4584C43.7601 47.4584 44.6798 47.2119 45.4906 46.7438C45.8266 48.5083 45.6506 50.3321 44.9835 51.9998C44.3164 53.6676 43.1861 55.1096 41.7259 56.1556C42.6343 55.8703 43.4773 55.4081 44.2062 54.7955C44.9352 54.1829 45.5357 53.4321 45.9731 52.5864C46.4106 51.7407 46.6763 50.8167 46.755 49.8678C46.8337 48.9189 46.7239 47.9638 46.4317 47.0575V44.8615C47.2577 45.0497 48.1155 45.0497 48.9415 44.8615C50.538 43.7287 51.831 42.2202 52.7063 40.4693C54.2516 41.7954 55.9344 42.9523 57.7259 43.9203C63.3729 47.0575 70.2749 45.8026 76.2357 47.9987C76.8631 47.9987 77.1768 47.0575 76.8631 46.7438Z" fill="black"/>
<path d="M34.1962 32.3151C34.1962 30.119 31.6864 26.3543 28.8629 27.6092C26.0394 28.8641 28.8629 27.6092 28.8629 27.6092C29.8072 28.7889 30.6469 30.0486 31.3727 31.3739C31.8434 33.014 31.8434 34.7534 31.3727 36.3935C31.3727 38.9033 31.3727 41.0994 31.3727 42.0406C31.3727 42.9817 33.2551 42.0406 31.3727 42.0406C29.4904 42.0406 31.3727 39.5308 31.3727 37.9621C32.8043 36.3677 33.7797 34.417 34.1962 32.3151Z" fill="black"/>
<path d="M29.4903 6.89855C32.7175 4.72422 36.5949 3.72717 40.4707 4.07502C43.4082 4.05978 46.3122 4.69952 48.9714 5.94772C51.6306 7.19591 53.9781 9.02117 55.8432 11.2907C59.0031 15.8956 61.634 20.8418 63.6863 26.0358C65.7687 31.4572 68.9764 36.3757 73.0981 40.4672C70.2746 34.8201 68.0785 29.1731 65.8824 23.526C64.3675 17.2195 61.4747 11.3268 57.4118 6.2711C54.8908 3.7824 51.8052 1.94049 48.4182 0.90254C45.0312 -0.135411 41.4434 -0.338596 37.9609 0.310316C34.443 0.526498 31.1124 1.96975 28.5491 4.38875C25.8058 7.17604 23.4809 10.3463 21.6471 13.8005C24.0293 11.2487 26.6563 8.93697 29.4903 6.89855Z" fill="black"/>
<path d="M75.6075 52.7039C77.4733 57.1602 78.1229 62.032 77.4899 66.8215C77.4899 71.8411 77.4899 77.1744 75.6075 82.5078C74.7606 88.5231 73.6088 94.4916 72.1565 100.39C71.5923 105.918 69.4096 111.156 65.882 115.449C61.8152 119.224 57.1506 122.298 52.0781 124.547L36.0781 134.586C30.6457 136.78 24.9507 138.256 19.1369 138.978C16.3488 139.611 13.4544 139.611 10.6663 138.978L4.70553 134.9C2.82318 134.9 4.70553 134.9 4.70553 134.9C5.91914 137.052 7.51366 138.965 9.41141 140.547C11.8678 141.279 14.4844 141.279 16.9408 140.547C23.4048 140.572 29.8073 139.292 35.7643 136.782C41.4114 134.272 47.0585 131.449 52.7055 128.312C58.3939 125.568 63.7601 122.201 68.7055 118.272C72.3441 114.075 74.4462 108.764 74.6663 103.214C76.5073 96.0971 77.8699 88.8652 78.7448 81.5666C79.0678 76.1335 79.0678 70.686 78.7448 65.2529C79.1119 60.8383 78.0089 56.4263 75.6075 52.7039Z" fill="black"/>
<path d="M11.9217 90.6658C13.2368 88.5696 15.103 86.8755 17.3164 85.7689C19.5297 84.6622 22.0047 84.1856 24.4707 84.3913C26.6668 84.3913 32.3139 86.2737 32.6276 84.3913C32.6276 84.3913 32.9413 82.509 32.6276 84.3913C32.6276 84.3913 29.4903 84.3913 27.9217 84.3913C25.9117 83.2882 24.3562 81.5104 23.5296 79.3717C23.5296 76.2345 25.0982 72.4698 26.6668 69.6462H24.4707C22.807 70.9735 21.4434 72.6384 20.4701 74.531C19.4967 76.4237 18.9356 78.5013 18.8237 80.6266C19.109 82.1831 19.8774 83.6101 21.0198 84.7051C18.9465 85.3072 17.0434 86.3872 15.4633 87.8583C13.8832 89.3294 12.6702 91.1506 11.9217 93.1757V90.6658Z" fill="black"/>
<path d="M28.549 90.3524C28.549 90.3524 28.549 93.4896 31.0588 93.8033C31.0588 93.8033 31.0588 90.0386 29.1764 89.0975C27.8192 87.6836 26.227 86.5159 24.4706 85.6465C26.2945 86.7432 27.7227 88.3911 28.549 90.3524Z" fill="black"/>
<path d="M19.4512 89.4148C21.6278 89.8098 23.6129 90.9127 25.0982 92.5521C25.0982 92.5521 27.608 95.0619 28.8629 94.7481C28.8629 94.7481 30.1179 94.4344 28.8629 94.7481C28.8629 94.7481 26.6669 90.9834 24.4708 90.0422C23.5827 89.6441 22.6205 89.4383 21.6473 89.4383C20.674 89.4383 19.7118 89.6441 18.8237 90.0422L19.4512 89.4148Z" fill="black"/>
<path d="M17.8826 129.565C24.4708 131.448 32.3139 124.546 37.0198 120.781C41.7257 117.016 43.9218 114.193 48.0002 111.369C51.5536 109.543 54.8283 107.218 57.7257 104.467C59.9186 101.696 61.1321 98.2759 61.1767 94.7419C61.6465 89.7333 61.6465 84.6917 61.1767 79.6831C61.1767 74.6634 61.1767 69.9576 61.1767 65.2517C61.5058 60.4466 62.7854 55.7546 64.9414 51.4478C63.8897 52.9867 62.7368 54.454 61.4904 55.8399C60.5961 57.2881 59.9592 58.8803 59.6081 60.5458C59.1444 64.716 59.1444 68.9247 59.6081 73.0948C59.6081 77.8007 59.6081 82.1929 59.6081 86.585C60.3893 90.9424 60.3893 95.4041 59.6081 99.7615H55.8434H49.2551C44.5216 98.8046 40.0361 96.8823 36.0786 94.1144C38.8574 97.72 42.2571 100.801 46.1179 103.212C49.188 104.564 52.4903 105.31 55.8434 105.409L50.51 110.114L39.8434 117.958L30.1179 125.487L24.4708 127.997C22.3209 128.697 20.1175 129.222 17.8826 129.565Z" fill="black"/>
<path d="M28.2351 64.9442C30.8161 65.5352 33.4973 65.5352 36.0782 64.9442C38.8824 65.4122 41.7447 65.4122 44.5488 64.9442C49.0578 64.1728 53.0996 61.7028 55.843 58.0422C52.6347 61.2888 48.4436 63.3844 43.9214 64.003C41.4207 64.3053 38.8927 64.3053 36.392 64.003C34.159 63.2136 31.7229 63.2136 29.49 64.003L28.2351 64.9442Z" fill="black"/>
<path d="M40.4704 43.9227C41.2165 42.8412 41.8474 41.6845 42.3527 40.4717C42.3527 40.4717 42.3527 40.4717 42.3527 40.4717C41.6268 41.3738 40.6411 42.0309 39.5292 42.354C39.5292 42.354 37.3331 42.354 37.0194 42.354V44.2364C37.0194 44.2364 39.5292 44.8638 40.4704 43.9227Z" fill="black"/>
</g>
<defs>
<clipPath id="clip0_18_112">
<rect width="80" height="140.863" fill="white"/>
</clipPath>
</defs>
</svg>
